<svg width="33" height="32" viewBox="0 0 33 32" fill="none" xmlns="http://www.w3.org/2000/svg">
<path fill-rule="evenodd" clip-rule="evenodd" d="M24.9253 19.244C26.588 17.1004 27.3716 14.404 27.1167 11.7033C26.8618 9.0025 25.5876 6.50028 23.5533 4.70565C21.519 2.91102 18.8774 1.9588 16.1659 2.04271C13.4544 2.12661 10.8768 3.24034 8.95733 5.15731C7.0362 7.07561 5.91883 9.65427 5.83292 12.3678C5.74701 15.0813 6.69903 17.7255 8.49496 19.7615C10.2909 21.7975 12.7956 23.072 15.4986 23.3254C18.2017 23.5788 20.8996 22.792 23.0427 21.1253L23.1 21.1853L28.756 26.8426C28.8799 26.9665 29.0269 27.0648 29.1888 27.1318C29.3507 27.1989 29.5241 27.2334 29.6993 27.2334C29.8745 27.2334 30.048 27.1989 30.2099 27.1318C30.3717 27.0648 30.5188 26.9665 30.6427 26.8426C30.7665 26.7188 30.8648 26.5717 30.9319 26.4098C30.9989 26.248 31.0334 26.0745 31.0334 25.8993C31.0334 25.7241 30.9989 25.5506 30.9319 25.3888C30.8648 25.2269 30.7665 25.0799 30.6427 24.956L24.9853 19.3C24.9658 19.2808 24.9458 19.2621 24.9253 19.244ZM22.1573 7.04398C22.9101 7.78462 23.5088 8.66697 23.9189 9.64016C24.329 10.6133 24.5424 11.6581 24.5467 12.7141C24.551 13.7702 24.3461 14.8166 23.944 15.7931C23.5418 16.7696 22.9503 17.6568 22.2036 18.4036C21.4568 19.1503 20.5696 19.7418 19.5931 20.144C18.6166 20.5461 17.5702 20.7509 16.5142 20.7466C15.4581 20.7423 14.4134 20.529 13.4402 20.1189C12.467 19.7088 11.5846 19.1101 10.844 18.3573C9.36388 16.8529 8.5382 14.8246 8.54679 12.7141C8.55539 10.6037 9.39756 8.58217 10.8899 7.08986C12.3822 5.59755 14.4037 4.75537 16.5142 4.74678C18.6246 4.73818 20.6529 5.56387 22.1573 7.04398Z" fill="#494A4C"/>
</svg>
