<svg width="33" height="32" viewBox="0 0 33 32" fill="none" xmlns="http://www.w3.org/2000/svg">
<path d="M5.16669 6H7.24402C8.17202 6 8.63602 6 8.98535 6.252C9.33469 6.504 9.48135 6.944 9.77469 7.824L10.5 10" stroke="#494A4C" stroke-width="3" stroke-linecap="round"/>
<path d="M23.8334 23.3333H11.2334C11.04 23.3333 10.9427 23.3333 10.868 23.3253C10.6829 23.3046 10.5042 23.2454 10.3433 23.1514C10.1825 23.0575 10.0431 22.9308 9.9342 22.7797C9.82529 22.6286 9.74925 22.4563 9.71099 22.274C9.67272 22.0917 9.67309 21.9034 9.71205 21.7213C9.74283 21.6033 9.77886 21.4867 9.82005 21.3719C9.88938 21.1666 9.92272 21.0639 9.96138 20.9719C10.1512 20.5173 10.4632 20.1242 10.8628 19.8361C11.2625 19.548 11.7341 19.3763 12.2254 19.3399C12.324 19.3333 12.432 19.3333 12.648 19.3333H19.8334" stroke="#494A4C" stroke-width="3" stroke-linecap="round" stroke-linejoin="round"/>
<path d="M19.4054 19.3333H15.3507C13.644 19.3333 12.7907 19.3333 12.124 18.8933C11.456 18.4533 11.12 17.6693 10.448 16.1013L10.2227 15.576C9.14269 13.056 8.60403 11.7987 9.19603 10.8987C9.79069 10 11.1614 10 13.9 10H20.94C24.0067 10 25.5387 10 26.1174 10.996C26.6947 11.992 25.9347 13.3227 24.4134 15.984L24.036 16.6467C23.2867 17.9573 22.912 18.6133 22.2907 18.9733C21.6707 19.3333 20.9147 19.3333 19.4054 19.3333Z" stroke="#494A4C" stroke-width="3" stroke-linecap="round"/>
<path d="M23.1667 27.9999C23.9031 27.9999 24.5 27.403 24.5 26.6666C24.5 25.9302 23.9031 25.3333 23.1667 25.3333C22.4303 25.3333 21.8334 25.9302 21.8334 26.6666C21.8334 27.403 22.4303 27.9999 23.1667 27.9999Z" fill="#494A4C"/>
<path d="M12.5 27.9999C13.2364 27.9999 13.8334 27.403 13.8334 26.6666C13.8334 25.9302 13.2364 25.3333 12.5 25.3333C11.7636 25.3333 11.1667 25.9302 11.1667 26.6666C11.1667 27.403 11.7636 27.9999 12.5 27.9999Z" fill="#494A4C"/>
</svg>
