<svg width="133" height="60" viewBox="0 0 133 60" fill="none" xmlns="http://www.w3.org/2000/svg">
<g clip-path="url(#clip0_2237_934)">
<path d="M8.65293 28.3757V4.67404H0.499939V0H22.9197V4.67404H14.7257V28.3757H8.65293Z" fill="#FAC310"/>
<path d="M79.9658 28.3757V0H86.0385V13.5675L96.9783 0H103.467L93.9416 11.7887L103.924 28.3757H97.1029L89.99 16.4214L86.0385 21.0128V28.3757H79.9658Z" fill="#FAC310"/>
<path d="M104.34 28.3757L114.822 0H122.06L132.5 28.3757H126.177L123.973 22.502H112.409L110.205 28.3757H104.34ZM113.907 18.1589H122.434L118.274 6.37019H118.108L113.907 18.1589Z" fill="#FAC310"/>
<path d="M76.8835 26.2867C76.5913 25.988 76.3709 25.6274 76.2388 25.2319C76.0705 24.7358 75.9589 24.2224 75.9059 23.7014C75.8313 23.0077 75.7966 22.3103 75.8021 21.6126C75.8212 20.6569 75.6734 19.7052 75.3652 18.7998C75.1404 18.1656 74.825 17.567 74.4288 17.0221C74.2341 16.7389 74.0226 16.4674 73.7956 16.2091C73.775 16.1848 73.7568 16.1594 73.7354 16.1355C73.1343 15.4655 72.4667 14.8577 71.7425 14.3214C73.4699 13.5035 74.8547 12.1099 75.6564 10.3824C76.1225 9.36345 76.3568 8.25475 76.3426 7.13538C76.3789 5.79704 75.9935 4.48089 75.2404 3.37111C74.514 2.33068 73.5335 1.49094 72.3911 0.930776C71.2157 0.349155 69.9189 0.0515173 68.6061 0.0620515H54.2638V12.3653C51.7246 12.8862 49.6655 13.4353 48.5513 13.4333C48.5613 12.7557 48.5708 12.0781 48.58 11.4005C48.61 9.07922 48.4383 6.56938 47.3321 4.70593C44.7912 0.425613 38.7607 -0.734627 35.1843 2.86609C32.0875 5.98399 32.0449 11.137 34.3444 14.7203C36.1881 17.5933 39.1619 18.8852 42.345 19.3813C42.3574 20.0399 42.2317 20.6938 41.9758 21.3014C41.7199 21.9089 41.3394 22.4568 40.8587 22.91C40.3781 23.3632 39.8076 23.7118 39.1839 23.9335C38.5602 24.1553 37.8968 24.2453 37.2362 24.1979C36.547 24.233 35.8579 24.1283 35.2108 23.89C34.5636 23.6518 33.972 23.2851 33.4719 22.8123C33.004 22.3352 32.6389 21.7681 32.3993 21.1457C32.1596 20.5233 32.0504 19.8588 32.0783 19.1929V0H26.0055V19.2756C25.9663 21.0272 26.4046 22.7567 27.274 24.2806C28.1208 25.716 29.3715 26.8736 30.872 27.6106C32.5961 28.4342 34.4924 28.8382 36.4045 28.7893H37.5687C39.5133 28.83 41.4414 28.4268 43.2048 27.6106C44.7674 26.8767 46.0928 25.7234 47.0317 24.2806C47.9268 22.8675 48.4065 21.2336 48.4164 19.5636C50.383 19.3489 52.3354 19.021 54.2638 18.5816V28.4377H60.2453V17.2579C60.8483 17.1819 61.4561 17.1489 62.0639 17.1591C67.5149 17.2919 68.9423 19.806 69.2704 20.3409C69.3584 20.5165 69.4437 20.7032 69.5249 20.9088C69.7263 21.7208 69.8228 22.5551 69.8122 23.3914C69.754 24.5146 69.968 25.6353 70.4361 26.6592C70.7925 27.3749 71.388 27.9451 72.1207 28.2721C72.892 28.5878 73.7203 28.7428 74.5542 28.7273C75.1594 28.7276 75.764 28.6861 76.3634 28.6033C76.8999 28.5366 77.4247 28.3974 77.9233 28.1894V26.9071C77.5324 26.7848 77.1761 26.5721 76.8835 26.2867ZM42.5209 12C42.5114 12.4286 42.5073 12.8573 42.5001 13.2859C41.7509 13.2691 41.0256 13.0201 40.4255 12.5737C39.8747 12.1769 39.4389 11.6426 39.1621 11.0248C38.8839 10.3999 38.761 9.71754 38.8038 9.03545C38.8038 6.89344 40.4219 6.25576 41.4451 7.01898C41.7033 7.20509 41.9181 7.44441 42.0747 7.72061C42.4165 8.549 42.571 9.44193 42.5275 10.3363C42.5425 10.8908 42.5333 11.4455 42.5209 12ZM60.2453 4.65338H66.7342C67.6606 4.61721 68.5642 4.94399 69.2508 5.56346C69.5842 5.89117 69.8438 6.2856 70.0123 6.72061C70.1808 7.15562 70.2545 7.62128 70.2283 8.08673C70.2344 8.85707 70.0711 9.61942 69.7498 10.3204C69.4621 10.9684 69.0279 11.5417 68.4811 11.9956C68.3146 12.13 68.1337 12.2458 67.9418 12.341C65.4545 11.5716 62.8408 11.2888 60.2453 11.5084L60.2453 4.65338Z" fill="#FAC310"/>
<path d="M36.2277 40.8005C37.4255 41.3418 38.4643 42.1784 39.2457 43.231C39.965 44.1811 40.3564 45.337 40.3614 46.5262C40.3712 48.1914 39.8549 49.8175 38.8852 51.1751C37.9184 52.5626 36.6299 53.6983 35.1287 54.4863C33.7275 55.2602 32.1548 55.675 30.5521 55.6936C29.3963 55.7118 28.2571 55.4186 27.2552 54.8452C26.2368 54.2295 25.439 53.3107 24.9748 52.2191C24.3911 50.8107 24.1549 49.2837 24.2861 47.7659V33.3135H25.5327V43.1986C26.2149 42.1507 27.1739 41.3097 28.3048 40.7679C29.4828 40.19 30.7804 39.894 32.0939 39.9036C33.522 39.8908 34.9348 40.1973 36.2277 40.8005ZM25.5653 48.2878C25.5653 50.3544 26.0575 51.8986 27.0419 52.9204C27.5217 53.4233 28.1028 53.8198 28.7473 54.084C29.3917 54.3483 30.0849 54.4743 30.7817 54.4539C32.1471 54.4341 33.485 54.0692 34.6696 53.3935C35.9601 52.6964 37.0629 51.7005 37.8845 50.49C38.7151 49.2972 39.156 47.8791 39.1474 46.4283C39.1378 45.4662 38.8027 44.5354 38.1961 43.7858C37.5144 42.9226 36.63 42.2392 35.6205 41.7957C34.5256 41.2928 33.3326 41.0365 32.1266 41.0453C31.1076 41.0432 30.1022 41.2778 29.1905 41.7304C28.2839 42.169 27.4879 42.8044 26.8613 43.5899C26.2518 44.341 25.8605 45.2436 25.7297 46.2C25.6301 46.8917 25.5752 47.5891 25.5653 48.2878Z" fill="#470000"/>
<path d="M58.963 47.6028C58.963 52.4313 58.9409 55.1065 58.8969 55.6284H57.6507C57.672 55.4764 57.6829 54.4868 57.6833 52.6596C57.112 53.6172 56.2667 54.3839 55.2554 54.8617C54.0017 55.4329 52.6316 55.7065 51.2534 55.661C50.4621 55.6554 49.6724 55.5899 48.8911 55.4652C47.6734 55.3001 46.52 54.8223 45.5448 54.0787C44.616 53.3651 43.8781 52.4351 43.3962 51.3709C42.8985 50.2685 42.6467 49.0721 42.6581 47.8637C42.645 46.4436 42.9532 45.0388 43.5601 43.7532C44.104 42.5618 44.9455 41.5285 46.0044 40.7518C46.9597 40.0365 48.1218 39.6474 49.3176 39.6425C51.1426 39.631 52.9177 40.2348 54.3533 41.3554C55.8269 42.4658 56.9763 43.9466 57.6833 45.6454C57.6833 41.8397 57.6725 39.8496 57.6507 39.6751H58.8969C58.9408 40.1106 58.9628 42.7531 58.963 47.6028ZM51.0895 54.3561C53.167 54.3561 54.7198 53.8667 55.748 52.8879C56.2534 52.4106 56.6519 51.8327 56.9175 51.1918C57.1831 50.551 57.3098 49.8617 57.2894 49.1689C57.2692 47.8112 56.9025 46.4809 56.2235 45.3029C55.5222 44.0197 54.5208 42.923 53.3037 42.1056C52.1043 41.2798 50.6782 40.8413 49.2194 40.8497C48.2517 40.859 47.3155 41.1923 46.5618 41.7958C45.6936 42.4733 45.0064 43.3528 44.5608 44.3568C44.0549 45.4455 43.7973 46.632 43.8064 47.8313C43.8041 48.8445 44.0398 49.8443 44.4947 50.751C44.9358 51.6526 45.5749 52.4442 46.3648 53.0673C47.1201 53.6735 48.0276 54.0627 48.9893 54.1929C49.6852 54.2918 50.3866 54.3463 51.0895 54.3561Z" fill="#470000"/>
<path d="M64.9333 49.1035C68.7165 52.8665 70.6849 54.8021 70.8384 54.9106L69.9527 55.7916C69.7997 55.6824 68.8919 54.8069 67.2295 53.1652C65.5677 51.5232 64.0586 50.017 62.7023 48.6467V55.6936L61.4557 55.6283C61.4996 53.8015 61.5215 52.1376 61.5214 50.6368C61.5214 46.9615 61.423 42.6442 61.2261 37.685L62.604 37.522C62.6475 40.4367 62.6694 42.4811 62.6697 43.6552L62.7023 46.7219C64.0802 45.417 65.6057 43.9489 67.2789 42.3176C68.952 40.6864 69.8324 39.8056 69.9201 39.6751L70.8058 40.5234C70.6963 40.6758 69.7939 41.5784 68.0989 43.231C66.404 44.8843 64.8677 46.3633 63.4897 47.668L64.9333 49.1035Z" fill="#470000"/>
<path d="M79.8277 55.661C79.0891 55.6572 78.3527 55.5807 77.6293 55.4327C78.5519 56.1314 79.516 56.7742 80.5164 57.3575C81.302 57.8351 82.1247 58.2496 82.9765 58.5972L82.6161 59.6412C81.6179 59.2929 80.6651 58.8275 79.7779 58.2547C78.5394 57.5083 77.3605 56.6684 76.2514 55.7425C75.2894 54.9791 74.4295 54.0966 73.6925 53.1164C72.9163 52.034 72.524 50.7256 72.5772 49.3972C72.5949 47.8055 73.006 46.2425 73.7745 44.8461C74.5575 43.3517 75.6949 42.0696 77.0882 41.1107C78.4532 40.1462 80.0885 39.6326 81.763 39.6425C82.9589 39.6476 84.1211 40.0367 85.0767 40.7518C86.135 41.529 86.9761 42.5621 87.5205 43.7532C88.1273 45.0388 88.4357 46.4436 88.423 47.8637C88.4341 49.072 88.1823 50.2684 87.6849 51.3708C87.2023 52.4349 86.4644 53.3647 85.5358 54.0787C84.5604 54.822 83.4071 55.2999 82.1895 55.4651C81.4084 55.5899 80.6188 55.6554 79.8277 55.661ZM77.7769 42.1056C76.5596 42.9228 75.5581 44.0195 74.8571 45.3029C74.1778 46.4808 73.8109 47.8112 73.7908 49.1689C73.7669 49.8647 73.8921 50.5575 74.158 51.2015C74.4239 51.8455 74.8244 52.426 75.333 52.9043C76.3609 53.8722 77.9138 54.3562 79.9916 54.3561C80.6941 54.3462 81.3953 54.2917 82.0908 54.1929C83.0525 54.0628 83.9601 53.6736 84.7153 53.0673C85.5056 52.4445 86.1447 51.6529 86.5854 50.751C87.0406 49.8444 87.2766 48.8446 87.2746 47.8313C87.2833 46.632 87.0257 45.4457 86.5202 44.3568C86.074 43.3531 85.3867 42.4736 84.5188 41.7958C83.7651 41.1925 82.8291 40.8592 81.8617 40.8497C80.4027 40.8411 78.9764 41.2796 77.7769 42.1056Z" fill="#470000"/>
<path d="M97.1324 40.2298C97.1026 40.271 97.0633 40.3045 97.0178 40.3275C95.4931 40.6371 94.1407 41.5044 93.2282 42.758C92.3864 43.9652 91.9218 45.678 91.8345 47.8963C91.8345 52.7901 91.8234 55.3674 91.8014 55.6283H90.5548C90.5983 55.0197 90.6202 52.3227 90.6205 47.5374C90.6205 42.6877 90.5986 40.0669 90.5548 39.675H91.8014C91.8227 39.7842 91.8337 40.7956 91.8345 42.7091C92.8397 40.8822 94.4799 39.6751 96.7552 39.0878C96.7984 39.0815 96.8425 39.0913 96.8789 39.1155C96.9153 39.1396 96.9414 39.1763 96.9521 39.2184L97.1486 40.1318C97.1704 40.1537 97.1654 40.1863 97.1324 40.2298Z" fill="#470000"/>
<path d="M111.223 47.929C110.469 50.6694 109.272 53.2697 107.679 55.6283C107.05 56.5646 106.281 57.4006 105.4 58.1076C104.47 58.8769 103.438 59.5138 102.332 60L101.873 58.8907C102.719 58.5117 103.517 58.0354 104.251 57.4716C104.963 56.9361 105.608 56.3172 106.17 55.6283C104.971 53.734 103.934 51.7423 103.071 49.6745C101.856 46.9453 100.669 43.8949 99.5105 40.5234C99.4984 40.5025 99.4914 40.4791 99.49 40.455C99.4886 40.4309 99.4928 40.4068 99.5024 40.3846C99.512 40.3624 99.5266 40.3428 99.5452 40.3272C99.5637 40.3116 99.5856 40.3006 99.6092 40.2949L100.462 39.9687C100.483 39.9581 100.505 39.9526 100.528 39.9526C100.551 39.9526 100.573 39.9581 100.594 39.9687C100.636 39.9898 100.671 40.0242 100.691 40.0666C102.389 45.0122 104.439 49.8311 106.827 54.4864C108.353 52.3393 109.491 49.9436 110.189 47.4071C110.908 44.9041 111.256 42.3105 111.223 39.7077C111.223 39.6864 111.227 39.6653 111.236 39.6456C111.244 39.626 111.256 39.6083 111.272 39.5936C111.287 39.578 111.304 39.5656 111.324 39.5572C111.344 39.5488 111.365 39.5445 111.387 39.5447L112.273 39.4468C112.404 39.4468 112.469 39.5013 112.469 39.6098C112.472 42.4291 112.052 45.233 111.223 47.929Z" fill="#470000"/>
</g>
<defs>
<clipPath id="clip0_2237_934">
<rect width="132" height="60" fill="white" transform="translate(0.5)"/>
</clipPath>
</defs>
</svg>
