<svg width="33" height="32" viewBox="0 0 33 32" fill="none" xmlns="http://www.w3.org/2000/svg">
<path d="M16.5 15.9999C15.0333 15.9999 13.7778 15.4777 12.7333 14.4333C11.6889 13.3888 11.1666 12.1333 11.1666 10.6666C11.1666 9.19992 11.6889 7.94436 12.7333 6.89992C13.7778 5.85547 15.0333 5.33325 16.5 5.33325C17.9666 5.33325 19.2222 5.85547 20.2666 6.89992C21.3111 7.94436 21.8333 9.19992 21.8333 10.6666C21.8333 12.1333 21.3111 13.3888 20.2666 14.4333C19.2222 15.4777 17.9666 15.9999 16.5 15.9999ZM5.83331 26.6666V22.9333C5.83331 22.1777 6.02798 21.4835 6.41731 20.8506C6.80665 20.2177 7.32309 19.7341 7.96665 19.3999C9.34442 18.711 10.7444 18.1946 12.1666 17.8506C13.5889 17.5066 15.0333 17.3341 16.5 17.3333C17.9666 17.3333 19.4111 17.5057 20.8333 17.8506C22.2555 18.1955 23.6555 18.7119 25.0333 19.3999C25.6778 19.7333 26.1946 20.2168 26.584 20.8506C26.9733 21.4844 27.1675 22.1786 27.1666 22.9333V26.6666H5.83331ZM8.49998 23.9999H24.5V22.9333C24.5 22.6888 24.4391 22.4666 24.3173 22.2666C24.1955 22.0666 24.0342 21.911 23.8333 21.7999C22.6333 21.1999 21.4222 20.7501 20.2 20.4506C18.9778 20.151 17.7444 20.0008 16.5 19.9999C15.2555 19.9999 14.0222 20.1501 12.8 20.4506C11.5778 20.751 10.3666 21.2008 9.16665 21.7999C8.96665 21.911 8.80531 22.0666 8.68265 22.2666C8.55998 22.4666 8.49909 22.6888 8.49998 22.9333V23.9999ZM16.5 13.3333C17.2333 13.3333 17.8613 13.0724 18.384 12.5506C18.9066 12.0288 19.1675 11.4008 19.1666 10.6666C19.1666 9.93325 18.9058 9.3057 18.384 8.78392C17.8622 8.26214 17.2342 8.00081 16.5 7.99992C15.7666 7.99992 15.1391 8.26125 14.6173 8.78392C14.0955 9.30659 13.8342 9.93414 13.8333 10.6666C13.8333 11.3999 14.0946 12.0279 14.6173 12.5506C15.14 13.0733 15.7675 13.3341 16.5 13.3333Z" fill="#494A4C"/>
</svg>
