<svg width="40" height="40" viewBox="0 0 40 40" fill="none" xmlns="http://www.w3.org/2000/svg">
<path fill-rule="evenodd" clip-rule="evenodd" d="M27.7933 4.37995C22.5497 3.20782 17.1119 3.20782 11.8683 4.37995L11.3033 4.50495C9.82835 4.83472 8.47367 5.56693 7.38977 6.62023C6.30587 7.67353 5.53518 9.00669 5.16332 10.4716C3.83415 15.7092 3.83415 21.1957 5.16332 26.4333C5.51795 27.8304 6.23566 29.1089 7.24371 30.1392C8.25176 31.1695 9.51429 31.9149 10.9033 32.3L11.6783 36.9266C11.7031 37.0735 11.7667 37.2111 11.8627 37.3251C11.9587 37.439 12.0835 37.5252 12.224 37.5745C12.3646 37.6239 12.5158 37.6346 12.662 37.6057C12.8081 37.5768 12.9438 37.5092 13.055 37.41L17.6067 33.3383C21.0235 33.5468 24.4526 33.2736 27.7933 32.5266L28.36 32.4016C29.835 32.0719 31.1896 31.3396 32.2735 30.2863C33.3574 29.233 34.1281 27.8999 34.5 26.435C35.829 21.1974 35.829 15.7108 34.5 10.4733C34.128 9.00815 33.3571 7.67484 32.2728 6.62152C31.1886 5.5682 29.8336 4.83611 28.3583 4.50662L27.7933 4.37995ZM13.275 10.3366C12.9652 10.2915 12.6494 10.3539 12.38 10.5133H12.3567C11.7317 10.88 11.1683 11.3416 10.6883 11.885C10.2883 12.3466 10.0717 12.8133 10.015 13.2633C9.98165 13.53 10.005 13.8 10.0833 14.055L10.1133 14.0716C10.5633 15.3933 11.15 16.665 11.8667 17.8616C12.7907 19.5424 13.9279 21.0969 15.25 22.4866L15.29 22.5433L15.3533 22.59L15.3917 22.635L15.4383 22.675C16.8329 24.001 18.391 25.1436 20.075 26.075C22 27.1233 23.1683 27.6183 23.87 27.825V27.835C24.075 27.8983 24.2617 27.9266 24.45 27.9266C25.0476 27.8825 25.6132 27.6396 26.0567 27.2366C26.5983 26.7566 27.0567 26.1916 27.4133 25.5633V25.5516C27.7483 24.9183 27.635 24.3216 27.1517 23.9166C26.1808 23.0683 25.131 22.3149 24.0167 21.6666C23.27 21.2616 22.5117 21.5066 22.205 21.9166L21.55 22.7433C21.2133 23.1533 20.6033 23.0966 20.6033 23.0966L20.5867 23.1066C16.035 21.945 14.82 17.3366 14.82 17.3366C14.82 17.3366 14.7633 16.71 15.185 16.39L16.005 15.73C16.3983 15.41 16.6717 14.6533 16.25 13.9066C15.606 12.7912 14.8541 11.7417 14.005 10.7733C13.8198 10.5454 13.5601 10.3901 13.2717 10.335L13.275 10.3366ZM20.965 8.33329C20.744 8.33329 20.532 8.42108 20.3757 8.57736C20.2195 8.73364 20.1317 8.94561 20.1317 9.16662C20.1317 9.38763 20.2195 9.5996 20.3757 9.75588C20.532 9.91216 20.744 9.99995 20.965 9.99995C23.0733 9.99995 24.8233 10.6883 26.2083 12.0083C26.92 12.73 27.475 13.585 27.8383 14.5216C28.2033 15.46 28.37 16.4616 28.3267 17.465C28.3221 17.5744 28.3391 17.6837 28.3767 17.7865C28.4143 17.8894 28.4719 17.9838 28.546 18.0645C28.6957 18.2273 28.904 18.324 29.125 18.3333C29.346 18.3426 29.5616 18.2637 29.7245 18.114C29.8873 17.9642 29.984 17.756 29.9933 17.535C30.045 16.3008 29.8401 15.0693 29.3917 13.9183C28.9412 12.7618 28.2582 11.7102 27.385 10.8283L27.3683 10.8116C25.65 9.16995 23.475 8.33329 20.965 8.33329ZM20.9083 11.0733C20.6873 11.0733 20.4753 11.1611 20.3191 11.3174C20.1628 11.4736 20.075 11.6856 20.075 11.9066C20.075 12.1276 20.1628 12.3396 20.3191 12.4959C20.4753 12.6522 20.6873 12.74 20.9083 12.74H20.9367C22.4567 12.8483 23.5633 13.355 24.3383 14.1866C25.1333 15.0433 25.545 16.1083 25.5133 17.425C25.5082 17.646 25.5912 17.8599 25.7438 18.0198C25.8965 18.1797 26.1065 18.2724 26.3275 18.2775C26.5485 18.2825 26.7625 18.1996 26.9224 18.0469C27.0822 17.8942 27.1749 17.6843 27.18 17.4633C27.22 15.735 26.6633 14.2433 25.56 13.0533V13.05C24.4317 11.84 22.8833 11.2 21.02 11.075L20.9917 11.0716L20.9083 11.0733ZM20.8767 13.865C20.7651 13.8551 20.6528 13.8678 20.5463 13.9024C20.4398 13.9369 20.3413 13.9926 20.2568 14.066C20.1723 14.1394 20.1035 14.2292 20.0544 14.3298C20.0053 14.4304 19.977 14.5399 19.9712 14.6517C19.9654 14.7635 19.9821 14.8753 20.0205 14.9805C20.0588 15.0857 20.118 15.1821 20.1944 15.2639C20.2708 15.3457 20.363 15.4113 20.4653 15.4567C20.5676 15.5021 20.678 15.5265 20.79 15.5283C21.4867 15.565 21.9317 15.775 22.2117 16.0566C22.4933 16.34 22.7033 16.795 22.7417 17.5066C22.7437 17.6185 22.7683 17.7287 22.8139 17.8309C22.8595 17.933 22.9252 18.0249 23.0071 18.1011C23.0889 18.1773 23.1853 18.2363 23.2905 18.2744C23.3956 18.3126 23.5073 18.3292 23.619 18.3233C23.7307 18.3174 23.8401 18.289 23.9406 18.2399C24.0411 18.1908 24.1307 18.122 24.204 18.0375C24.2774 17.9531 24.333 17.8547 24.3675 17.7484C24.402 17.642 24.4148 17.5297 24.405 17.4183C24.3517 16.4183 24.0383 15.535 23.3967 14.885C22.7517 14.235 21.8733 13.9183 20.8767 13.865Z" fill="white"/>
</svg>
