<svg width="324" height="114" viewBox="0 0 324 114" fill="none" xmlns="http://www.w3.org/2000/svg">
<path d="M110.909 44C110.056 44 109.629 43.4453 109.629 42.336C109.586 41.824 109.565 41.3333 109.565 40.864C109.608 40.352 109.629 39.904 109.629 39.52V37.664C109.629 36.4267 109.608 35.616 109.565 35.232C109.48 33.696 109.437 32.5653 109.437 31.84C109.437 29.92 109.608 27.0827 109.949 23.328C110.034 22.0907 110.077 20.192 110.077 17.632C110.12 16.864 110.141 14.88 110.141 11.68V7.072C110.226 6.51733 110.312 6.13333 110.397 5.92C110.482 5.664 110.504 5.10933 110.461 4.256C110.589 4.21333 109.565 4.14933 107.389 4.064C105.213 3.97866 103.656 3.91466 102.717 3.872C102.802 3.872 102.845 4.36266 102.845 5.344C102.845 6.58133 102.781 8.288 102.653 10.464C102.568 12.5973 102.482 14.1333 102.397 15.072C102.354 16.608 102.333 18.9333 102.333 22.048V24.992C102.333 25.888 102.376 26.8907 102.461 28C102.546 29.1093 102.61 29.8987 102.653 30.368C102.738 30.9653 102.824 31.8613 102.909 33.056C102.994 33.952 103.101 35.4667 103.229 37.6C103.357 39.6907 103.442 41.248 103.485 42.272C103.4 43.2533 102.952 43.744 102.141 43.744C101.714 43.744 101.394 43.6373 101.181 43.424C100.968 43.168 100.861 42.7627 100.861 42.208L100.733 37.152L100.477 27.36C100.477 24.8853 100.52 21.1307 100.605 16.096V3.104C100.605 2.592 100.712 2.208 100.925 1.952C101.138 1.65333 101.565 1.504 102.205 1.504C103.4 1.58933 104.296 1.67466 104.893 1.76L106.749 1.952C107.176 1.99467 107.794 2.03733 108.605 2.08C109.416 2.08 110.098 2.12266 110.653 2.208C111.25 2.29333 111.762 2.44267 112.189 2.656C112.744 2.86933 112.957 3.38133 112.829 4.192C112.573 6.15466 112.381 8.13866 112.253 10.144C112.125 12.32 112.061 14.048 112.061 15.328V16.736C112.061 17.0773 112.061 17.5467 112.061 18.144C112.104 18.6987 112.104 19.4027 112.061 20.256C112.061 20.8533 112.018 21.792 111.933 23.072C111.848 24.2667 111.805 25.1627 111.805 25.76C111.805 26.4 111.784 26.8693 111.741 27.168L111.677 32.416C111.677 34.5493 111.805 37.0667 112.061 39.968C112.104 40.3093 112.168 40.7147 112.253 41.184C112.338 41.6107 112.381 41.952 112.381 42.208C112.381 42.5493 112.317 42.8907 112.189 43.232C111.933 43.744 111.506 44 110.909 44ZM122.754 44.768C122.285 42.08 122.05 39.008 122.05 35.552C122.05 34.1867 122.114 32.2027 122.242 29.6L122.37 23.648C122.071 23.0507 121.922 22.56 121.922 22.176C122.349 21.4933 122.562 19.5307 122.562 16.288C122.562 8.52267 122.455 4.384 122.242 3.872C122.626 2.80533 122.925 2.272 123.138 2.272H125.954C126.423 2.272 127.085 2.50667 127.938 2.976C128.834 3.40266 129.581 3.872 130.178 4.384C131.245 5.36533 131.778 7.88266 131.778 11.936C131.778 14.112 131.714 15.776 131.586 16.928C131.501 17.7387 131.351 18.3787 131.138 18.848C130.967 19.3173 130.69 19.8507 130.306 20.448C129.666 21.4293 128.578 22.2827 127.042 23.008C126.402 23.3493 125.506 23.6907 124.354 24.032V31.648C124.354 32.7147 124.461 34.8053 124.674 37.92L124.802 39.968L124.93 44.128C124.93 44.896 124.525 45.28 123.714 45.28L122.754 44.768ZM124.802 21.856C126.039 21.856 127.085 21.28 127.938 20.128C128.237 19.7013 128.514 19.1253 128.77 18.4C129.026 17.6747 129.197 16.9707 129.282 16.288C129.538 15.0507 129.666 13.6213 129.666 12V10.272C129.666 9.67467 129.645 9.09867 129.602 8.544C129.559 7.98933 129.474 7.456 129.346 6.944C129.175 6.38933 128.941 5.94133 128.642 5.6C128.386 5.216 128.023 4.896 127.554 4.64C127.042 4.384 126.423 4.256 125.698 4.256C125.186 4.256 124.823 4.384 124.61 4.64C124.397 4.896 124.29 5.344 124.29 5.984C124.29 7.008 124.354 8.544 124.482 10.592L124.61 15.2C124.61 16.3093 124.567 17.312 124.482 18.208L124.354 21.216L124.802 21.856ZM141.423 44C140.868 44 140.484 43.8933 140.271 43.68C140.057 43.424 139.951 43.0187 139.951 42.464C139.567 22.1547 139.204 10.4 138.863 7.2C138.735 6.38933 138.585 5.17333 138.415 3.552C138.372 2.99733 138.479 2.57066 138.735 2.272C139.033 1.93067 139.417 1.76 139.887 1.76C140.697 1.76 141.103 2.31467 141.103 3.424C141.06 4.91733 141.145 8.90666 141.359 15.392C141.444 17.7813 141.487 20.0213 141.487 22.112C141.487 24.9707 141.551 28.5547 141.679 32.864L142.127 39.008L142.639 38.368C143.833 35.2533 145.327 31.2 147.119 26.208C148.911 21.216 149.977 18.1867 150.319 17.12L151.151 15.072C151.833 13.3653 152.388 11.8507 152.815 10.528C153.071 9.76 153.412 8.52267 153.839 6.816C154.18 5.57867 154.521 4.448 154.863 3.424C155.204 2.35733 155.503 1.71733 155.759 1.504C155.929 1.376 156.164 1.29066 156.463 1.248C156.761 1.16267 157.017 1.14133 157.231 1.184C157.359 1.22666 157.487 1.376 157.615 1.632C157.743 1.84533 157.807 2.05867 157.807 2.272C157.849 2.99733 157.849 3.808 157.807 4.704C157.807 5.55733 157.807 6.34666 157.807 7.072V9.76C157.807 11.424 157.892 13.92 158.063 17.248C158.148 18.3147 158.233 19.9573 158.319 22.176C158.361 22.944 158.383 24.0747 158.383 25.568C158.383 27.872 158.361 29.5787 158.319 30.688L158.255 35.872C158.255 37.92 158.319 39.968 158.447 42.016V42.144C158.447 42.4427 158.297 42.72 157.999 42.976C157.743 43.1893 157.423 43.3173 157.039 43.36C156.655 43.36 156.313 43.2533 156.015 43.04C155.759 42.784 155.652 42.4853 155.695 42.144L155.887 37.408L156.271 27.488V25.568C156.185 22.2827 156.121 18.4853 156.079 14.176C156.036 9.824 156.036 7.60533 156.079 7.52L155.631 7.456L151.215 19.68C147.375 30.5173 144.367 38.6027 142.191 43.936L141.423 44ZM168.445 44.704C168.103 44.704 167.805 44.576 167.549 44.32C167.335 44.064 167.229 43.744 167.229 43.36L167.165 41.376C167.165 39.84 167.293 37.5787 167.549 34.592C167.762 31.264 167.869 29.024 167.869 27.872L167.805 24.992C167.762 24.1387 167.741 23.2 167.741 22.176C167.741 20.4693 167.805 17.9307 167.933 14.56C168.061 11.104 168.125 8.544 168.125 6.88L168.061 3.168L167.805 2.848V2.464C167.805 1.35467 168.253 0.799999 169.149 0.799999C169.831 0.799999 170.941 1.07733 172.477 1.632C174.055 2.144 174.845 2.57066 174.845 2.912V3.104C175.613 4.34133 176.125 5.57867 176.381 6.816C176.679 8.05333 176.829 9.632 176.829 11.552C176.829 14.6667 176.487 17.2053 175.805 19.168H175.869C175.698 19.5093 175.357 20.064 174.845 20.832L173.949 22.176C174.717 22.7733 175.357 23.648 175.869 24.8C176.423 25.952 176.765 27.0613 176.893 28.128C176.935 28.512 176.978 28.9813 177.021 29.536C177.063 30.0907 177.106 30.752 177.149 31.52L177.213 33.184V34.08C177.213 38.176 175.933 41.2053 173.373 43.168C172.05 44.192 170.407 44.704 168.445 44.704ZM170.429 20.896C173.245 20.896 174.653 18.0587 174.653 12.384C174.653 11.9147 174.61 10.9973 174.525 9.632L174.461 8.416L174.333 8.288C174.162 6.88 173.927 5.77067 173.629 4.96C173.415 4.36267 173.074 3.89333 172.605 3.552C172.135 3.168 171.623 2.976 171.069 2.976C170.13 2.976 169.661 5.77066 169.661 11.36C169.661 12.4267 169.682 13.152 169.725 13.536V14.816V16.992C169.682 17.6747 169.661 18.4427 169.661 19.296V20.064C169.661 20.064 169.703 20.192 169.789 20.448L169.917 20.896H170.429ZM169.469 42.208C170.493 42.208 171.431 41.8667 172.285 41.184C173.181 40.5013 173.885 39.6267 174.397 38.56C174.909 37.4507 175.165 36.3627 175.165 35.296L175.229 35.04V34.528V33.824C175.229 32.032 175.079 30.3253 174.781 28.704C174.311 26.528 173.479 24.9493 172.285 23.968C171.602 23.4133 170.791 23.136 169.853 23.136C169.639 26.6773 169.533 29.5787 169.533 31.84V33.312C169.533 34.5493 169.597 35.5307 169.725 36.256C169.511 36.64 169.405 37.664 169.405 39.328V40.992L169.469 42.208ZM189.002 44C188.02 44 187.444 43.7867 187.274 43.36C187.06 43.36 186.89 43.3813 186.762 43.424H186.25C185.311 43.424 184.714 43.2107 184.458 42.784C184.458 42.4853 184.628 42.2293 184.97 42.016L185.29 41.696H187.146L187.402 41.44L187.53 40.864L187.594 40.096C187.594 37.4933 187.53 35.168 187.402 33.12L187.274 30.752L187.146 26.08C187.146 24.416 187.21 21.92 187.338 18.592L187.466 11.168C187.466 7.92533 187.359 5.45066 187.146 3.744C186.762 3.616 186.122 3.552 185.226 3.552L184.522 3.616C184.266 3.65866 183.988 3.68 183.69 3.68C182.879 3.68 182.474 3.31733 182.474 2.592C182.474 2.42133 182.666 2.25067 183.049 2.08C183.434 1.90933 183.754 1.824 184.01 1.824C185.631 1.824 187.252 1.90933 188.874 2.08C189.855 2.12266 190.836 2.31466 191.818 2.656C192.586 2.912 192.97 3.27466 192.97 3.744C192.97 3.82933 192.906 4 192.778 4.256L191.306 4.384C191.007 4.128 190.388 4 189.45 4L189.13 4.192C189.258 4.576 189.322 5.70667 189.322 7.584C189.322 10.4 189.3 12.9387 189.258 15.2L189.13 22.816C189.13 24.736 189.215 27.0613 189.385 29.792C189.514 32.9067 189.578 35.2533 189.578 36.832V37.664C189.535 37.9627 189.514 38.3467 189.514 38.816C189.514 39.7973 189.578 40.3947 189.706 40.608L189.642 40.736C189.642 41.1627 190.111 41.376 191.05 41.376C191.434 41.376 191.754 41.3547 192.01 41.312H192.97C194.207 41.312 194.826 41.6107 194.826 42.208C194.826 42.592 194.698 42.912 194.442 43.168C194.186 43.3813 193.844 43.488 193.418 43.488C193.034 43.488 192.692 43.4453 192.394 43.36C192.052 43.3173 191.69 43.296 191.306 43.296C191.05 43.296 190.666 43.4027 190.154 43.616C189.642 43.872 189.258 44 189.002 44ZM204.957 43.104L204.893 40.736C204.85 40.0533 204.829 39.2853 204.829 38.432C204.829 38.0053 204.85 37.6427 204.893 37.344L204.957 36.192C204.957 35.7653 204.872 35.2533 204.701 34.656C204.701 31.7973 204.488 26.4853 204.061 18.72C203.634 11.2107 203.4 6.112 203.357 3.424C200.712 3.424 198.941 3.36 198.045 3.232C197.192 3.01867 196.765 2.67733 196.765 2.208C196.978 1.73866 197.384 1.504 197.981 1.504C199.261 1.504 201.117 1.58933 203.549 1.76C205.768 1.97333 207.624 2.08 209.117 2.08H210.461L211.805 2.016C212.573 2.016 212.957 2.29333 212.957 2.848C212.957 3.104 212.808 3.31733 212.509 3.488C212.253 3.616 211.933 3.68 211.549 3.68C210.696 3.68 209.8 3.63733 208.861 3.552L206.109 3.424C205.938 3.424 205.853 3.488 205.853 3.616C205.81 3.744 205.789 4.14933 205.789 4.832C205.789 8.97066 206.045 15.2427 206.557 23.648C207.026 32.352 207.261 38.6027 207.261 42.4C207.261 42.6987 207.069 42.976 206.685 43.232C206.344 43.488 206.002 43.616 205.661 43.616L204.957 43.104ZM220.565 48.544C220.096 48.4587 219.861 48.3093 219.861 48.096C219.861 47.8827 220.032 47.5413 220.373 47.072C220.757 46.56 220.949 46.304 220.949 46.304C221.248 45.8347 221.504 45.2373 221.717 44.512C221.845 44.128 221.909 43.8293 221.909 43.616C221.952 43.36 221.93 43.2107 221.845 43.168C221.333 43.1253 220.906 42.912 220.565 42.528C220.266 42.144 220.117 41.7387 220.117 41.312C220.117 40.7147 220.352 40.2453 220.821 39.904C221.333 39.5627 221.888 39.392 222.485 39.392C223.168 39.392 223.637 39.6267 223.893 40.096C224.192 40.5653 224.341 41.0987 224.341 41.696C224.341 42.72 224.021 43.8933 223.381 45.216C222.741 46.5813 221.93 47.6693 220.949 48.48L220.565 48.544ZM25.9193 111.328C25.0659 111.328 24.6393 109.963 24.6393 107.232V103.008C24.6393 96.864 24.5113 92.064 24.2553 88.608L24.0633 86.24C23.8926 85.1733 23.8073 84.2347 23.8073 83.424C23.8073 81.9733 23.8499 80.6507 23.9353 79.456L24.0633 75.488C24.0633 74.1653 23.9779 73.1627 23.8073 72.48C22.9539 73.0773 20.3726 82.0587 16.0633 99.424L15.9993 100.384C15.8713 101.451 15.7006 102.304 15.4873 102.944C15.3593 103.413 15.1673 103.776 14.9113 104.032C14.6979 104.288 14.4419 104.416 14.1433 104.416C13.4606 104.416 12.9699 104.245 12.6713 103.904C12.3726 103.563 12.2233 103.029 12.2233 102.304C12.2233 101.152 11.6686 98.1653 10.5593 93.344C9.49258 88.5227 8.31925 83.8933 7.03925 79.456C5.80192 75.0187 4.94858 72.5653 4.47925 72.096C4.43658 73.5893 4.26592 77.1093 3.96725 82.656C3.36992 92.4693 3.07125 100.192 3.07125 105.824L3.13525 108.384C2.96458 108.939 2.51658 109.216 1.79125 109.216C1.66325 109.216 1.44992 109.088 1.15125 108.832C0.852584 108.619 0.70325 108.448 0.70325 108.32C0.70325 104.48 1.04458 97.7387 1.72725 88.096C2.36725 79.136 2.68725 72.416 2.68725 67.936C2.68725 67.7227 2.64458 67.5093 2.55925 67.296C2.43125 67.04 2.36725 66.848 2.36725 66.72C2.36725 66.08 2.92192 65.76 4.03125 65.76C4.75658 65.76 5.18325 66.08 5.31125 66.72C5.48192 67.5733 5.56725 68.2133 5.56725 68.64L5.63125 69.408C5.84458 70.5173 6.46325 72.224 7.48725 74.528C8.29792 76.3627 8.91658 77.9627 9.34325 79.328C9.59925 80.352 9.83392 81.184 10.0473 81.824C10.7299 84.2987 11.1779 86.1333 11.3913 87.328L12.2233 88.992C12.3513 89.632 12.6073 90.6773 12.9913 92.128C13.3753 93.7493 13.6526 95.072 13.8233 96.096C13.9939 97.12 14.0793 98.1013 14.0793 99.04C14.5486 98.3147 15.8713 93.9627 18.0473 85.984C20.2659 77.9627 21.5673 72.8427 21.9513 70.624C21.9939 70.5387 22.0153 70.432 22.0153 70.304C22.0579 70.1333 22.1006 69.92 22.1433 69.664C22.2286 69.1093 22.4206 68.2773 22.7193 67.168C23.0606 66.3147 23.5726 65.888 24.2553 65.888C24.5539 65.888 24.8953 66.016 25.2793 66.272C25.6633 66.528 25.8553 66.784 25.8553 67.04C25.8553 84.832 26.1326 94.24 26.6873 95.264V98.592C26.6446 99.5733 26.6233 100.704 26.6233 101.984C26.6233 104.715 26.7726 106.763 27.0713 108.128C27.1139 108.171 27.1353 108.235 27.1353 108.32C27.1779 108.405 27.2206 108.512 27.2633 108.64C27.3059 108.811 27.3273 109.003 27.3273 109.216C27.3273 109.685 27.1779 110.155 26.8793 110.624C26.6233 111.093 26.3033 111.328 25.9193 111.328ZM23.8073 72.096H23.7433L23.6153 72.16L23.8073 72.224V72.096ZM40.4078 108C39.4264 108 38.8504 107.787 38.6798 107.36C38.4664 107.36 38.2958 107.381 38.1678 107.424H37.6558C36.7171 107.424 36.1198 107.211 35.8638 106.784C35.8638 106.485 36.0344 106.229 36.3758 106.016L36.6958 105.696H38.5518L38.8078 105.44L38.9358 104.864L38.9998 104.096C38.9998 101.493 38.9358 99.168 38.8078 97.12L38.6798 94.752L38.5518 90.08C38.5518 88.416 38.6158 85.92 38.7438 82.592L38.8718 75.168C38.8718 71.9253 38.7651 69.4507 38.5518 67.744C38.1678 67.616 37.5278 67.552 36.6318 67.552L35.9278 67.616C35.6718 67.6587 35.3944 67.68 35.0958 67.68C34.2851 67.68 33.8798 67.3173 33.8798 66.592C33.8798 66.4213 34.0718 66.2507 34.4557 66.08C34.8398 65.9093 35.1598 65.824 35.4158 65.824C37.0371 65.824 38.6584 65.9093 40.2798 66.08C41.2611 66.1227 42.2424 66.3147 43.2238 66.656C43.9918 66.912 44.3758 67.2747 44.3758 67.744C44.3758 67.8293 44.3118 68 44.1838 68.256L42.7118 68.384C42.4131 68.128 41.7944 68 40.8558 68L40.5358 68.192C40.6638 68.576 40.7278 69.7067 40.7278 71.584C40.7278 74.4 40.7064 76.9387 40.6638 79.2L40.5358 86.816C40.5358 88.736 40.6211 91.0613 40.7917 93.792C40.9198 96.9067 40.9838 99.2533 40.9838 100.832V101.664C40.9411 101.963 40.9198 102.347 40.9198 102.816C40.9198 103.797 40.9838 104.395 41.1118 104.608L41.0478 104.736C41.0478 105.163 41.5171 105.376 42.4558 105.376C42.8398 105.376 43.1598 105.355 43.4158 105.312H44.3758C45.6131 105.312 46.2318 105.611 46.2318 106.208C46.2318 106.592 46.1038 106.912 45.8478 107.168C45.5918 107.381 45.2504 107.488 44.8238 107.488C44.4398 107.488 44.0984 107.445 43.7998 107.36C43.4584 107.317 43.0958 107.296 42.7118 107.296C42.4558 107.296 42.0718 107.403 41.5598 107.616C41.0478 107.872 40.6638 108 40.4078 108ZM54.8913 108C54.3366 108 53.9526 107.893 53.7393 107.68C53.5259 107.424 53.4193 107.019 53.4193 106.464C53.0353 86.1547 52.6726 74.4 52.3313 71.2C52.2033 70.3893 52.0539 69.1733 51.8833 67.552C51.8406 66.9973 51.9473 66.5707 52.2033 66.272C52.5019 65.9307 52.8859 65.76 53.3553 65.76C54.1659 65.76 54.5713 66.3147 54.5713 67.424C54.5286 68.9173 54.6139 72.9067 54.8273 79.392C54.9126 81.7813 54.9553 84.0213 54.9553 86.112C54.9553 88.9707 55.0193 92.5547 55.1473 96.864L55.5953 103.008L56.1073 102.368C57.3019 99.2533 58.7953 95.2 60.5873 90.208C62.3793 85.216 63.4459 82.1867 63.7873 81.12L64.6193 79.072C65.3019 77.3653 65.8566 75.8507 66.2833 74.528C66.5393 73.76 66.8806 72.5227 67.3073 70.816C67.6486 69.5787 67.9899 68.448 68.3313 67.424C68.6726 66.3573 68.9713 65.7173 69.2273 65.504C69.3979 65.376 69.6326 65.2907 69.9313 65.248C70.2299 65.1627 70.4859 65.1413 70.6993 65.184C70.8273 65.2267 70.9553 65.376 71.0833 65.632C71.2113 65.8453 71.2753 66.0587 71.2753 66.272C71.3179 66.9973 71.3179 67.808 71.2753 68.704C71.2753 69.5573 71.2753 70.3467 71.2753 71.072V73.76C71.2753 75.424 71.3606 77.92 71.5313 81.248C71.6166 82.3147 71.7019 83.9573 71.7873 86.176C71.8299 86.944 71.8513 88.0747 71.8513 89.568C71.8513 91.872 71.8299 93.5787 71.7873 94.688L71.7233 99.872C71.7233 101.92 71.7873 103.968 71.9153 106.016V106.144C71.9153 106.443 71.7659 106.72 71.4673 106.976C71.2113 107.189 70.8913 107.317 70.5073 107.36C70.1233 107.36 69.7819 107.253 69.4833 107.04C69.2273 106.784 69.1206 106.485 69.1633 106.144L69.3553 101.408L69.7393 91.488V89.568C69.6539 86.2827 69.5899 82.4853 69.5473 78.176C69.5046 73.824 69.5046 71.6053 69.5473 71.52L69.0993 71.456L64.6833 83.68C60.8433 94.5173 57.8353 102.603 55.6593 107.936L54.8913 108ZM63.3393 60.576C62.6993 61.088 62.0379 61.344 61.3553 61.344C60.4593 61.344 59.5846 60.9173 58.7313 60.064C58.5179 59.808 58.3046 59.552 58.0913 59.296C57.8779 58.9973 57.7713 58.6987 57.7713 58.4C57.7713 58.1867 57.8353 57.952 57.9633 57.696C58.5606 57.5253 58.9019 57.44 58.9873 57.44C59.2433 57.44 59.5846 57.7173 60.0113 58.272C60.5233 58.9547 60.9073 59.296 61.1633 59.296C61.3766 59.296 61.7819 59.0613 62.3793 58.592C62.9339 58.1227 63.3606 57.6747 63.6593 57.248C63.9579 56.8213 64.0859 56.2667 64.0433 55.584C65.3659 55.8827 66.0273 56.4373 66.0273 57.248C66.0273 57.7173 65.8139 58.1653 65.3873 58.592C64.6619 59.4027 63.9793 60.064 63.3393 60.576ZM96.5628 108.448C95.7521 108.192 95.0481 107.829 94.4508 107.36C93.8961 106.891 93.3628 106.187 92.8508 105.248C91.9548 103.541 91.4214 101.088 91.2508 97.888C91.1654 96.4373 91.1228 95.1573 91.1228 94.048V86.752C91.1228 83.9787 91.2081 81.2907 91.3788 78.688C91.5068 76.768 91.6988 75.1467 91.9548 73.824C92.2108 72.5013 92.6161 71.1787 93.1708 69.856C93.7681 68.4907 94.4294 67.5307 95.1548 66.976C95.4534 66.72 96.0294 66.4213 96.8828 66.08C97.4374 65.8667 97.9708 65.632 98.4828 65.376H101.043H101.235C101.277 65.4187 101.341 65.44 101.427 65.44L101.747 65.504L102.003 65.696C102.131 65.824 102.195 65.9093 102.195 65.952C102.237 66.0373 102.259 66.1653 102.259 66.336L101.427 67.296H98.7388C97.9281 67.296 97.1814 67.7013 96.4988 68.512C95.8588 69.28 95.3681 70.2613 95.0268 71.456C94.6854 72.5227 94.4081 73.7813 94.1948 75.232C93.9814 76.6827 93.8534 77.9413 93.8108 79.008C93.7254 80.3733 93.6828 81.312 93.6828 81.824L93.5548 82.144C93.5548 84.5333 93.5121 86.688 93.4268 88.608L93.2988 95.072C93.2988 96.9493 93.4268 98.6773 93.6828 100.256C93.8961 101.963 94.5148 103.499 95.5388 104.864C96.5201 106.229 98.0348 106.912 100.083 106.912C100.723 106.912 101.256 106.72 101.683 106.336C102.323 106.336 102.643 106.571 102.643 107.04C102.643 107.339 102.365 107.68 101.811 108.064C101.299 108.491 100.765 108.811 100.211 109.024H98.0988L96.5628 108.448ZM116.733 109.216C111.741 109.216 109.245 101.365 109.245 85.664V83.424C109.245 71.52 110.781 65.568 113.853 65.568C114.066 65.568 114.365 65.632 114.749 65.76C116.114 66.2293 117.458 66.528 118.781 66.656C119.591 66.8267 120.402 67.6587 121.213 69.152C122.109 70.688 122.77 72.7147 123.197 75.232C123.666 77.7493 123.901 80.3307 123.901 82.976L123.773 83.296C123.773 84.704 123.794 85.9627 123.837 87.072L123.901 90.912C123.901 93.088 123.815 95.0507 123.645 96.8C123.389 99.4453 122.962 101.728 122.365 103.648C121.981 104.8 121.533 105.76 121.021 106.528C120.551 107.296 119.954 107.936 119.229 108.448C118.546 108.96 117.714 109.216 116.733 109.216ZM116.477 107.36C118.141 107.36 119.378 106.187 120.189 103.84C120.999 101.451 121.49 99.0187 121.661 96.544C121.831 93.984 121.917 91.936 121.917 90.4C121.917 88.6933 121.789 86.176 121.533 82.848C121.319 79.136 121.213 76.6187 121.213 75.296L120.957 74.784L121.085 74.464C121.085 72.5867 120.551 70.9653 119.485 69.6C118.461 68.2347 117.202 67.552 115.709 67.552C113.746 67.552 112.573 68.4907 112.189 70.368C112.103 71.008 112.018 71.9253 111.933 73.12C111.933 76.2773 111.805 78.432 111.549 79.584C111.549 80.224 111.485 81.2267 111.357 82.592L111.229 85.6C111.229 86.5387 111.25 87.3707 111.293 88.096L111.357 90.656C111.357 92.6613 111.527 94.9653 111.869 97.568C112.125 99.488 112.423 101.109 112.765 102.432C113.106 103.755 113.597 104.885 114.237 105.824C114.877 106.848 115.623 107.36 116.477 107.36ZM131.769 107.616C131.257 107.915 130.83 108.064 130.489 108.064C129.977 108.064 129.657 107.808 129.529 107.296V107.104C129.529 106.805 129.699 106.549 130.041 106.336C130.382 106.08 130.617 105.909 130.745 105.824C131.555 105.141 132.174 104.309 132.601 103.328C133.07 102.347 133.539 101.024 134.009 99.36C134.862 96.0747 135.289 92.32 135.289 88.096C135.289 87.0293 135.246 85.4293 135.161 83.296C135.033 80.6507 134.926 77.6 134.841 74.144C134.755 70.688 134.734 68.4907 134.777 67.552C134.734 67.552 134.67 67.5733 134.585 67.616C134.499 67.616 134.393 67.616 134.265 67.616C133.326 67.616 132.857 67.4027 132.857 66.976C132.857 66.5067 133.198 66.144 133.881 65.888C134.521 65.632 135.246 65.5253 136.057 65.568C136.867 65.568 137.401 65.568 137.657 65.568H140.729C142.179 65.568 142.99 65.5467 143.161 65.504C144.227 65.4187 144.995 65.5253 145.465 65.824C145.934 66.1227 146.169 66.6987 146.169 67.552C146.169 67.936 146.147 68.2347 146.105 68.448C145.934 69.6853 145.849 71.1147 145.849 72.736L145.913 77.28C145.913 79.8827 145.891 81.824 145.849 83.104L145.785 88.992V90.912C145.785 93.3867 145.913 97.1413 146.169 102.176C146.169 102.816 146.211 103.541 146.297 104.352C146.382 105.12 146.446 105.675 146.489 106.016V106.272C146.489 106.699 146.403 106.997 146.233 107.168C146.105 107.339 145.827 107.445 145.401 107.488H145.273C144.889 107.488 144.569 107.381 144.313 107.168C144.099 106.955 143.993 106.635 143.993 106.208L144.057 102.176C144.099 100.597 144.121 98.2293 144.121 95.072L143.929 78.24L143.993 74.272C143.993 72.5653 143.929 70.9227 143.801 69.344C143.801 69.088 143.673 68.576 143.417 67.808H136.441L136.697 72.864L136.889 76.576C137.059 82.6347 137.145 87.1787 137.145 90.208C137.059 94.816 136.398 99.0613 135.161 102.944C134.435 105.12 133.305 106.677 131.769 107.616ZM162.483 109.216C157.491 109.216 154.995 101.365 154.995 85.664V83.424C154.995 71.52 156.531 65.568 159.603 65.568C159.816 65.568 160.115 65.632 160.499 65.76C161.864 66.2293 163.208 66.528 164.531 66.656C165.341 66.8267 166.152 67.6587 166.963 69.152C167.859 70.688 168.52 72.7147 168.947 75.232C169.416 77.7493 169.651 80.3307 169.651 82.976L169.523 83.296C169.523 84.704 169.544 85.9627 169.587 87.072L169.651 90.912C169.651 93.088 169.565 95.0507 169.395 96.8C169.139 99.4453 168.712 101.728 168.115 103.648C167.731 104.8 167.283 105.76 166.771 106.528C166.301 107.296 165.704 107.936 164.979 108.448C164.296 108.96 163.464 109.216 162.483 109.216ZM162.227 107.36C163.891 107.36 165.128 106.187 165.939 103.84C166.749 101.451 167.24 99.0187 167.411 96.544C167.581 93.984 167.667 91.936 167.667 90.4C167.667 88.6933 167.539 86.176 167.283 82.848C167.069 79.136 166.963 76.6187 166.963 75.296L166.707 74.784L166.835 74.464C166.835 72.5867 166.301 70.9653 165.235 69.6C164.211 68.2347 162.952 67.552 161.459 67.552C159.496 67.552 158.323 68.4907 157.939 70.368C157.853 71.008 157.768 71.9253 157.683 73.12C157.683 76.2773 157.555 78.432 157.299 79.584C157.299 80.224 157.235 81.2267 157.107 82.592L156.979 85.6C156.979 86.5387 157 87.3707 157.043 88.096L157.107 90.656C157.107 92.6613 157.277 94.9653 157.619 97.568C157.875 99.488 158.173 101.109 158.515 102.432C158.856 103.755 159.347 104.885 159.987 105.824C160.627 106.848 161.373 107.36 162.227 107.36ZM193.455 113.696C192.815 113.568 192.559 113.163 192.687 112.48L193.007 110.816C193.22 109.877 193.327 109.024 193.327 108.256C191.876 108.128 190.425 108.064 188.975 108.064C187.14 108.064 185.156 108.149 183.023 108.32C180.932 108.533 178.884 108.747 176.879 108.96C176.537 109.301 176.367 109.749 176.367 110.304C176.367 110.347 176.431 110.752 176.559 111.52C176.644 111.861 176.687 112.096 176.687 112.224C176.687 112.608 176.452 112.864 175.983 112.992L175.727 113.056C175.385 113.056 175.065 112.949 174.767 112.736C174.468 112.523 174.297 112.267 174.255 111.968C174.084 110.176 173.999 108.832 173.999 107.936C173.999 107.552 174.148 107.275 174.447 107.104C174.788 106.891 175.129 106.805 175.471 106.848C176.367 106.891 177.007 106.677 177.391 106.208C177.775 105.739 178.116 105.056 178.415 104.16C179.268 101.003 179.801 98.6133 180.015 96.992C180.441 93.1947 180.719 90.2507 180.847 88.16C180.975 86.0267 181.06 83.552 181.103 80.736C181.103 80.0107 181.124 78.7733 181.167 77.024C181.209 75.2747 181.273 73.44 181.359 71.52C181.401 71.0933 181.38 70.4533 181.295 69.6C181.209 68.9173 181.167 68.4053 181.167 68.064C181.124 67.3813 181.231 66.912 181.487 66.656C181.785 66.4 182.276 66.272 182.959 66.272L190.191 66.08C190.703 66.08 191.108 66.2293 191.407 66.528C191.748 66.8267 191.897 67.232 191.855 67.744L191.279 80.736C191.023 84.832 190.895 87.9467 190.895 90.08C190.895 92.2987 190.98 94.8373 191.151 97.696C191.151 100.171 191.215 103.008 191.343 106.208C192.836 105.867 193.967 105.696 194.735 105.696C195.247 105.696 195.652 105.824 195.951 106.08C196.292 106.336 196.463 106.656 196.463 107.04C196.463 107.339 196.377 107.595 196.207 107.808C195.567 108.747 195.183 109.771 195.055 110.88C194.969 112.032 194.905 112.715 194.863 112.928C194.692 113.611 194.223 113.867 193.455 113.696ZM180.079 106.464C183.876 106.293 186.777 106.144 188.783 106.016C188.953 98.208 189.103 92.1707 189.231 87.904L189.423 81.696C189.508 78.88 189.551 76.8107 189.551 75.488C189.551 73.4827 189.529 71.776 189.487 70.368C189.487 69.7707 189.401 69.3653 189.231 69.152C189.06 68.9387 188.719 68.8107 188.207 68.768C187.737 68.7253 187.012 68.704 186.031 68.704H183.791C183.535 72.288 183.257 77.5147 182.959 84.384C182.66 91.04 182.447 94.9227 182.319 96.032C182.02 98.6347 181.721 100.597 181.423 101.92C181.167 103.243 180.719 104.757 180.079 106.464ZM202.918 108.832C202.15 108.832 201.723 108.384 201.638 107.488V106.656C201.68 106.443 201.702 106.187 201.702 105.888L201.446 105.632C201.787 104.736 201.958 103.861 201.958 103.008C201.958 102.027 201.894 100.619 201.766 98.784L201.638 94.56C201.638 92.4267 201.702 89.2267 201.83 84.96C202 81.1627 202.086 77.9413 202.086 75.296L201.958 71.456C201.872 70.304 201.83 69.024 201.83 67.616C201.83 66.976 201.979 66.528 202.278 66.272C202.576 65.9733 203.046 65.824 203.686 65.824C204.112 65.824 204.454 65.952 204.71 66.208C204.795 66.2507 205.414 66.336 206.566 66.464C207.632 66.592 208.55 66.784 209.318 67.04C210.128 67.296 210.534 67.616 210.534 68C210.534 68.4267 210.128 68.8533 209.318 69.28C206.886 68.4693 205.158 68.064 204.134 68.064L203.814 68.448C203.856 68.832 203.878 69.7493 203.878 71.2C203.878 73.0347 203.835 74.6773 203.75 76.128C203.707 77.6213 203.686 79.2853 203.686 81.12C203.686 82.3147 203.984 82.912 204.582 82.912L205.606 82.848C205.947 82.8053 206.31 82.784 206.694 82.784C208.358 82.784 209.19 83.168 209.19 83.936C209.19 84.4053 209.083 84.8107 208.87 85.152C208.656 85.4507 208.336 85.6 207.91 85.6C207.27 85.6 206.779 85.4293 206.438 85.088L204.39 84.768H204.07L203.75 85.088V85.28C203.835 86.0053 203.878 87.6907 203.878 90.336C203.878 92 203.856 93.5147 203.814 94.88L203.75 99.424C203.75 101.088 203.814 102.795 203.942 104.544C203.984 105.525 204.198 106.187 204.582 106.528C204.966 106.827 205.67 106.976 206.694 106.976L207.846 106.912C208.23 106.869 208.656 106.848 209.126 106.848C210.363 106.848 210.982 107.125 210.982 107.68C210.982 108.448 210.043 108.832 208.166 108.832H202.918ZM228.765 108.32C228.253 108.32 227.933 108.277 227.805 108.192C227.719 108.149 227.677 108 227.677 107.744C227.677 107.36 227.655 107.019 227.613 106.72C227.442 99.04 227.357 93.7707 227.357 90.912L227.165 90.656L227.421 90.08C227.421 89.312 227.335 88.5227 227.165 87.712L226.205 87.456C225.821 87.584 225.394 87.648 224.925 87.648C224.583 87.648 223.879 87.5413 222.813 87.328C222.087 87.1147 221.426 87.008 220.829 87.008L220.125 87.264C220.125 88.7573 220.103 90.1013 220.061 91.296C220.018 92.4907 219.997 93.8347 219.997 95.328L220.125 95.584C220.125 96.7787 220.189 98.5707 220.317 100.96C220.445 103.307 220.509 105.077 220.509 106.272C220.509 106.741 220.423 107.147 220.253 107.488C220.082 107.787 219.826 107.936 219.485 107.936C218.546 107.936 218.077 106.656 218.077 104.096C218.077 101.92 218.098 99.9573 218.141 98.208L218.205 92.384C218.205 88.5013 218.141 86.4107 218.013 86.112C218.226 85.6853 218.333 84.2773 218.333 81.888C218.333 79.84 218.247 77.344 218.077 74.4L217.949 71.904L217.821 66.912C217.821 66.6133 217.927 66.336 218.141 66.08C218.354 65.824 218.61 65.696 218.909 65.696C219.762 65.696 220.189 66.9333 220.189 69.408C220.189 72.3093 220.167 74.9333 220.125 77.28C220.039 79.6267 219.997 82.208 219.997 85.024C219.997 85.536 221.618 85.792 224.861 85.792H225.117C225.927 85.792 226.503 85.6427 226.845 85.344C227.229 85.0027 227.421 84.448 227.421 83.68C227.421 81.4187 227.271 78.4747 226.973 74.848C226.717 70.9227 226.589 67.9787 226.589 66.016C226.589 65.76 226.695 65.5467 226.909 65.376C227.122 65.1627 227.378 65.056 227.677 65.056L228.253 65.248C228.551 65.2907 228.743 65.3547 228.829 65.44C228.829 68.768 228.957 73.7387 229.213 80.352C229.469 87.008 229.597 92 229.597 95.328C229.597 98.656 229.81 102.752 230.237 107.616V108C229.853 108.213 229.362 108.32 228.765 108.32ZM225.565 84.896L225.693 85.024H225.565V84.896ZM241.254 108.128C240.401 108.128 239.782 107.936 239.398 107.552C239.057 107.168 238.886 106.507 238.886 105.568C238.844 103.221 238.822 99.7013 238.822 95.008L238.95 89.568C238.993 87.7333 239.036 85.472 239.078 82.784C239.121 80.096 239.142 76.96 239.142 73.376C239.142 72.0533 239.014 70.1547 238.758 67.68V67.36C238.758 66.7627 238.844 66.3573 239.014 66.144C239.185 65.888 239.484 65.76 239.91 65.76C240.465 65.76 240.892 65.9307 241.19 66.272C241.532 66.5707 241.681 66.9973 241.638 67.552C241.553 72.928 241.468 76.9387 241.382 79.584C241.254 81.504 241.19 83.36 241.19 85.152H242.79C245.094 85.2373 246.822 86.1973 247.974 88.032C249.425 90.3787 250.15 92.9173 250.15 95.648C250.15 97.8667 249.788 99.872 249.062 101.664C248.38 103.413 247.292 104.992 245.798 106.4C244.646 107.552 243.132 108.128 241.254 108.128ZM241.382 105.568C242.278 105.611 243.196 105.376 244.134 104.864C245.073 104.309 245.777 103.648 246.246 102.88C247.526 100.704 248.166 98.4213 248.166 96.032C248.166 93.472 247.633 91.36 246.566 89.696C245.542 87.9893 243.75 87.1573 241.19 87.2C241.062 89.12 240.998 91.0187 240.998 92.896C240.998 94.7733 241.084 97.5893 241.254 101.344C241.254 102.283 241.297 103.691 241.382 105.568ZM265.086 108.448C264.19 108.192 263.486 107.765 262.974 107.168C262.504 106.528 262.142 105.717 261.886 104.736C261.587 103.541 261.395 102.347 261.31 101.152C261.267 99.9147 261.246 98.3787 261.246 96.544C261.246 95.1787 261.224 94.1547 261.182 93.472C261.182 92.3627 261.054 91.232 260.798 90.08C260.712 89.4827 260.499 89.056 260.158 88.8C259.859 88.544 259.283 88.3733 258.43 88.288L258.366 90.208C258.28 91.9147 258.238 93.1733 258.238 93.984C258.238 94.9653 258.28 96.3947 258.366 98.272L258.43 100.384L258.878 106.144L258.942 106.784C258.942 107.253 258.75 107.573 258.366 107.744C258.11 107.872 257.875 107.936 257.662 107.936C257.32 107.936 257.043 107.851 256.83 107.68C256.616 107.467 256.488 107.168 256.446 106.784C256.403 106.315 256.403 105.781 256.446 105.184C256.531 104.587 256.574 104.181 256.574 103.968L256.638 101.408C256.723 99.104 256.766 97.4187 256.766 96.352L256.702 92.384C256.616 88.8853 256.574 86.2613 256.574 84.512V82.592C256.574 80.5867 256.659 77.8347 256.83 74.336L256.958 70.752L256.894 68.064C256.894 67.1253 257 66.5493 257.214 66.336C257.342 66.208 257.491 66.144 257.662 66.144C257.875 66.144 258.088 66.208 258.302 66.336C258.558 66.464 258.75 66.6133 258.878 66.784C259.048 66.9973 259.134 67.3173 259.134 67.744L259.07 68.512L258.814 76.192C258.6 81.0133 258.494 84.0213 258.494 85.216C259.006 85.344 259.39 85.3013 259.646 85.088C259.944 84.8747 260.222 84.5333 260.478 84.064C261.459 82.1867 262.056 79.904 262.27 77.216L262.974 69.152C263.059 68.256 263.443 67.4453 264.126 66.72C264.851 65.9947 265.662 65.5467 266.558 65.376C266.686 65.3333 266.878 65.312 267.134 65.312C267.688 65.312 268.136 65.4827 268.478 65.824C269.032 66.2933 269.182 66.72 268.926 67.104C268.84 67.2747 268.648 67.488 268.35 67.744C268.051 68 267.838 68.128 267.71 68.128C266.515 68.2987 265.726 68.576 265.342 68.96C265 69.3013 264.766 70.0907 264.638 71.328C264.51 72.3947 264.36 74.144 264.19 76.576C264.062 78.7947 263.678 80.9493 263.038 83.04C262.91 83.5093 262.76 83.9787 262.59 84.448C262.462 84.8747 262.248 85.2373 261.95 85.536C261.31 86.176 260.52 86.5387 259.582 86.624C259.624 86.7093 259.859 86.8587 260.286 87.072C260.755 87.2427 261.032 87.3493 261.118 87.392C261.758 87.8187 262.163 88.288 262.334 88.8C262.547 89.312 262.718 90.08 262.846 91.104C262.974 91.872 263.038 92.7253 263.038 93.664C263.038 94.6027 263.038 95.1787 263.038 95.392C263.08 97.3973 263.251 99.6373 263.55 102.112C263.55 102.411 263.592 102.901 263.678 103.584C263.976 105.376 264.894 106.251 266.43 106.208H267.006C267.518 106.208 267.859 106.336 268.03 106.592C268.115 106.763 268.158 106.912 268.158 107.04C268.158 107.381 268.03 107.723 267.774 108.064C267.39 108.448 266.878 108.64 266.238 108.64C265.811 108.64 265.427 108.576 265.086 108.448ZM277.829 108C277.274 108 276.89 107.893 276.677 107.68C276.463 107.424 276.357 107.019 276.357 106.464C275.973 86.1547 275.61 74.4 275.269 71.2C275.141 70.3893 274.991 69.1733 274.821 67.552C274.778 66.9973 274.885 66.5707 275.141 66.272C275.439 65.9307 275.823 65.76 276.293 65.76C277.103 65.76 277.509 66.3147 277.509 67.424C277.466 68.9173 277.551 72.9067 277.765 79.392C277.85 81.7813 277.893 84.0213 277.893 86.112C277.893 88.9707 277.957 92.5547 278.085 96.864L278.533 103.008L279.045 102.368C280.239 99.2533 281.733 95.2 283.525 90.208C285.317 85.216 286.383 82.1867 286.725 81.12L287.557 79.072C288.239 77.3653 288.794 75.8507 289.221 74.528C289.477 73.76 289.818 72.5227 290.245 70.816C290.586 69.5787 290.927 68.448 291.269 67.424C291.61 66.3573 291.909 65.7173 292.165 65.504C292.335 65.376 292.57 65.2907 292.869 65.248C293.167 65.1627 293.423 65.1413 293.637 65.184C293.765 65.2267 293.893 65.376 294.021 65.632C294.149 65.8453 294.213 66.0587 294.213 66.272C294.255 66.9973 294.255 67.808 294.213 68.704C294.213 69.5573 294.213 70.3467 294.213 71.072V73.76C294.213 75.424 294.298 77.92 294.469 81.248C294.554 82.3147 294.639 83.9573 294.725 86.176C294.767 86.944 294.789 88.0747 294.789 89.568C294.789 91.872 294.767 93.5787 294.725 94.688L294.661 99.872C294.661 101.92 294.725 103.968 294.853 106.016V106.144C294.853 106.443 294.703 106.72 294.405 106.976C294.149 107.189 293.829 107.317 293.445 107.36C293.061 107.36 292.719 107.253 292.421 107.04C292.165 106.784 292.058 106.485 292.101 106.144L292.293 101.408L292.677 91.488V89.568C292.591 86.2827 292.527 82.4853 292.485 78.176C292.442 73.824 292.442 71.6053 292.485 71.52L292.037 71.456L287.621 83.68C283.781 94.5173 280.773 102.603 278.597 107.936L277.829 108ZM306.579 108C306.024 108 305.64 107.893 305.427 107.68C305.213 107.424 305.107 107.019 305.107 106.464C304.723 86.1547 304.36 74.4 304.019 71.2C303.891 70.3893 303.741 69.1733 303.571 67.552C303.528 66.9973 303.635 66.5707 303.891 66.272C304.189 65.9307 304.573 65.76 305.043 65.76C305.853 65.76 306.259 66.3147 306.259 67.424C306.216 68.9173 306.301 72.9067 306.515 79.392C306.6 81.7813 306.643 84.0213 306.643 86.112C306.643 88.9707 306.707 92.5547 306.835 96.864L307.283 103.008L307.795 102.368C308.989 99.2533 310.483 95.2 312.275 90.208C314.067 85.216 315.133 82.1867 315.475 81.12L316.307 79.072C316.989 77.3653 317.544 75.8507 317.971 74.528C318.227 73.76 318.568 72.5227 318.995 70.816C319.336 69.5787 319.677 68.448 320.019 67.424C320.36 66.3573 320.659 65.7173 320.915 65.504C321.085 65.376 321.32 65.2907 321.619 65.248C321.917 65.1627 322.173 65.1413 322.387 65.184C322.515 65.2267 322.643 65.376 322.771 65.632C322.899 65.8453 322.963 66.0587 322.963 66.272C323.005 66.9973 323.005 67.808 322.963 68.704C322.963 69.5573 322.963 70.3467 322.963 71.072V73.76C322.963 75.424 323.048 77.92 323.219 81.248C323.304 82.3147 323.389 83.9573 323.475 86.176C323.517 86.944 323.539 88.0747 323.539 89.568C323.539 91.872 323.517 93.5787 323.475 94.688L323.411 99.872C323.411 101.92 323.475 103.968 323.603 106.016V106.144C323.603 106.443 323.453 106.72 323.155 106.976C322.899 107.189 322.579 107.317 322.195 107.36C321.811 107.36 321.469 107.253 321.171 107.04C320.915 106.784 320.808 106.485 320.851 106.144L321.043 101.408L321.427 91.488V89.568C321.341 86.2827 321.277 82.4853 321.235 78.176C321.192 73.824 321.192 71.6053 321.235 71.52L320.787 71.456L316.371 83.68C312.531 94.5173 309.523 102.603 307.347 107.936L306.579 108ZM315.027 60.576C314.387 61.088 313.725 61.344 313.043 61.344C312.147 61.344 311.272 60.9173 310.419 60.064C310.205 59.808 309.992 59.552 309.779 59.296C309.565 58.9973 309.459 58.6987 309.459 58.4C309.459 58.1867 309.523 57.952 309.651 57.696C310.248 57.5253 310.589 57.44 310.675 57.44C310.931 57.44 311.272 57.7173 311.699 58.272C312.211 58.9547 312.595 59.296 312.851 59.296C313.064 59.296 313.469 59.0613 314.067 58.592C314.621 58.1227 315.048 57.6747 315.347 57.248C315.645 56.8213 315.773 56.2667 315.731 55.584C317.053 55.8827 317.715 56.4373 317.715 57.248C317.715 57.7173 317.501 58.1653 317.075 58.592C316.349 59.4027 315.667 60.064 315.027 60.576Z" fill="#BE6A3A"/>
</svg>
