<svg width="324" height="114" viewBox="0 0 324 114" fill="none" xmlns="http://www.w3.org/2000/svg">
<path d="M10.784 44C9.93067 44 9.504 43.4453 9.504 42.336C9.46133 41.824 9.44 41.3333 9.44 40.864C9.48267 40.352 9.504 39.904 9.504 39.52V37.664C9.504 36.4267 9.48267 35.616 9.44 35.232C9.35467 33.696 9.312 32.5653 9.312 31.84C9.312 29.92 9.48267 27.0827 9.824 23.328C9.90933 22.0907 9.952 20.192 9.952 17.632C9.99467 16.864 10.016 14.88 10.016 11.68V7.072C10.1013 6.51733 10.1867 6.13333 10.272 5.92C10.3573 5.664 10.3787 5.10933 10.336 4.256C10.464 4.21333 9.44 4.14933 7.264 4.064C5.088 3.97866 3.53067 3.91466 2.592 3.872C2.67733 3.872 2.72 4.36266 2.72 5.344C2.72 6.58133 2.656 8.288 2.528 10.464C2.44267 12.5973 2.35733 14.1333 2.272 15.072C2.22933 16.608 2.208 18.9333 2.208 22.048V24.992C2.208 25.888 2.25067 26.8907 2.336 28C2.42133 29.1093 2.48533 29.8987 2.528 30.368C2.61333 30.9653 2.69867 31.8613 2.784 33.056C2.86933 33.952 2.976 35.4667 3.104 37.6C3.232 39.6907 3.31733 41.248 3.36 42.272C3.27467 43.2533 2.82667 43.744 2.016 43.744C1.58933 43.744 1.26933 43.6373 1.056 43.424C0.842667 43.168 0.736 42.7627 0.736 42.208L0.608 37.152L0.352 27.36C0.352 24.8853 0.394667 21.1307 0.48 16.096V3.104C0.48 2.592 0.586667 2.208 0.8 1.952C1.01333 1.65333 1.44 1.504 2.08 1.504C3.27467 1.58933 4.17067 1.67466 4.768 1.76L6.624 1.952C7.05067 1.99467 7.66933 2.03733 8.48 2.08C9.29067 2.08 9.97333 2.12266 10.528 2.208C11.1253 2.29333 11.6373 2.44267 12.064 2.656C12.6187 2.86933 12.832 3.38133 12.704 4.192C12.448 6.15466 12.256 8.13866 12.128 10.144C12 12.32 11.936 14.048 11.936 15.328V16.736C11.936 17.0773 11.936 17.5467 11.936 18.144C11.9787 18.6987 11.9787 19.4027 11.936 20.256C11.936 20.8533 11.8933 21.792 11.808 23.072C11.7227 24.2667 11.68 25.1627 11.68 25.76C11.68 26.4 11.6587 26.8693 11.616 27.168L11.552 32.416C11.552 34.5493 11.68 37.0667 11.936 39.968C11.9787 40.3093 12.0427 40.7147 12.128 41.184C12.2133 41.6107 12.256 41.952 12.256 42.208C12.256 42.5493 12.192 42.8907 12.064 43.232C11.808 43.744 11.3813 44 10.784 44ZM22.629 44.768C22.1597 42.08 21.925 39.008 21.925 35.552C21.925 34.1867 21.989 32.2027 22.117 29.6L22.245 23.648C21.9463 23.0507 21.797 22.56 21.797 22.176C22.2237 21.4933 22.437 19.5307 22.437 16.288C22.437 8.52267 22.3303 4.384 22.117 3.872C22.501 2.80533 22.7997 2.272 23.013 2.272H25.829C26.2983 2.272 26.9597 2.50667 27.813 2.976C28.709 3.40266 29.4557 3.872 30.053 4.384C31.1197 5.36533 31.653 7.88266 31.653 11.936C31.653 14.112 31.589 15.776 31.461 16.928C31.3757 17.7387 31.2263 18.3787 31.013 18.848C30.8423 19.3173 30.565 19.8507 30.181 20.448C29.541 21.4293 28.453 22.2827 26.917 23.008C26.277 23.3493 25.381 23.6907 24.229 24.032V31.648C24.229 32.7147 24.3357 34.8053 24.549 37.92L24.677 39.968L24.805 44.128C24.805 44.896 24.3997 45.28 23.589 45.28L22.629 44.768ZM24.677 21.856C25.9143 21.856 26.9597 21.28 27.813 20.128C28.1117 19.7013 28.389 19.1253 28.645 18.4C28.901 17.6747 29.0717 16.9707 29.157 16.288C29.413 15.0507 29.541 13.6213 29.541 12V10.272C29.541 9.67467 29.5197 9.09867 29.477 8.544C29.4343 7.98933 29.349 7.456 29.221 6.944C29.0503 6.38933 28.8157 5.94133 28.517 5.6C28.261 5.216 27.8983 4.896 27.429 4.64C26.917 4.384 26.2983 4.256 25.573 4.256C25.061 4.256 24.6983 4.384 24.485 4.64C24.2717 4.896 24.165 5.344 24.165 5.984C24.165 7.008 24.229 8.544 24.357 10.592L24.485 15.2C24.485 16.3093 24.4423 17.312 24.357 18.208L24.229 21.216L24.677 21.856ZM41.2975 44C40.7428 44 40.3588 43.8933 40.1455 43.68C39.9322 43.424 39.8255 43.0187 39.8255 42.464C39.4415 22.1547 39.0788 10.4 38.7375 7.2C38.6095 6.38933 38.4602 5.17333 38.2895 3.552C38.2468 2.99733 38.3535 2.57066 38.6095 2.272C38.9082 1.93067 39.2922 1.76 39.7615 1.76C40.5722 1.76 40.9775 2.31467 40.9775 3.424C40.9348 4.91733 41.0202 8.90666 41.2335 15.392C41.3188 17.7813 41.3615 20.0213 41.3615 22.112C41.3615 24.9707 41.4255 28.5547 41.5535 32.864L42.0015 39.008L42.5135 38.368C43.7082 35.2533 45.2015 31.2 46.9935 26.208C48.7855 21.216 49.8522 18.1867 50.1935 17.12L51.0255 15.072C51.7082 13.3653 52.2628 11.8507 52.6895 10.528C52.9455 9.76 53.2868 8.52267 53.7135 6.816C54.0548 5.57867 54.3962 4.448 54.7375 3.424C55.0788 2.35733 55.3775 1.71733 55.6335 1.504C55.8042 1.376 56.0388 1.29066 56.3375 1.248C56.6362 1.16267 56.8922 1.14133 57.1055 1.184C57.2335 1.22666 57.3615 1.376 57.4895 1.632C57.6175 1.84533 57.6815 2.05867 57.6815 2.272C57.7242 2.99733 57.7242 3.808 57.6815 4.704C57.6815 5.55733 57.6815 6.34666 57.6815 7.072V9.76C57.6815 11.424 57.7668 13.92 57.9375 17.248C58.0228 18.3147 58.1082 19.9573 58.1935 22.176C58.2362 22.944 58.2575 24.0747 58.2575 25.568C58.2575 27.872 58.2362 29.5787 58.1935 30.688L58.1295 35.872C58.1295 37.92 58.1935 39.968 58.3215 42.016V42.144C58.3215 42.4427 58.1722 42.72 57.8735 42.976C57.6175 43.1893 57.2975 43.3173 56.9135 43.36C56.5295 43.36 56.1882 43.2533 55.8895 43.04C55.6335 42.784 55.5268 42.4853 55.5695 42.144L55.7615 37.408L56.1455 27.488V25.568C56.0602 22.2827 55.9962 18.4853 55.9535 14.176C55.9108 9.824 55.9108 7.60533 55.9535 7.52L55.5055 7.456L51.0895 19.68C47.2495 30.5173 44.2415 38.6027 42.0655 43.936L41.2975 44ZM68.3195 44.704C67.9782 44.704 67.6795 44.576 67.4235 44.32C67.2102 44.064 67.1035 43.744 67.1035 43.36L67.0395 41.376C67.0395 39.84 67.1675 37.5787 67.4235 34.592C67.6368 31.264 67.7435 29.024 67.7435 27.872L67.6795 24.992C67.6368 24.1387 67.6155 23.2 67.6155 22.176C67.6155 20.4693 67.6795 17.9307 67.8075 14.56C67.9355 11.104 67.9995 8.544 67.9995 6.88L67.9355 3.168L67.6795 2.848V2.464C67.6795 1.35467 68.1275 0.799999 69.0235 0.799999C69.7062 0.799999 70.8155 1.07733 72.3515 1.632C73.9302 2.144 74.7195 2.57066 74.7195 2.912V3.104C75.4875 4.34133 75.9995 5.57867 76.2555 6.816C76.5542 8.05333 76.7035 9.632 76.7035 11.552C76.7035 14.6667 76.3622 17.2053 75.6795 19.168H75.7435C75.5728 19.5093 75.2315 20.064 74.7195 20.832L73.8235 22.176C74.5915 22.7733 75.2315 23.648 75.7435 24.8C76.2982 25.952 76.6395 27.0613 76.7675 28.128C76.8102 28.512 76.8528 28.9813 76.8955 29.536C76.9382 30.0907 76.9808 30.752 77.0235 31.52L77.0875 33.184V34.08C77.0875 38.176 75.8075 41.2053 73.2475 43.168C71.9248 44.192 70.2822 44.704 68.3195 44.704ZM70.3035 20.896C73.1195 20.896 74.5275 18.0587 74.5275 12.384C74.5275 11.9147 74.4848 10.9973 74.3995 9.632L74.3355 8.416L74.2075 8.288C74.0368 6.88 73.8022 5.77067 73.5035 4.96C73.2902 4.36267 72.9488 3.89333 72.4795 3.552C72.0102 3.168 71.4982 2.976 70.9435 2.976C70.0048 2.976 69.5355 5.77066 69.5355 11.36C69.5355 12.4267 69.5568 13.152 69.5995 13.536V14.816V16.992C69.5568 17.6747 69.5355 18.4427 69.5355 19.296V20.064C69.5355 20.064 69.5782 20.192 69.6635 20.448L69.7915 20.896H70.3035ZM69.3435 42.208C70.3675 42.208 71.3062 41.8667 72.1595 41.184C73.0555 40.5013 73.7595 39.6267 74.2715 38.56C74.7835 37.4507 75.0395 36.3627 75.0395 35.296L75.1035 35.04V34.528V33.824C75.1035 32.032 74.9542 30.3253 74.6555 28.704C74.1862 26.528 73.3542 24.9493 72.1595 23.968C71.4768 23.4133 70.6662 23.136 69.7275 23.136C69.5142 26.6773 69.4075 29.5787 69.4075 31.84V33.312C69.4075 34.5493 69.4715 35.5307 69.5995 36.256C69.3862 36.64 69.2795 37.664 69.2795 39.328V40.992L69.3435 42.208ZM88.8765 44C87.8952 44 87.3192 43.7867 87.1485 43.36C86.9352 43.36 86.7645 43.3813 86.6365 43.424H86.1245C85.1858 43.424 84.5885 43.2107 84.3325 42.784C84.3325 42.4853 84.5032 42.2293 84.8445 42.016L85.1645 41.696H87.0205L87.2765 41.44L87.4045 40.864L87.4685 40.096C87.4685 37.4933 87.4045 35.168 87.2765 33.12L87.1485 30.752L87.0205 26.08C87.0205 24.416 87.0845 21.92 87.2125 18.592L87.3405 11.168C87.3405 7.92533 87.2338 5.45066 87.0205 3.744C86.6365 3.616 85.9965 3.552 85.1005 3.552L84.3965 3.616C84.1405 3.65866 83.8632 3.68 83.5645 3.68C82.7538 3.68 82.3485 3.31733 82.3485 2.592C82.3485 2.42133 82.5405 2.25067 82.9245 2.08C83.3085 1.90933 83.6285 1.824 83.8845 1.824C85.5058 1.824 87.1272 1.90933 88.7485 2.08C89.7298 2.12266 90.7112 2.31466 91.6925 2.656C92.4605 2.912 92.8445 3.27466 92.8445 3.744C92.8445 3.82933 92.7805 4 92.6525 4.256L91.1805 4.384C90.8818 4.128 90.2632 4 89.3245 4L89.0045 4.192C89.1325 4.576 89.1965 5.70667 89.1965 7.584C89.1965 10.4 89.1752 12.9387 89.1325 15.2L89.0045 22.816C89.0045 24.736 89.0898 27.0613 89.2605 29.792C89.3885 32.9067 89.4525 35.2533 89.4525 36.832V37.664C89.4098 37.9627 89.3885 38.3467 89.3885 38.816C89.3885 39.7973 89.4525 40.3947 89.5805 40.608L89.5165 40.736C89.5165 41.1627 89.9858 41.376 90.9245 41.376C91.3085 41.376 91.6285 41.3547 91.8845 41.312H92.8445C94.0818 41.312 94.7005 41.6107 94.7005 42.208C94.7005 42.592 94.5725 42.912 94.3165 43.168C94.0605 43.3813 93.7192 43.488 93.2925 43.488C92.9085 43.488 92.5672 43.4453 92.2685 43.36C91.9272 43.3173 91.5645 43.296 91.1805 43.296C90.9245 43.296 90.5405 43.4027 90.0285 43.616C89.5165 43.872 89.1325 44 88.8765 44ZM104.832 43.104L104.768 40.736C104.725 40.0533 104.704 39.2853 104.704 38.432C104.704 38.0053 104.725 37.6427 104.768 37.344L104.832 36.192C104.832 35.7653 104.747 35.2533 104.576 34.656C104.576 31.7973 104.363 26.4853 103.936 18.72C103.509 11.2107 103.275 6.112 103.232 3.424C100.587 3.424 98.816 3.36 97.92 3.232C97.0667 3.01867 96.64 2.67733 96.64 2.208C96.8533 1.73866 97.2587 1.504 97.856 1.504C99.136 1.504 100.992 1.58933 103.424 1.76C105.643 1.97333 107.499 2.08 108.992 2.08H110.336L111.68 2.016C112.448 2.016 112.832 2.29333 112.832 2.848C112.832 3.104 112.683 3.31733 112.384 3.488C112.128 3.616 111.808 3.68 111.424 3.68C110.571 3.68 109.675 3.63733 108.736 3.552L105.984 3.424C105.813 3.424 105.728 3.488 105.728 3.616C105.685 3.744 105.664 4.14933 105.664 4.832C105.664 8.97066 105.92 15.2427 106.432 23.648C106.901 32.352 107.136 38.6027 107.136 42.4C107.136 42.6987 106.944 42.976 106.56 43.232C106.219 43.488 105.877 43.616 105.536 43.616L104.832 43.104ZM120.44 48.544C119.971 48.4587 119.736 48.3093 119.736 48.096C119.736 47.8827 119.907 47.5413 120.248 47.072C120.632 46.56 120.824 46.304 120.824 46.304C121.123 45.8347 121.379 45.2373 121.592 44.512C121.72 44.128 121.784 43.8293 121.784 43.616C121.827 43.36 121.805 43.2107 121.72 43.168C121.208 43.1253 120.781 42.912 120.44 42.528C120.141 42.144 119.992 41.7387 119.992 41.312C119.992 40.7147 120.227 40.2453 120.696 39.904C121.208 39.5627 121.763 39.392 122.36 39.392C123.043 39.392 123.512 39.6267 123.768 40.096C124.067 40.5653 124.216 41.0987 124.216 41.696C124.216 42.72 123.896 43.8933 123.256 45.216C122.616 46.5813 121.805 47.6693 120.824 48.48L120.44 48.544ZM25.888 111.328C25.0347 111.328 24.608 109.963 24.608 107.232V103.008C24.608 96.864 24.48 92.064 24.224 88.608L24.032 86.24C23.8613 85.1733 23.776 84.2347 23.776 83.424C23.776 81.9733 23.8187 80.6507 23.904 79.456L24.032 75.488C24.032 74.1653 23.9467 73.1627 23.776 72.48C22.9227 73.0773 20.3413 82.0587 16.032 99.424L15.968 100.384C15.84 101.451 15.6693 102.304 15.456 102.944C15.328 103.413 15.136 103.776 14.88 104.032C14.6667 104.288 14.4107 104.416 14.112 104.416C13.4293 104.416 12.9387 104.245 12.64 103.904C12.3413 103.563 12.192 103.029 12.192 102.304C12.192 101.152 11.6373 98.1653 10.528 93.344C9.46133 88.5227 8.288 83.8933 7.008 79.456C5.77067 75.0187 4.91733 72.5653 4.448 72.096C4.40533 73.5893 4.23467 77.1093 3.936 82.656C3.33867 92.4693 3.04 100.192 3.04 105.824L3.104 108.384C2.93333 108.939 2.48533 109.216 1.76 109.216C1.632 109.216 1.41867 109.088 1.12 108.832C0.821334 108.619 0.672 108.448 0.672 108.32C0.672 104.48 1.01333 97.7387 1.696 88.096C2.336 79.136 2.656 72.416 2.656 67.936C2.656 67.7227 2.61333 67.5093 2.528 67.296C2.4 67.04 2.336 66.848 2.336 66.72C2.336 66.08 2.89067 65.76 4 65.76C4.72533 65.76 5.152 66.08 5.28 66.72C5.45067 67.5733 5.536 68.2133 5.536 68.64L5.6 69.408C5.81333 70.5173 6.432 72.224 7.456 74.528C8.26667 76.3627 8.88533 77.9627 9.312 79.328C9.568 80.352 9.80267 81.184 10.016 81.824C10.6987 84.2987 11.1467 86.1333 11.36 87.328L12.192 88.992C12.32 89.632 12.576 90.6773 12.96 92.128C13.344 93.7493 13.6213 95.072 13.792 96.096C13.9627 97.12 14.048 98.1013 14.048 99.04C14.5173 98.3147 15.84 93.9627 18.016 85.984C20.2347 77.9627 21.536 72.8427 21.92 70.624C21.9627 70.5387 21.984 70.432 21.984 70.304C22.0267 70.1333 22.0693 69.92 22.112 69.664C22.1973 69.1093 22.3893 68.2773 22.688 67.168C23.0293 66.3147 23.5413 65.888 24.224 65.888C24.5227 65.888 24.864 66.016 25.248 66.272C25.632 66.528 25.824 66.784 25.824 67.04C25.824 84.832 26.1013 94.24 26.656 95.264V98.592C26.6133 99.5733 26.592 100.704 26.592 101.984C26.592 104.715 26.7413 106.763 27.04 108.128C27.0827 108.171 27.104 108.235 27.104 108.32C27.1467 108.405 27.1893 108.512 27.232 108.64C27.2747 108.811 27.296 109.003 27.296 109.216C27.296 109.685 27.1467 110.155 26.848 110.624C26.592 111.093 26.272 111.328 25.888 111.328ZM23.776 72.096H23.712L23.584 72.16L23.776 72.224V72.096ZM40.3765 108C39.3952 108 38.8192 107.787 38.6485 107.36C38.4352 107.36 38.2645 107.381 38.1365 107.424H37.6245C36.6858 107.424 36.0885 107.211 35.8325 106.784C35.8325 106.485 36.0032 106.229 36.3445 106.016L36.6645 105.696H38.5205L38.7765 105.44L38.9045 104.864L38.9685 104.096C38.9685 101.493 38.9045 99.168 38.7765 97.12L38.6485 94.752L38.5205 90.08C38.5205 88.416 38.5845 85.92 38.7125 82.592L38.8405 75.168C38.8405 71.9253 38.7338 69.4507 38.5205 67.744C38.1365 67.616 37.4965 67.552 36.6005 67.552L35.8965 67.616C35.6405 67.6587 35.3632 67.68 35.0645 67.68C34.2538 67.68 33.8485 67.3173 33.8485 66.592C33.8485 66.4213 34.0405 66.2507 34.4245 66.08C34.8085 65.9093 35.1285 65.824 35.3845 65.824C37.0058 65.824 38.6272 65.9093 40.2485 66.08C41.2298 66.1227 42.2112 66.3147 43.1925 66.656C43.9605 66.912 44.3445 67.2747 44.3445 67.744C44.3445 67.8293 44.2805 68 44.1525 68.256L42.6805 68.384C42.3818 68.128 41.7632 68 40.8245 68L40.5045 68.192C40.6325 68.576 40.6965 69.7067 40.6965 71.584C40.6965 74.4 40.6752 76.9387 40.6325 79.2L40.5045 86.816C40.5045 88.736 40.5898 91.0613 40.7605 93.792C40.8885 96.9067 40.9525 99.2533 40.9525 100.832V101.664C40.9098 101.963 40.8885 102.347 40.8885 102.816C40.8885 103.797 40.9525 104.395 41.0805 104.608L41.0165 104.736C41.0165 105.163 41.4858 105.376 42.4245 105.376C42.8085 105.376 43.1285 105.355 43.3845 105.312H44.3445C45.5818 105.312 46.2005 105.611 46.2005 106.208C46.2005 106.592 46.0725 106.912 45.8165 107.168C45.5605 107.381 45.2192 107.488 44.7925 107.488C44.4085 107.488 44.0672 107.445 43.7685 107.36C43.4272 107.317 43.0645 107.296 42.6805 107.296C42.4245 107.296 42.0405 107.403 41.5285 107.616C41.0165 107.872 40.6325 108 40.3765 108ZM54.86 108C54.3053 108 53.9213 107.893 53.708 107.68C53.4947 107.424 53.388 107.019 53.388 106.464C53.004 86.1547 52.6413 74.4 52.3 71.2C52.172 70.3893 52.0227 69.1733 51.852 67.552C51.8093 66.9973 51.916 66.5707 52.172 66.272C52.4707 65.9307 52.8547 65.76 53.324 65.76C54.1347 65.76 54.54 66.3147 54.54 67.424C54.4973 68.9173 54.5827 72.9067 54.796 79.392C54.8813 81.7813 54.924 84.0213 54.924 86.112C54.924 88.9707 54.988 92.5547 55.116 96.864L55.564 103.008L56.076 102.368C57.2707 99.2533 58.764 95.2 60.556 90.208C62.348 85.216 63.4147 82.1867 63.756 81.12L64.588 79.072C65.2707 77.3653 65.8253 75.8507 66.252 74.528C66.508 73.76 66.8493 72.5227 67.276 70.816C67.6173 69.5787 67.9587 68.448 68.3 67.424C68.6413 66.3573 68.94 65.7173 69.196 65.504C69.3667 65.376 69.6013 65.2907 69.9 65.248C70.1987 65.1627 70.4547 65.1413 70.668 65.184C70.796 65.2267 70.924 65.376 71.052 65.632C71.18 65.8453 71.244 66.0587 71.244 66.272C71.2867 66.9973 71.2867 67.808 71.244 68.704C71.244 69.5573 71.244 70.3467 71.244 71.072V73.76C71.244 75.424 71.3293 77.92 71.5 81.248C71.5853 82.3147 71.6707 83.9573 71.756 86.176C71.7987 86.944 71.82 88.0747 71.82 89.568C71.82 91.872 71.7987 93.5787 71.756 94.688L71.692 99.872C71.692 101.92 71.756 103.968 71.884 106.016V106.144C71.884 106.443 71.7347 106.72 71.436 106.976C71.18 107.189 70.86 107.317 70.476 107.36C70.092 107.36 69.7507 107.253 69.452 107.04C69.196 106.784 69.0893 106.485 69.132 106.144L69.324 101.408L69.708 91.488V89.568C69.6227 86.2827 69.5587 82.4853 69.516 78.176C69.4733 73.824 69.4733 71.6053 69.516 71.52L69.068 71.456L64.652 83.68C60.812 94.5173 57.804 102.603 55.628 107.936L54.86 108ZM63.308 60.576C62.668 61.088 62.0067 61.344 61.324 61.344C60.428 61.344 59.5533 60.9173 58.7 60.064C58.4867 59.808 58.2733 59.552 58.06 59.296C57.8467 58.9973 57.74 58.6987 57.74 58.4C57.74 58.1867 57.804 57.952 57.932 57.696C58.5293 57.5253 58.8707 57.44 58.956 57.44C59.212 57.44 59.5533 57.7173 59.98 58.272C60.492 58.9547 60.876 59.296 61.132 59.296C61.3453 59.296 61.7507 59.0613 62.348 58.592C62.9027 58.1227 63.3293 57.6747 63.628 57.248C63.9267 56.8213 64.0547 56.2667 64.012 55.584C65.3347 55.8827 65.996 56.4373 65.996 57.248C65.996 57.7173 65.7827 58.1653 65.356 58.592C64.6307 59.4027 63.948 60.064 63.308 60.576ZM96.5315 108.448C95.7208 108.192 95.0168 107.829 94.4195 107.36C93.8648 106.891 93.3315 106.187 92.8195 105.248C91.9235 103.541 91.3902 101.088 91.2195 97.888C91.1342 96.4373 91.0915 95.1573 91.0915 94.048V86.752C91.0915 83.9787 91.1768 81.2907 91.3475 78.688C91.4755 76.768 91.6675 75.1467 91.9235 73.824C92.1795 72.5013 92.5848 71.1787 93.1395 69.856C93.7368 68.4907 94.3982 67.5307 95.1235 66.976C95.4222 66.72 95.9982 66.4213 96.8515 66.08C97.4062 65.8667 97.9395 65.632 98.4515 65.376H101.012H101.204C101.246 65.4187 101.31 65.44 101.396 65.44L101.716 65.504L101.972 65.696C102.1 65.824 102.164 65.9093 102.164 65.952C102.206 66.0373 102.228 66.1653 102.228 66.336L101.396 67.296H98.7075C97.8968 67.296 97.1502 67.7013 96.4675 68.512C95.8275 69.28 95.3368 70.2613 94.9955 71.456C94.6542 72.5227 94.3768 73.7813 94.1635 75.232C93.9502 76.6827 93.8222 77.9413 93.7795 79.008C93.6942 80.3733 93.6515 81.312 93.6515 81.824L93.5235 82.144C93.5235 84.5333 93.4808 86.688 93.3955 88.608L93.2675 95.072C93.2675 96.9493 93.3955 98.6773 93.6515 100.256C93.8648 101.963 94.4835 103.499 95.5075 104.864C96.4888 106.229 98.0035 106.912 100.052 106.912C100.692 106.912 101.225 106.72 101.652 106.336C102.292 106.336 102.612 106.571 102.612 107.04C102.612 107.339 102.334 107.68 101.78 108.064C101.268 108.491 100.734 108.811 100.18 109.024H98.0675L96.5315 108.448ZM116.702 109.216C111.71 109.216 109.214 101.365 109.214 85.664V83.424C109.214 71.52 110.75 65.568 113.822 65.568C114.035 65.568 114.334 65.632 114.718 65.76C116.083 66.2293 117.427 66.528 118.75 66.656C119.56 66.8267 120.371 67.6587 121.182 69.152C122.078 70.688 122.739 72.7147 123.166 75.232C123.635 77.7493 123.87 80.3307 123.87 82.976L123.742 83.296C123.742 84.704 123.763 85.9627 123.806 87.072L123.87 90.912C123.87 93.088 123.784 95.0507 123.614 96.8C123.358 99.4453 122.931 101.728 122.333 103.648C121.95 104.8 121.502 105.76 120.99 106.528C120.52 107.296 119.923 107.936 119.198 108.448C118.515 108.96 117.683 109.216 116.702 109.216ZM116.446 107.36C118.11 107.36 119.347 106.187 120.158 103.84C120.968 101.451 121.459 99.0187 121.63 96.544C121.8 93.984 121.885 91.936 121.885 90.4C121.885 88.6933 121.758 86.176 121.502 82.848C121.288 79.136 121.182 76.6187 121.182 75.296L120.926 74.784L121.054 74.464C121.054 72.5867 120.52 70.9653 119.454 69.6C118.43 68.2347 117.171 67.552 115.678 67.552C113.715 67.552 112.542 68.4907 112.158 70.368C112.072 71.008 111.987 71.9253 111.902 73.12C111.902 76.2773 111.774 78.432 111.518 79.584C111.518 80.224 111.454 81.2267 111.326 82.592L111.198 85.6C111.198 86.5387 111.219 87.3707 111.262 88.096L111.326 90.656C111.326 92.6613 111.496 94.9653 111.838 97.568C112.094 99.488 112.392 101.109 112.734 102.432C113.075 103.755 113.566 104.885 114.206 105.824C114.846 106.848 115.592 107.36 116.446 107.36ZM131.738 107.616C131.226 107.915 130.799 108.064 130.458 108.064C129.946 108.064 129.626 107.808 129.498 107.296V107.104C129.498 106.805 129.668 106.549 130.01 106.336C130.351 106.08 130.586 105.909 130.714 105.824C131.524 105.141 132.143 104.309 132.57 103.328C133.039 102.347 133.508 101.024 133.978 99.36C134.831 96.0747 135.258 92.32 135.258 88.096C135.258 87.0293 135.215 85.4293 135.13 83.296C135.002 80.6507 134.895 77.6 134.81 74.144C134.724 70.688 134.703 68.4907 134.746 67.552C134.703 67.552 134.639 67.5733 134.554 67.616C134.468 67.616 134.362 67.616 134.234 67.616C133.295 67.616 132.826 67.4027 132.826 66.976C132.826 66.5067 133.167 66.144 133.85 65.888C134.49 65.632 135.215 65.5253 136.026 65.568C136.836 65.568 137.37 65.568 137.626 65.568H140.698C142.148 65.568 142.959 65.5467 143.13 65.504C144.196 65.4187 144.964 65.5253 145.434 65.824C145.903 66.1227 146.138 66.6987 146.138 67.552C146.138 67.936 146.116 68.2347 146.074 68.448C145.903 69.6853 145.818 71.1147 145.818 72.736L145.882 77.28C145.882 79.8827 145.86 81.824 145.818 83.104L145.753 88.992V90.912C145.753 93.3867 145.882 97.1413 146.138 102.176C146.138 102.816 146.18 103.541 146.266 104.352C146.351 105.12 146.415 105.675 146.458 106.016V106.272C146.458 106.699 146.372 106.997 146.202 107.168C146.074 107.339 145.796 107.445 145.37 107.488H145.242C144.858 107.488 144.538 107.381 144.282 107.168C144.068 106.955 143.962 106.635 143.962 106.208L144.026 102.176C144.068 100.597 144.09 98.2293 144.09 95.072L143.898 78.24L143.962 74.272C143.962 72.5653 143.898 70.9227 143.77 69.344C143.77 69.088 143.642 68.576 143.385 67.808H136.41L136.666 72.864L136.858 76.576C137.028 82.6347 137.114 87.1787 137.114 90.208C137.028 94.816 136.367 99.0613 135.13 102.944C134.404 105.12 133.274 106.677 131.738 107.616ZM162.452 109.216C157.46 109.216 154.964 101.365 154.964 85.664V83.424C154.964 71.52 156.5 65.568 159.572 65.568C159.785 65.568 160.084 65.632 160.468 65.76C161.833 66.2293 163.177 66.528 164.5 66.656C165.31 66.8267 166.121 67.6587 166.932 69.152C167.828 70.688 168.489 72.7147 168.916 75.232C169.385 77.7493 169.62 80.3307 169.62 82.976L169.492 83.296C169.492 84.704 169.513 85.9627 169.556 87.072L169.62 90.912C169.62 93.088 169.534 95.0507 169.364 96.8C169.108 99.4453 168.681 101.728 168.083 103.648C167.7 104.8 167.252 105.76 166.74 106.528C166.27 107.296 165.673 107.936 164.948 108.448C164.265 108.96 163.433 109.216 162.452 109.216ZM162.196 107.36C163.86 107.36 165.097 106.187 165.908 103.84C166.718 101.451 167.209 99.0187 167.38 96.544C167.55 93.984 167.635 91.936 167.635 90.4C167.635 88.6933 167.508 86.176 167.252 82.848C167.038 79.136 166.932 76.6187 166.932 75.296L166.676 74.784L166.804 74.464C166.804 72.5867 166.27 70.9653 165.204 69.6C164.18 68.2347 162.921 67.552 161.428 67.552C159.465 67.552 158.292 68.4907 157.908 70.368C157.822 71.008 157.737 71.9253 157.652 73.12C157.652 76.2773 157.524 78.432 157.268 79.584C157.268 80.224 157.204 81.2267 157.076 82.592L156.948 85.6C156.948 86.5387 156.969 87.3707 157.012 88.096L157.076 90.656C157.076 92.6613 157.246 94.9653 157.588 97.568C157.844 99.488 158.142 101.109 158.484 102.432C158.825 103.755 159.316 104.885 159.956 105.824C160.596 106.848 161.342 107.36 162.196 107.36ZM193.424 113.696C192.784 113.568 192.528 113.163 192.656 112.48L192.976 110.816C193.189 109.877 193.296 109.024 193.296 108.256C191.845 108.128 190.394 108.064 188.944 108.064C187.109 108.064 185.125 108.149 182.992 108.32C180.901 108.533 178.853 108.747 176.848 108.96C176.506 109.301 176.336 109.749 176.336 110.304C176.336 110.347 176.4 110.752 176.528 111.52C176.613 111.861 176.656 112.096 176.656 112.224C176.656 112.608 176.421 112.864 175.952 112.992L175.696 113.056C175.354 113.056 175.034 112.949 174.736 112.736C174.437 112.523 174.266 112.267 174.224 111.968C174.053 110.176 173.968 108.832 173.968 107.936C173.968 107.552 174.117 107.275 174.416 107.104C174.757 106.891 175.098 106.805 175.44 106.848C176.336 106.891 176.976 106.677 177.36 106.208C177.744 105.739 178.085 105.056 178.384 104.16C179.237 101.003 179.77 98.6133 179.984 96.992C180.41 93.1947 180.688 90.2507 180.816 88.16C180.944 86.0267 181.029 83.552 181.072 80.736C181.072 80.0107 181.093 78.7733 181.135 77.024C181.178 75.2747 181.242 73.44 181.328 71.52C181.37 71.0933 181.349 70.4533 181.264 69.6C181.178 68.9173 181.135 68.4053 181.135 68.064C181.093 67.3813 181.2 66.912 181.456 66.656C181.754 66.4 182.245 66.272 182.928 66.272L190.16 66.08C190.672 66.08 191.077 66.2293 191.376 66.528C191.717 66.8267 191.866 67.232 191.824 67.744L191.248 80.736C190.992 84.832 190.864 87.9467 190.864 90.08C190.864 92.2987 190.949 94.8373 191.12 97.696C191.12 100.171 191.184 103.008 191.312 106.208C192.805 105.867 193.936 105.696 194.704 105.696C195.216 105.696 195.621 105.824 195.92 106.08C196.261 106.336 196.432 106.656 196.432 107.04C196.432 107.339 196.346 107.595 196.176 107.808C195.536 108.747 195.152 109.771 195.024 110.88C194.938 112.032 194.874 112.715 194.832 112.928C194.661 113.611 194.192 113.867 193.424 113.696ZM180.048 106.464C183.845 106.293 186.746 106.144 188.752 106.016C188.922 98.208 189.072 92.1707 189.2 87.904L189.392 81.696C189.477 78.88 189.52 76.8107 189.52 75.488C189.52 73.4827 189.498 71.776 189.456 70.368C189.456 69.7707 189.37 69.3653 189.2 69.152C189.029 68.9387 188.688 68.8107 188.176 68.768C187.706 68.7253 186.981 68.704 186 68.704H183.76C183.504 72.288 183.226 77.5147 182.928 84.384C182.629 91.04 182.416 94.9227 182.288 96.032C181.989 98.6347 181.69 100.597 181.392 101.92C181.136 103.243 180.688 104.757 180.048 106.464ZM202.887 108.832C202.119 108.832 201.692 108.384 201.607 107.488V106.656C201.649 106.443 201.671 106.187 201.671 105.888L201.415 105.632C201.756 104.736 201.927 103.861 201.927 103.008C201.927 102.027 201.863 100.619 201.735 98.784L201.607 94.56C201.607 92.4267 201.671 89.2267 201.799 84.96C201.969 81.1627 202.055 77.9413 202.055 75.296L201.927 71.456C201.841 70.304 201.799 69.024 201.799 67.616C201.799 66.976 201.948 66.528 202.247 66.272C202.545 65.9733 203.015 65.824 203.655 65.824C204.081 65.824 204.423 65.952 204.679 66.208C204.764 66.2507 205.383 66.336 206.535 66.464C207.601 66.592 208.519 66.784 209.287 67.04C210.097 67.296 210.503 67.616 210.503 68C210.503 68.4267 210.097 68.8533 209.287 69.28C206.855 68.4693 205.127 68.064 204.103 68.064L203.783 68.448C203.825 68.832 203.847 69.7493 203.847 71.2C203.847 73.0347 203.804 74.6773 203.719 76.128C203.676 77.6213 203.655 79.2853 203.655 81.12C203.655 82.3147 203.953 82.912 204.551 82.912L205.575 82.848C205.916 82.8053 206.279 82.784 206.663 82.784C208.327 82.784 209.159 83.168 209.159 83.936C209.159 84.4053 209.052 84.8107 208.839 85.152C208.625 85.4507 208.305 85.6 207.879 85.6C207.239 85.6 206.748 85.4293 206.407 85.088L204.359 84.768H204.039L203.719 85.088V85.28C203.804 86.0053 203.847 87.6907 203.847 90.336C203.847 92 203.825 93.5147 203.783 94.88L203.719 99.424C203.719 101.088 203.783 102.795 203.911 104.544C203.953 105.525 204.167 106.187 204.551 106.528C204.935 106.827 205.639 106.976 206.663 106.976L207.815 106.912C208.199 106.869 208.625 106.848 209.095 106.848C210.332 106.848 210.951 107.125 210.951 107.68C210.951 108.448 210.012 108.832 208.135 108.832H202.887ZM228.734 108.32C228.222 108.32 227.902 108.277 227.774 108.192C227.688 108.149 227.646 108 227.646 107.744C227.646 107.36 227.624 107.019 227.582 106.72C227.411 99.04 227.326 93.7707 227.326 90.912L227.134 90.656L227.39 90.08C227.39 89.312 227.304 88.5227 227.134 87.712L226.174 87.456C225.79 87.584 225.363 87.648 224.894 87.648C224.552 87.648 223.848 87.5413 222.782 87.328C222.056 87.1147 221.395 87.008 220.798 87.008L220.094 87.264C220.094 88.7573 220.072 90.1013 220.03 91.296C219.987 92.4907 219.966 93.8347 219.966 95.328L220.094 95.584C220.094 96.7787 220.158 98.5707 220.286 100.96C220.414 103.307 220.478 105.077 220.478 106.272C220.478 106.741 220.392 107.147 220.222 107.488C220.051 107.787 219.795 107.936 219.454 107.936C218.515 107.936 218.046 106.656 218.046 104.096C218.046 101.92 218.067 99.9573 218.11 98.208L218.174 92.384C218.174 88.5013 218.11 86.4107 217.982 86.112C218.195 85.6853 218.302 84.2773 218.302 81.888C218.302 79.84 218.216 77.344 218.046 74.4L217.918 71.904L217.79 66.912C217.79 66.6133 217.896 66.336 218.11 66.08C218.323 65.824 218.579 65.696 218.878 65.696C219.731 65.696 220.158 66.9333 220.158 69.408C220.158 72.3093 220.136 74.9333 220.094 77.28C220.008 79.6267 219.966 82.208 219.966 85.024C219.966 85.536 221.587 85.792 224.83 85.792H225.086C225.896 85.792 226.472 85.6427 226.814 85.344C227.198 85.0027 227.39 84.448 227.39 83.68C227.39 81.4187 227.24 78.4747 226.942 74.848C226.686 70.9227 226.558 67.9787 226.558 66.016C226.558 65.76 226.664 65.5467 226.878 65.376C227.091 65.1627 227.347 65.056 227.646 65.056L228.222 65.248C228.52 65.2907 228.712 65.3547 228.798 65.44C228.798 68.768 228.926 73.7387 229.182 80.352C229.438 87.008 229.566 92 229.566 95.328C229.566 98.656 229.779 102.752 230.206 107.616V108C229.822 108.213 229.331 108.32 228.734 108.32ZM225.534 84.896L225.662 85.024H225.534V84.896ZM241.223 108.128C240.37 108.128 239.751 107.936 239.367 107.552C239.026 107.168 238.855 106.507 238.855 105.568C238.812 103.221 238.791 99.7013 238.791 95.008L238.919 89.568C238.962 87.7333 239.004 85.472 239.047 82.784C239.09 80.096 239.111 76.96 239.111 73.376C239.111 72.0533 238.983 70.1547 238.727 67.68V67.36C238.727 66.7627 238.812 66.3573 238.983 66.144C239.154 65.888 239.452 65.76 239.879 65.76C240.434 65.76 240.86 65.9307 241.159 66.272C241.5 66.5707 241.65 66.9973 241.607 67.552C241.522 72.928 241.436 76.9387 241.351 79.584C241.223 81.504 241.159 83.36 241.159 85.152H242.759C245.063 85.2373 246.791 86.1973 247.943 88.032C249.394 90.3787 250.119 92.9173 250.119 95.648C250.119 97.8667 249.756 99.872 249.031 101.664C248.348 103.413 247.26 104.992 245.767 106.4C244.615 107.552 243.1 108.128 241.223 108.128ZM241.351 105.568C242.247 105.611 243.164 105.376 244.103 104.864C245.042 104.309 245.746 103.648 246.215 102.88C247.495 100.704 248.135 98.4213 248.135 96.032C248.135 93.472 247.602 91.36 246.535 89.696C245.511 87.9893 243.719 87.1573 241.159 87.2C241.031 89.12 240.967 91.0187 240.967 92.896C240.967 94.7733 241.052 97.5893 241.223 101.344C241.223 102.283 241.266 103.691 241.351 105.568ZM265.055 108.448C264.159 108.192 263.455 107.765 262.943 107.168C262.473 106.528 262.111 105.717 261.855 104.736C261.556 103.541 261.364 102.347 261.279 101.152C261.236 99.9147 261.215 98.3787 261.215 96.544C261.215 95.1787 261.193 94.1547 261.151 93.472C261.151 92.3627 261.023 91.232 260.767 90.08C260.681 89.4827 260.468 89.056 260.127 88.8C259.828 88.544 259.252 88.3733 258.399 88.288L258.335 90.208C258.249 91.9147 258.207 93.1733 258.207 93.984C258.207 94.9653 258.249 96.3947 258.335 98.272L258.399 100.384L258.847 106.144L258.911 106.784C258.911 107.253 258.719 107.573 258.335 107.744C258.079 107.872 257.844 107.936 257.631 107.936C257.289 107.936 257.012 107.851 256.799 107.68C256.585 107.467 256.457 107.168 256.415 106.784C256.372 106.315 256.372 105.781 256.415 105.184C256.5 104.587 256.543 104.181 256.543 103.968L256.607 101.408C256.692 99.104 256.735 97.4187 256.735 96.352L256.671 92.384C256.585 88.8853 256.543 86.2613 256.543 84.512V82.592C256.543 80.5867 256.628 77.8347 256.799 74.336L256.927 70.752L256.863 68.064C256.863 67.1253 256.969 66.5493 257.183 66.336C257.311 66.208 257.46 66.144 257.631 66.144C257.844 66.144 258.057 66.208 258.271 66.336C258.527 66.464 258.719 66.6133 258.847 66.784C259.017 66.9973 259.103 67.3173 259.103 67.744L259.039 68.512L258.783 76.192C258.569 81.0133 258.463 84.0213 258.463 85.216C258.975 85.344 259.359 85.3013 259.615 85.088C259.913 84.8747 260.191 84.5333 260.447 84.064C261.428 82.1867 262.025 79.904 262.239 77.216L262.943 69.152C263.028 68.256 263.412 67.4453 264.095 66.72C264.82 65.9947 265.631 65.5467 266.527 65.376C266.655 65.3333 266.847 65.312 267.103 65.312C267.657 65.312 268.105 65.4827 268.447 65.824C269.001 66.2933 269.151 66.72 268.895 67.104C268.809 67.2747 268.617 67.488 268.319 67.744C268.02 68 267.807 68.128 267.679 68.128C266.484 68.2987 265.695 68.576 265.311 68.96C264.969 69.3013 264.735 70.0907 264.607 71.328C264.479 72.3947 264.329 74.144 264.159 76.576C264.031 78.7947 263.647 80.9493 263.007 83.04C262.879 83.5093 262.729 83.9787 262.559 84.448C262.431 84.8747 262.217 85.2373 261.919 85.536C261.279 86.176 260.489 86.5387 259.551 86.624C259.593 86.7093 259.828 86.8587 260.255 87.072C260.724 87.2427 261.001 87.3493 261.087 87.392C261.727 87.8187 262.132 88.288 262.303 88.8C262.516 89.312 262.687 90.08 262.815 91.104C262.943 91.872 263.007 92.7253 263.007 93.664C263.007 94.6027 263.007 95.1787 263.007 95.392C263.049 97.3973 263.22 99.6373 263.519 102.112C263.519 102.411 263.561 102.901 263.647 103.584C263.945 105.376 264.863 106.251 266.399 106.208H266.975C267.487 106.208 267.828 106.336 267.999 106.592C268.084 106.763 268.127 106.912 268.127 107.04C268.127 107.381 267.999 107.723 267.743 108.064C267.359 108.448 266.847 108.64 266.207 108.64C265.78 108.64 265.396 108.576 265.055 108.448ZM277.798 108C277.243 108 276.859 107.893 276.646 107.68C276.432 107.424 276.326 107.019 276.326 106.464C275.942 86.1547 275.579 74.4 275.238 71.2C275.11 70.3893 274.96 69.1733 274.79 67.552C274.747 66.9973 274.854 66.5707 275.11 66.272C275.408 65.9307 275.792 65.76 276.262 65.76C277.072 65.76 277.478 66.3147 277.478 67.424C277.435 68.9173 277.52 72.9067 277.734 79.392C277.819 81.7813 277.862 84.0213 277.862 86.112C277.862 88.9707 277.926 92.5547 278.054 96.864L278.502 103.008L279.014 102.368C280.208 99.2533 281.702 95.2 283.494 90.208C285.286 85.216 286.352 82.1867 286.694 81.12L287.526 79.072C288.208 77.3653 288.763 75.8507 289.19 74.528C289.446 73.76 289.787 72.5227 290.214 70.816C290.555 69.5787 290.896 68.448 291.238 67.424C291.579 66.3573 291.878 65.7173 292.134 65.504C292.304 65.376 292.539 65.2907 292.838 65.248C293.136 65.1627 293.392 65.1413 293.606 65.184C293.734 65.2267 293.862 65.376 293.99 65.632C294.118 65.8453 294.182 66.0587 294.182 66.272C294.224 66.9973 294.224 67.808 294.182 68.704C294.182 69.5573 294.182 70.3467 294.182 71.072V73.76C294.182 75.424 294.267 77.92 294.438 81.248C294.523 82.3147 294.608 83.9573 294.694 86.176C294.736 86.944 294.758 88.0747 294.758 89.568C294.758 91.872 294.736 93.5787 294.694 94.688L294.63 99.872C294.63 101.92 294.694 103.968 294.822 106.016V106.144C294.822 106.443 294.672 106.72 294.374 106.976C294.118 107.189 293.798 107.317 293.414 107.36C293.03 107.36 292.688 107.253 292.39 107.04C292.134 106.784 292.027 106.485 292.07 106.144L292.262 101.408L292.646 91.488V89.568C292.56 86.2827 292.496 82.4853 292.454 78.176C292.411 73.824 292.411 71.6053 292.454 71.52L292.006 71.456L287.59 83.68C283.75 94.5173 280.742 102.603 278.566 107.936L277.798 108ZM306.548 108C305.993 108 305.609 107.893 305.396 107.68C305.182 107.424 305.076 107.019 305.076 106.464C304.692 86.1547 304.329 74.4 303.988 71.2C303.86 70.3893 303.71 69.1733 303.54 67.552C303.497 66.9973 303.604 66.5707 303.86 66.272C304.158 65.9307 304.542 65.76 305.012 65.76C305.822 65.76 306.228 66.3147 306.228 67.424C306.185 68.9173 306.27 72.9067 306.484 79.392C306.569 81.7813 306.612 84.0213 306.612 86.112C306.612 88.9707 306.676 92.5547 306.804 96.864L307.252 103.008L307.764 102.368C308.958 99.2533 310.452 95.2 312.244 90.208C314.036 85.216 315.102 82.1867 315.444 81.12L316.276 79.072C316.958 77.3653 317.513 75.8507 317.94 74.528C318.196 73.76 318.537 72.5227 318.964 70.816C319.305 69.5787 319.646 68.448 319.988 67.424C320.329 66.3573 320.628 65.7173 320.884 65.504C321.054 65.376 321.289 65.2907 321.588 65.248C321.886 65.1627 322.142 65.1413 322.356 65.184C322.484 65.2267 322.612 65.376 322.74 65.632C322.868 65.8453 322.932 66.0587 322.932 66.272C322.974 66.9973 322.974 67.808 322.932 68.704C322.932 69.5573 322.932 70.3467 322.932 71.072V73.76C322.932 75.424 323.017 77.92 323.188 81.248C323.273 82.3147 323.358 83.9573 323.444 86.176C323.486 86.944 323.508 88.0747 323.508 89.568C323.508 91.872 323.486 93.5787 323.444 94.688L323.38 99.872C323.38 101.92 323.444 103.968 323.572 106.016V106.144C323.572 106.443 323.422 106.72 323.124 106.976C322.868 107.189 322.548 107.317 322.164 107.36C321.78 107.36 321.438 107.253 321.14 107.04C320.884 106.784 320.777 106.485 320.82 106.144L321.012 101.408L321.396 91.488V89.568C321.31 86.2827 321.246 82.4853 321.204 78.176C321.161 73.824 321.161 71.6053 321.204 71.52L320.756 71.456L316.34 83.68C312.5 94.5173 309.492 102.603 307.316 107.936L306.548 108ZM314.996 60.576C314.356 61.088 313.694 61.344 313.012 61.344C312.116 61.344 311.241 60.9173 310.388 60.064C310.174 59.808 309.961 59.552 309.748 59.296C309.534 58.9973 309.428 58.6987 309.428 58.4C309.428 58.1867 309.492 57.952 309.62 57.696C310.217 57.5253 310.558 57.44 310.644 57.44C310.9 57.44 311.241 57.7173 311.668 58.272C312.18 58.9547 312.564 59.296 312.82 59.296C313.033 59.296 313.438 59.0613 314.036 58.592C314.59 58.1227 315.017 57.6747 315.316 57.248C315.614 56.8213 315.742 56.2667 315.7 55.584C317.022 55.8827 317.684 56.4373 317.684 57.248C317.684 57.7173 317.47 58.1653 317.044 58.592C316.318 59.4027 315.636 60.064 314.996 60.576Z" fill="#BE6A3A"/>
</svg>
