<svg width="63" height="80" viewBox="0 0 63 80" fill="none" xmlns="http://www.w3.org/2000/svg">
<g clip-path="url(#clip0_2217_1229)">
<path d="M3.83901 79.8432V70.8554H0.777832V69.083H9.19572V70.8554H6.11915V79.8432L3.83901 79.8432Z" fill="#494A4C"/>
<path d="M30.6147 79.8432V69.083H32.8949V74.2279L37.0024 69.083H39.4386L35.8622 73.5533L39.6104 79.8432H37.0492L34.3785 75.3101L32.8949 77.0511V79.8432H30.6147Z" fill="#494A4C"/>
<path d="M39.7661 79.8432L43.7018 69.083H46.4192L50.3393 79.8432H47.9653L47.1377 77.6159H42.7959L41.9682 79.8432H39.7661ZM43.3583 75.9689H46.5599L44.998 71.4986H44.9356L43.3583 75.9689Z" fill="#494A4C"/>
<path d="M29.4574 79.051C29.3477 78.9378 29.2649 78.801 29.2153 78.651C29.1522 78.4629 29.1103 78.2682 29.0904 78.0707C29.0624 77.8076 29.0493 77.5431 29.0514 77.2786C29.0586 76.9162 29.0031 76.5553 28.8873 76.212C28.8029 75.9715 28.6846 75.7444 28.5358 75.5379C28.46 75.4269 28.3776 75.3206 28.2889 75.2198C28.2839 75.214 28.2806 75.2074 28.2754 75.2016C28.0494 74.9472 27.7983 74.7164 27.5259 74.5127C28.1755 74.2041 28.6961 73.6756 28.9967 73.02C29.1717 72.6336 29.2596 72.2132 29.2543 71.7887C29.268 71.2812 29.1233 70.7822 28.8405 70.3613C28.5678 69.9668 28.1996 69.6484 27.7707 69.4359C27.3294 69.2154 26.8425 69.1025 26.3496 69.1065H20.9645V73.772C20.2595 73.9556 19.5429 74.0909 18.8197 74.1769C18.8233 73.92 18.8269 73.6631 18.8304 73.4061C18.8988 72.5332 18.7372 71.6577 18.3618 70.8675C18.144 70.4781 17.8406 70.1437 17.4748 69.8897C17.109 69.6357 16.6904 69.4687 16.2507 69.4015C15.8111 69.3342 15.3619 69.3684 14.9374 69.5016C14.5129 69.6347 14.1242 69.8632 13.8008 70.1698C13.2623 70.7794 12.9394 71.5506 12.8824 72.3636C12.8254 73.1765 13.0374 73.9855 13.4854 74.665C13.8274 75.1619 14.2735 75.5776 14.7924 75.8829C15.3114 76.1883 15.8906 76.3758 16.4894 76.4324C16.494 76.6822 16.4468 76.9301 16.3507 77.1605C16.2546 77.3909 16.1118 77.5987 15.9313 77.7705C15.7508 77.9424 15.5367 78.0746 15.3025 78.1586C15.0683 78.2427 14.8192 78.2769 14.5712 78.2589C14.3124 78.2722 14.0537 78.2325 13.8107 78.1421C13.5677 78.0518 13.3456 77.9128 13.1578 77.7335C12.9821 77.5526 12.8451 77.3375 12.7551 77.1015C12.6651 76.8655 12.6241 76.6135 12.6346 76.361V69.083H10.3544V76.3924C10.3397 77.0566 10.5042 77.7124 10.8306 78.2903C11.1486 78.8346 11.6182 79.2736 12.1816 79.553C12.8289 79.8653 13.541 80.0185 14.2589 80H14.696C15.4262 80.0155 16.1501 79.8625 16.8122 79.553C17.3989 79.2747 17.8966 78.8374 18.2491 78.2903C18.5852 77.7545 18.7653 77.1349 18.769 76.5016C19.5074 76.4202 20.2405 76.2959 20.9645 76.1292V79.8667H23.2104V75.6295C23.4368 75.6 23.665 75.5867 23.8932 75.5898C25.919 75.6396 26.4642 76.5734 26.5946 76.7892C26.6292 76.8581 26.6628 76.9305 26.6945 77.0117C26.7702 77.3196 26.8064 77.636 26.8024 77.9531C26.7806 78.3791 26.861 78.804 27.0367 79.1923C27.1705 79.4637 27.3941 79.6799 27.6692 79.8039C27.9588 79.9236 28.2698 79.9824 28.5829 79.9765C28.8102 79.9766 29.0372 79.9609 29.2623 79.9295C29.4637 79.9042 29.6607 79.8514 29.8479 79.7725V79.2863C29.7011 79.2399 29.5673 79.1593 29.4574 79.051ZM16.5554 73.6334C16.5518 73.796 16.5502 73.9585 16.5476 74.1211C16.2663 74.1147 15.994 74.0203 15.7686 73.851C15.5618 73.7005 15.3982 73.4979 15.2942 73.2637C15.1898 73.0267 15.1437 72.7679 15.1598 72.5093C15.1598 71.697 15.7673 71.4552 16.1514 71.7446C16.2484 71.8152 16.329 71.9059 16.3878 72.0107C16.5162 72.3248 16.5742 72.6634 16.5578 73.0026C16.5635 73.2128 16.56 73.4232 16.5554 73.6334ZM23.2103 70.8476H25.6467C25.9945 70.8339 26.3338 70.9578 26.5916 71.1927C26.7168 71.317 26.8142 71.4665 26.8775 71.6315C26.9408 71.7965 26.9684 71.9731 26.9586 72.1496C26.9609 72.4417 26.8995 72.7308 26.7789 72.9966C26.6709 73.2423 26.5079 73.4597 26.3026 73.6318C26.2391 73.6827 26.1701 73.7263 26.0971 73.7619C25.164 73.4708 24.1838 73.3639 23.2103 73.4471V70.8476Z" fill="#494A4C"/>
<path d="M63 27.4983C57.409 28.6567 52.8749 29.8779 50.4217 29.8734C50.4437 28.3665 50.4648 26.8596 50.485 25.3527C50.5509 20.1907 50.1728 14.6092 47.7371 10.4652C42.1423 0.946478 28.8636 -1.63371 20.9887 6.37369C14.1698 13.3074 14.0759 24.7668 19.1393 32.7354C23.199 39.1245 29.747 41.9974 36.7559 43.1007C36.7698 45.9242 35.6923 48.643 33.7502 50.6846C31.7345 52.7703 28.9867 53.8128 25.5068 53.812C22.0269 53.812 19.2641 52.7848 17.2183 50.7306C15.1708 48.6767 14.1479 45.9938 14.1496 42.6818V0H0.777805V42.8657C0.691296 46.7609 1.65642 50.607 3.57076 53.9958C5.43534 57.188 8.18936 59.7623 11.4932 61.4012C14.9121 63.1487 18.9728 64.0225 23.6753 64.0225H26.2389C30.5208 64.1131 34.7663 63.2163 38.6491 61.4012C42.0899 59.7692 45.0084 57.2044 47.0756 53.9958C49.0467 50.8535 50.1029 47.2199 50.1246 43.5061C54.1363 43.1994 59.6363 42.0327 63.0001 41.3222L63 27.4983ZM37.1433 26.6859C37.1223 27.639 37.1133 28.5923 37.0976 29.5455C35.4478 29.5082 33.8507 28.9545 32.5293 27.9617C31.3165 27.0793 30.3568 25.8911 29.7473 24.5172C29.4685 23.904 28.9585 22.7854 28.9585 20.0933C28.9585 15.3298 32.5214 13.9117 34.7744 15.6089C35.3429 16.0228 35.8158 16.555 36.1608 17.1693C37.2873 19.4402 37.1409 22.3592 37.1578 22.9861C37.1909 24.2192 37.1705 25.4528 37.1433 26.6859Z" fill="#494A4C"/>
</g>
<defs>
<clipPath id="clip0_2217_1229">
<rect width="62.2222" height="80" fill="white" transform="translate(0.777832)"/>
</clipPath>
</defs>
</svg>
