<svg width="94" height="120" viewBox="0 0 94 120" fill="none" xmlns="http://www.w3.org/2000/svg">
<g clip-path="url(#clip0_2217_1323)">
<path d="M4.92515 119.765V106.283H0.333374V103.625H12.9602V106.283H8.34535V119.765L4.92515 119.765Z" fill="#494A4C"/>
<path d="M45.0886 119.765V103.625H48.5087V111.342L54.67 103.625H58.3243L52.9598 110.33L58.5821 119.765H54.7402L50.7343 112.965L48.5087 115.577V119.765H45.0886Z" fill="#494A4C"/>
<path d="M58.8161 119.765L64.7196 103.625H68.7958L74.6759 119.765H71.1149L69.8735 116.424H63.3607L62.1193 119.765H58.8161ZM64.2043 113.953H69.0068L66.6639 107.248H66.5703L64.2043 113.953Z" fill="#494A4C"/>
<path d="M43.3527 118.577C43.1881 118.407 43.0639 118.202 42.9895 117.977C42.8948 117.694 42.8319 117.402 42.8021 117.106C42.76 116.711 42.7405 116.315 42.7436 115.918C42.7544 115.374 42.6711 114.833 42.4975 114.318C42.3709 113.957 42.1933 113.617 41.9701 113.307C41.8565 113.14 41.7329 112.981 41.5998 112.83C41.5923 112.821 41.5873 112.811 41.5797 112.802C41.2406 112.421 40.8639 112.075 40.4554 111.769C41.4297 111.306 42.2107 110.513 42.6615 109.53C42.924 108.95 43.056 108.32 43.048 107.683C43.0685 106.922 42.8514 106.173 42.4273 105.542C42.0181 104.95 41.466 104.473 40.8226 104.154C40.1606 103.823 39.4303 103.654 38.6909 103.66H30.6132V110.658C29.5557 110.933 28.4809 111.136 27.396 111.265C27.4015 110.88 27.4068 110.495 27.4121 110.109C27.5146 108.8 27.2723 107.487 26.7093 106.301C26.3824 105.717 25.9274 105.216 25.3787 104.835C24.83 104.454 24.2021 104.203 23.5426 104.102C22.8831 104.001 22.2094 104.053 21.5727 104.252C20.9359 104.452 20.3528 104.795 19.8677 105.255C19.0599 106.169 18.5757 107.326 18.4901 108.545C18.4046 109.765 18.7226 110.978 19.3946 111.997C19.9076 112.743 20.5767 113.366 21.3551 113.824C22.1335 114.282 23.0024 114.564 23.9006 114.649C23.9075 115.023 23.8367 115.395 23.6926 115.741C23.5485 116.086 23.3342 116.398 23.0635 116.656C22.7927 116.914 22.4715 117.112 22.1202 117.238C21.7689 117.364 21.3953 117.415 21.0233 117.388C20.6351 117.408 20.247 117.349 19.8825 117.213C19.5181 117.078 19.1849 116.869 18.9033 116.6C18.6397 116.329 18.4341 116.006 18.2991 115.652C18.1642 115.298 18.1027 114.92 18.1184 114.541V103.625H14.6981V114.589C14.676 115.585 14.9229 116.569 15.4125 117.435C15.8894 118.252 16.5939 118.91 17.4389 119.33C18.4099 119.798 19.4779 120.028 20.5548 120H21.2105C22.3057 120.023 23.3917 119.794 24.3848 119.33C25.2649 118.912 26.0114 118.256 26.5402 117.435C27.0443 116.632 27.3144 115.702 27.32 114.752C28.4276 114.63 29.5272 114.444 30.6133 114.194V119.8H33.9821V113.444C34.3217 113.4 34.664 113.38 35.0064 113.385C38.045 113.459 38.8628 114.86 39.0585 115.184C39.1103 115.287 39.1607 115.396 39.2083 115.517C39.3218 115.979 39.3761 116.454 39.3702 116.93C39.3374 117.569 39.4579 118.206 39.7216 118.788C39.9223 119.195 40.2577 119.52 40.6703 119.706C41.1047 119.885 41.5712 119.974 42.0409 119.965C42.3818 119.965 42.7223 119.941 43.0599 119.894C43.3621 119.856 43.6576 119.777 43.9384 119.659V118.929C43.7182 118.86 43.5175 118.739 43.3527 118.577ZM23.9996 110.45C23.9942 110.694 23.9918 110.938 23.9879 111.182C23.5659 111.172 23.1574 111.03 22.8195 110.776C22.5092 110.551 22.2637 110.247 22.1078 109.895C21.9512 109.54 21.8821 109.152 21.9062 108.764C21.9062 107.546 22.8175 107.183 23.3937 107.617C23.5391 107.723 23.66 107.859 23.7482 108.016C23.9408 108.487 24.0278 108.995 24.0032 109.504C24.0118 109.819 24.0065 110.135 23.9996 110.45ZM33.9819 106.271H37.6366C38.1583 106.251 38.6672 106.437 39.0539 106.789C39.2417 106.975 39.3878 107.2 39.4827 107.447C39.5776 107.695 39.6191 107.96 39.6043 108.224C39.6078 108.663 39.5158 109.096 39.3349 109.495C39.1729 109.863 38.9284 110.19 38.6204 110.448C38.5251 110.524 38.4217 110.589 38.3121 110.643C36.9126 110.206 35.4421 110.046 33.9819 110.171V106.271Z" fill="#494A4C"/>
<path d="M93.6666 41.2474C85.2801 42.9851 78.4789 44.8168 74.7991 44.8101C74.832 42.5498 74.8637 40.2894 74.8941 38.0291C74.9929 30.286 74.4257 21.9138 70.7721 15.6978C62.38 1.41972 42.462 -2.45057 30.6496 9.56054C20.4213 19.9611 20.2804 37.1502 27.8754 49.1032C33.9651 58.6867 43.7871 62.9961 54.3004 64.651C54.3213 68.8863 52.705 72.9645 49.7919 76.0269C46.7683 79.1555 42.6466 80.7192 37.4268 80.718C32.2069 80.718 28.0626 79.1773 24.9939 76.0959C21.9228 73.0151 20.3884 68.9907 20.3909 64.0227V0H0.333243V64.2985C0.203478 70.1414 1.65117 75.9105 4.52267 80.9937C7.31954 85.782 11.4506 89.6434 16.4064 92.1018C21.5347 94.7231 27.6258 96.0337 34.6795 96.0337H38.5249C44.9477 96.1696 51.316 94.8245 57.1402 92.1018C62.3014 89.6538 66.6791 85.8066 69.7799 80.9937C72.7366 76.2803 74.3208 70.8299 74.3535 65.2592C80.371 64.7991 88.621 63.0491 93.6666 61.9833L93.6666 41.2474ZM54.8815 40.0288C54.85 41.4586 54.8365 42.8884 54.8129 44.3182C52.3382 44.2622 49.9426 43.4317 47.9605 41.9426C46.1412 40.6189 44.7018 38.8367 43.7875 36.7758C43.3693 35.8559 42.6043 34.1781 42.6043 30.1399C42.6043 22.9947 47.9486 20.8675 51.3281 23.4134C52.1809 24.0342 52.8902 24.8326 53.4077 25.7539C55.0975 29.1604 54.8779 33.5387 54.9032 34.4791C54.9529 36.3288 54.9223 38.1793 54.8815 40.0288Z" fill="#494A4C"/>
</g>
<defs>
<clipPath id="clip0_2217_1323">
<rect width="93.3333" height="120" fill="white" transform="translate(0.333344)"/>
</clipPath>
</defs>
</svg>
