<svg width="25" height="24" viewBox="0 0 25 24" fill="none" xmlns="http://www.w3.org/2000/svg">
<path d="M12.6667 16C13.7276 16 14.745 15.5786 15.4951 14.8284C16.2453 14.0783 16.6667 13.0609 16.6667 12C16.6667 10.9391 16.2453 9.92172 15.4951 9.17157C14.745 8.42143 13.7276 8 12.6667 8C11.6058 8 10.5884 8.42143 9.83826 9.17157C9.08811 9.92172 8.66669 10.9391 8.66669 12C8.66669 13.0609 9.08811 14.0783 9.83826 14.8284C10.5884 15.5786 11.6058 16 12.6667 16Z" stroke="#494A4C" stroke-width="2" stroke-linecap="round" stroke-linejoin="round"/>
<path d="M3.66669 16V8C3.66669 6.67392 4.19347 5.40215 5.13115 4.46447C6.06884 3.52678 7.3406 3 8.66669 3H16.6667C17.9928 3 19.2645 3.52678 20.2022 4.46447C21.1399 5.40215 21.6667 6.67392 21.6667 8V16C21.6667 17.3261 21.1399 18.5979 20.2022 19.5355C19.2645 20.4732 17.9928 21 16.6667 21H8.66669C7.3406 21 6.06884 20.4732 5.13115 19.5355C4.19347 18.5979 3.66669 17.3261 3.66669 16Z" stroke="#494A4C" stroke-width="2"/>
<path d="M18.1667 6.51037L18.177 6.49902" stroke="#494A4C" stroke-width="2" stroke-linecap="round" stroke-linejoin="round"/>
</svg>
