<svg width="25" height="24" viewBox="0 0 25 24" fill="none" xmlns="http://www.w3.org/2000/svg">
<path d="M12.6667 2.25C8.94012 2.25 5.91669 5.12766 5.91669 8.67188C5.91669 12.75 10.4167 19.2127 12.069 21.4448C12.1376 21.5391 12.2275 21.6157 12.3314 21.6686C12.4352 21.7215 12.5501 21.749 12.6667 21.749C12.7832 21.749 12.8981 21.7215 13.002 21.6686C13.1059 21.6157 13.1958 21.5391 13.2643 21.4448C14.9167 19.2136 19.4167 12.7533 19.4167 8.67188C19.4167 5.12766 16.3932 2.25 12.6667 2.25Z" stroke="#494A4C" stroke-width="2" stroke-linecap="round" stroke-linejoin="round"/>
<path d="M12.6667 11.25C13.9093 11.25 14.9167 10.2426 14.9167 9C14.9167 7.75736 13.9093 6.75 12.6667 6.75C11.424 6.75 10.4167 7.75736 10.4167 9C10.4167 10.2426 11.424 11.25 12.6667 11.25Z" stroke="#494A4C" stroke-width="2" stroke-linecap="round" stroke-linejoin="round"/>
</svg>
