<svg width="359" height="460" viewBox="0 0 359 460" fill="none" xmlns="http://www.w3.org/2000/svg">
<g clip-path="url(#clip0_98_895)">
<path d="M17.6619 459.098V407.419H0V397.227H48.5682V407.419H30.8175V459.098L17.6619 459.098Z" fill="white"/>
<path d="M172.147 459.098V397.227H185.303V426.81L209.002 397.227H223.058L202.423 422.932L224.049 459.098H209.272L193.863 433.033L185.303 443.044V459.098H172.147Z" fill="white"/>
<path d="M224.95 459.098L247.657 397.227H263.336L285.953 459.098H272.256L267.481 446.291H242.43L237.655 459.098H224.95ZM245.675 436.821H264.147L255.136 411.117H254.776L245.675 436.821Z" fill="white"/>
<path d="M165.471 454.543C164.838 453.892 164.36 453.106 164.074 452.244C163.71 451.162 163.468 450.042 163.353 448.906C163.191 447.394 163.116 445.873 163.128 444.352C163.17 442.268 162.849 440.193 162.181 438.219C161.695 436.836 161.012 435.531 160.153 434.343C159.716 433.704 159.241 433.094 158.729 432.514C158.7 432.48 158.681 432.443 158.651 432.409C157.347 430.946 155.898 429.619 154.327 428.448C158.074 426.673 161.078 423.635 162.812 419.865C163.822 417.643 164.33 415.226 164.299 412.785C164.378 409.867 163.543 406.997 161.912 404.578C160.338 402.309 158.214 400.478 155.739 399.257C153.193 397.988 150.384 397.34 147.54 397.362H116.47V424.189C112.402 425.245 108.268 426.023 104.095 426.517C104.116 425.04 104.136 423.563 104.157 422.085C104.551 417.066 103.619 412.032 101.453 407.488C100.196 405.249 98.4459 403.326 96.3353 401.866C94.2248 400.405 91.8096 399.445 89.2729 399.058C86.7363 398.672 84.1449 398.869 81.6957 399.634C79.2464 400.4 77.0035 401.714 75.1375 403.476C72.0306 406.982 70.1679 411.416 69.8388 416.09C69.5098 420.765 70.7329 425.417 73.318 429.324C75.291 432.181 77.8648 434.571 80.8589 436.327C83.8531 438.083 87.1949 439.161 90.6497 439.486C90.6766 440.922 90.4042 442.348 89.8498 443.673C89.2955 444.998 88.4713 446.192 87.43 447.181C86.3886 448.169 85.153 448.929 83.8018 449.412C82.4507 449.896 81.0136 450.092 79.5824 449.989C78.0895 450.065 76.5966 449.837 75.1947 449.317C73.7928 448.798 72.5113 447.998 71.428 446.967C70.4142 445.927 69.6234 444.691 69.1043 443.334C68.5851 441.977 68.3485 440.528 68.409 439.076V397.227H55.2533V439.256C55.1682 443.075 56.1177 446.846 58.0008 450.169C59.8354 453.299 62.545 455.823 65.7955 457.43C69.5304 459.226 73.6385 460.107 77.7806 460H80.3028C84.5154 460.089 88.6923 459.21 92.5123 457.43C95.8975 455.83 98.7689 453.315 100.803 450.169C102.742 447.088 103.781 443.526 103.803 439.884C108.063 439.416 112.292 438.701 116.47 437.743V459.233H129.428V434.87C130.734 434.7 132.05 434.623 133.367 434.641C145.055 434.928 148.201 440.297 148.954 441.538C149.153 441.934 149.347 442.351 149.53 442.817C149.966 444.588 150.175 446.407 150.152 448.23C150.027 450.68 150.49 453.123 151.504 455.356C152.276 456.916 153.566 458.159 155.154 458.872C156.824 459.561 158.619 459.899 160.425 459.865C161.736 459.865 163.046 459.775 164.345 459.594C165.507 459.449 166.644 459.145 167.724 458.692V455.896C166.877 455.629 166.105 455.166 165.471 454.543ZM91.0306 423.392C91.0098 424.327 91.0008 425.262 90.9856 426.196C89.3625 426.16 87.7914 425.617 86.4914 424.643C85.298 423.778 84.3539 422.613 83.7541 421.266C83.1518 419.903 82.8858 418.416 82.9785 416.928C82.9785 412.258 86.4837 410.868 88.7 412.532C89.2594 412.937 89.7245 413.459 90.0638 414.061C90.8043 415.868 91.1392 417.815 91.0447 419.765C91.0774 420.974 91.0572 422.183 91.0306 423.392ZM129.427 407.374H143.484C145.491 407.295 147.449 408.007 148.936 409.358C149.658 410.073 150.22 410.933 150.585 411.881C150.951 412.83 151.11 413.845 151.053 414.86C151.066 416.54 150.713 418.202 150.017 419.73C149.394 421.143 148.453 422.393 147.268 423.383C146.902 423.675 146.504 423.926 146.083 424.131C140.699 422.457 135.044 421.843 129.427 422.321V407.374Z" fill="white"/>
<path d="M359 158.115C326.742 164.776 300.582 171.798 286.428 171.772C286.554 163.107 286.676 154.443 286.793 145.778C287.173 116.096 284.992 84.0028 270.938 60.1747C238.659 5.44225 162.045 -9.39385 116.61 36.6487C77.2674 76.5174 76.7254 142.409 105.939 188.229C129.363 224.966 167.142 241.485 207.581 247.829C207.661 264.064 201.444 279.697 190.239 291.437C178.609 303.43 162.755 309.424 142.678 309.419C122.6 309.419 106.659 303.513 94.8556 291.701C83.0427 279.891 77.141 264.464 77.1503 245.42V0H7.4191e-05V246.478C-0.499057 268.875 5.06938 290.99 16.1144 310.476C26.8724 328.831 42.7621 343.633 61.8243 353.057C81.5501 363.105 104.979 368.129 132.111 368.129H146.901C171.606 368.65 196.102 363.494 218.504 353.057C238.356 343.673 255.195 328.925 267.122 310.476C278.494 292.408 284.588 271.515 284.714 250.16C307.86 248.396 339.593 241.688 359 237.603L359 158.115ZM209.816 153.444C209.695 158.925 209.643 164.406 209.552 169.886C200.033 169.672 190.819 166.488 183.195 160.78C176.197 155.706 170.661 148.874 167.144 140.974C165.535 137.448 162.593 131.016 162.593 115.536C162.593 88.1462 183.149 79.9923 196.148 89.7515C199.428 92.1313 202.157 95.1915 204.147 98.7232C210.647 111.781 209.802 128.565 209.9 132.17C210.091 139.26 209.973 146.354 209.816 153.444Z" fill="white"/>
</g>
<defs>
<clipPath id="clip0_98_895">
<rect width="359" height="460" fill="white"/>
</clipPath>
</defs>
</svg>
