<svg width="22" height="24" viewBox="0 0 22 24" fill="none" xmlns="http://www.w3.org/2000/svg">
<path fill-rule="evenodd" clip-rule="evenodd" d="M16.5907 0.618345C12.9086 -0.206115 9.09027 -0.206115 5.40822 0.618345L5.01148 0.706268C3.97576 0.938222 3.02451 1.45324 2.2634 2.19412C1.50229 2.935 0.961122 3.87272 0.700004 4.90313C-0.233334 8.58714 -0.233334 12.4463 0.700004 16.1303C0.94902 17.113 1.453 18.0123 2.16084 18.737C2.86869 19.4617 3.75523 19.986 4.7306 20.2569L5.27481 23.5112C5.29218 23.6145 5.33689 23.7113 5.40428 23.7915C5.47168 23.8716 5.55929 23.9322 5.658 23.9669C5.75671 24.0016 5.8629 24.0092 5.96553 23.9888C6.06815 23.9685 6.16345 23.9209 6.24149 23.8511L9.43765 20.9872C11.8369 21.1339 14.2449 20.9417 16.5907 20.4163L16.9886 20.3284C18.0243 20.0964 18.9756 19.5814 19.7367 18.8405C20.4978 18.0996 21.039 17.1619 21.3001 16.1315C22.2333 12.4475 22.2333 8.58832 21.3001 4.9043C21.0389 3.87375 20.4975 2.93592 19.7362 2.19503C18.9749 1.45414 18.0234 0.939201 16.9874 0.70744L16.5907 0.618345ZM6.39598 4.80817C6.17847 4.77646 5.95668 4.82032 5.76751 4.93244H5.75113C5.31226 5.19035 4.91669 5.51508 4.57963 5.89725C4.29875 6.22198 4.14661 6.55022 4.10682 6.86675C4.08341 7.05432 4.0998 7.24423 4.1548 7.42359L4.17587 7.43532C4.49186 8.36496 4.90381 9.25943 5.40705 10.1011C6.05594 11.2834 6.85446 12.3768 7.78281 13.3543L7.8109 13.3942L7.85537 13.427L7.88229 13.4586L7.91506 13.4868C8.8943 14.4195 9.98843 15.2232 11.1709 15.8783C12.5226 16.6157 13.343 16.9638 13.8357 17.1092V17.1162C13.9797 17.1608 14.1108 17.1807 14.243 17.1807C14.6626 17.1497 15.0598 16.9788 15.3712 16.6954C15.7516 16.3578 16.0734 15.9603 16.3238 15.5184V15.5102C16.5591 15.0647 16.4795 14.645 16.1401 14.3601C15.4584 13.7635 14.7212 13.2335 13.9387 12.7775C13.4144 12.4927 12.8819 12.665 12.6666 12.9534L12.2066 13.5348C11.9702 13.8232 11.5419 13.7834 11.5419 13.7834L11.5302 13.7904C8.33404 12.9733 7.48087 9.73187 7.48087 9.73187C7.48087 9.73187 7.44108 9.29108 7.73717 9.066L8.31297 8.60176C8.58917 8.37668 8.7811 7.84445 8.48501 7.31926C8.0328 6.53471 7.50479 5.79652 6.90858 5.11532C6.77854 4.955 6.59618 4.84581 6.39364 4.807L6.39598 4.80817ZM11.7959 3.39906C11.6407 3.39906 11.4918 3.46082 11.3821 3.57074C11.2723 3.68067 11.2107 3.82976 11.2107 3.98521C11.2107 4.14067 11.2723 4.28976 11.3821 4.39969C11.4918 4.50961 11.6407 4.57137 11.7959 4.57137C13.2763 4.57137 14.5052 5.05553 15.4777 5.984C15.9774 6.49161 16.3671 7.093 16.6223 7.75184C16.8786 8.41185 16.9956 9.11641 16.9652 9.82214C16.962 9.89911 16.9739 9.97597 17.0003 10.0483C17.0267 10.1207 17.0671 10.1871 17.1192 10.2438C17.2243 10.3584 17.3706 10.4264 17.5258 10.4329C17.681 10.4394 17.8324 10.3839 17.9467 10.2786C18.0611 10.1733 18.129 10.0268 18.1355 9.87137C18.1718 9.00326 18.028 8.13705 17.713 7.32746C17.3967 6.51404 16.9171 5.7743 16.304 5.15401L16.2922 5.14228C15.0856 3.98756 13.5584 3.39906 11.7959 3.39906ZM11.7561 5.32633C11.6009 5.32633 11.452 5.38809 11.3423 5.49802C11.2326 5.60794 11.1709 5.75703 11.1709 5.91249C11.1709 6.06795 11.2326 6.21704 11.3423 6.32696C11.452 6.43689 11.6009 6.49864 11.7561 6.49864H11.776C12.8433 6.57484 13.6204 6.93122 14.1646 7.51621C14.7228 8.11877 15.0119 8.86788 14.9897 9.794C14.9861 9.94946 15.0443 10.1 15.1515 10.2124C15.2588 10.3249 15.4062 10.3901 15.5614 10.3936C15.7166 10.3972 15.8668 10.3389 15.9791 10.2315C16.0914 10.1241 16.1564 9.97642 16.16 9.82096C16.1881 8.60528 15.7972 7.55606 15.0224 6.71904V6.71669C14.2301 5.8656 13.1429 5.41543 11.8345 5.32751L11.8146 5.32516L11.7561 5.32633ZM11.7338 7.28995C11.6555 7.28303 11.5766 7.29199 11.5018 7.31628C11.4271 7.34058 11.3579 7.37973 11.2986 7.43138C11.2393 7.48303 11.1909 7.54612 11.1564 7.6169C11.122 7.68769 11.1021 7.7647 11.098 7.84334C11.0939 7.92198 11.1057 8.00064 11.1326 8.07462C11.1596 8.14861 11.2011 8.2164 11.2548 8.27395C11.3084 8.3315 11.3731 8.37762 11.445 8.40957C11.5168 8.44153 11.5944 8.45865 11.673 8.45992C12.1622 8.48571 12.4746 8.63342 12.6713 8.83154C12.869 9.03083 13.0165 9.35087 13.0434 9.85144C13.0449 9.9301 13.0621 10.0077 13.0942 10.0795C13.1262 10.1513 13.1723 10.216 13.2298 10.2696C13.2873 10.3232 13.355 10.3647 13.4288 10.3915C13.5026 10.4184 13.5811 10.43 13.6595 10.4259C13.738 10.4217 13.8147 10.4018 13.8853 10.3672C13.9559 10.3327 14.0188 10.2843 14.0703 10.2249C14.1218 10.1655 14.1608 10.0963 14.1851 10.0215C14.2093 9.94664 14.2183 9.86769 14.2114 9.78931C14.174 9.08593 13.9539 8.4646 13.5034 8.0074C13.0504 7.5502 12.4337 7.32747 11.7338 7.28995Z" fill="#FAC310"/>
</svg>
