<svg width="65" height="64" viewBox="0 0 65 64" fill="none" xmlns="http://www.w3.org/2000/svg">
<path d="M49.5 14.5C50.3284 14.5 51 13.8284 51 13C51 12.1716 50.3284 11.5 49.5 11.5C48.6716 11.5 48 12.1716 48 13C48 13.8284 48.6716 14.5 49.5 14.5Z" fill="#FAC310"/>
<path d="M44.7998 14.25C45.4902 14.25 46.0498 13.6904 46.0498 13C46.0498 12.3096 45.4902 11.75 44.7998 11.75C44.1094 11.75 43.5498 12.3096 43.5498 13C43.5498 13.6904 44.1094 14.25 44.7998 14.25Z" fill="#FAC310"/>
<path d="M54.2002 14.25C54.8906 14.25 55.4502 13.6904 55.4502 13C55.4502 12.3096 54.8906 11.75 54.2002 11.75C53.5098 11.75 52.9502 12.3096 52.9502 13C52.9502 13.6904 53.5098 14.25 54.2002 14.25Z" fill="#FAC310"/>
<path d="M22.875 22.8207C23.6344 22.8207 24.25 22.2051 24.25 21.4457C24.25 20.6863 23.6344 20.0707 22.875 20.0707C22.1156 20.0707 21.5 20.6863 21.5 21.4457C21.5 22.2051 22.1156 22.8207 22.875 22.8207Z" fill="#FAC310"/>
<path d="M16.875 22.8207C17.6344 22.8207 18.25 22.2051 18.25 21.4457C18.25 20.6863 17.6344 20.0707 16.875 20.0707C16.1156 20.0707 15.5 20.6863 15.5 21.4457C15.5 22.2051 16.1156 22.8207 16.875 22.8207Z" fill="#FAC310"/>
<path d="M22.3171 26.502C22.2415 26.3947 22.1454 26.3033 22.0345 26.233C21.9235 26.1628 21.7998 26.1152 21.6704 26.0928C21.541 26.0704 21.4084 26.0737 21.2803 26.1025C21.1522 26.1313 21.031 26.1851 20.9236 26.2607C20.7388 26.3909 20.5203 26.4647 20.2944 26.4732C20.0685 26.4817 19.845 26.4246 19.6509 26.3087L19.3713 26.1416C19.1436 26.0056 18.8712 25.9656 18.614 26.0305C18.3568 26.0953 18.1359 26.2597 17.9999 26.4874C17.8639 26.7151 17.8239 26.9875 17.8887 27.2447C17.9536 27.5018 18.1179 27.7227 18.3456 27.8587L18.6248 28.0256C19.151 28.3397 19.757 28.4946 20.3694 28.4715C20.9818 28.4484 21.5744 28.2483 22.0755 27.8955C22.1829 27.8199 22.2743 27.7238 22.3446 27.6129C22.4148 27.5019 22.4625 27.3782 22.485 27.2488C22.5074 27.1194 22.5041 26.9868 22.4753 26.8587C22.4465 26.7306 22.3928 26.6094 22.3171 26.502Z" fill="#FAC310"/>
<path d="M9.50008 62.0305H42.5001C42.6325 62.0305 42.7635 62.0042 42.8857 61.9532C43.0078 61.9021 43.1186 61.8274 43.2116 61.7332C43.3047 61.639 43.3781 61.5273 43.4276 61.4045C43.4771 61.2817 43.5017 61.1503 43.5001 61.018L43.2701 43.2333C43.2436 41.3258 42.4689 39.505 41.1128 38.1633C39.7567 36.8215 37.9278 36.0661 36.0201 36.06H31.8388V32.4225H33.7588C34.9959 32.4226 36.2076 32.0717 37.2532 31.4105C38.2987 30.7493 39.1351 29.8049 39.6652 28.6871C40.1953 27.5693 40.3972 26.3241 40.2476 25.0961C40.098 23.8681 39.6029 22.7078 38.8199 21.75L37.3721 19.9781C36.5292 18.9446 36.0682 17.6521 36.0669 16.3185V16.278C36.069 14.324 35.5125 12.4101 34.463 10.7619C33.4135 9.11363 31.9147 7.79972 30.1433 6.97497L29.6512 6.36922C29.5684 6.2673 29.4663 6.1827 29.3508 6.12023C29.2353 6.05777 29.1086 6.01867 28.9779 6.00518C28.8473 5.99168 28.7153 6.00404 28.5894 6.04156C28.4636 6.07908 28.3464 6.14102 28.2445 6.22384C28.2195 6.24359 28.1972 6.26459 28.1752 6.28634C27.3936 6.09735 26.5924 6.00123 25.7883 5.99997H21.7768C19.0569 6.00305 16.4492 7.08492 14.5259 9.00824C12.6026 10.9316 11.5207 13.5393 11.5177 16.2592V25.2601C11.5202 27.4096 12.3751 29.4704 13.895 30.9903C15.4149 32.5103 17.4756 33.3654 19.6251 33.368H19.9731V36.0595H15.98C14.0726 36.0655 12.2439 36.8204 10.8879 38.1617C9.53181 39.503 8.75685 41.3233 8.72995 43.2305L8.50008 61.0175C8.49842 61.1498 8.52307 61.2812 8.57258 61.404C8.62209 61.5268 8.69549 61.6385 8.78852 61.7327C8.88154 61.8269 8.99234 61.9016 9.11449 61.9527C9.23663 62.0037 9.3677 62.03 9.50008 62.03V62.0305ZM10.5126 60.0305L10.6947 46H15.6206V47.5187L15.3637 47.8385C14.2056 49.021 13.4888 50.5655 13.3335 52.2134C13.1782 53.8613 13.5937 55.5125 14.5105 56.8906L15.5001 58.3394V60.045C15.4459 60.0357 15.3911 60.0308 15.3362 60.0305H10.5126ZM36.5001 60.0305V58.3775L37.6294 56.946C37.6461 56.9251 37.6618 56.9036 37.6765 56.8812C38.596 55.4954 39.0087 53.8346 38.8448 52.1796C38.681 50.5246 37.9506 48.9769 36.7772 47.7983L36.4306 47.4518L36.4147 45.9957C36.4428 45.9981 36.4713 46 36.5001 46H41.3056L41.4876 60.0305H36.5001ZM41.2701 43.2563L41.2797 44H36.5001C36.4643 44 36.4285 44.002 36.393 44.0058L36.3281 38.0693C37.654 38.1518 38.8998 38.732 39.8162 39.6938C40.7326 40.6556 41.2518 41.928 41.2701 43.2563ZM34.4351 47.8813C34.438 48.1428 34.5432 48.3927 34.7279 48.5776L35.3626 49.2125C36.2053 50.0589 36.7318 51.1692 36.8539 52.3574C36.976 53.5456 36.6863 54.7397 36.0333 55.7399L34.7151 57.411C34.5758 57.5874 34.5001 57.8057 34.5001 58.0305V60.0305H17.5001V58.0305C17.5001 57.8292 17.4394 57.6326 17.3258 57.4664L16.1683 55.7719C15.5044 54.771 15.2065 53.5716 15.3249 52.3764C15.4434 51.1813 15.9709 50.0637 16.8183 49.2126C16.8439 49.1869 16.8681 49.1599 16.8908 49.1316L17.4007 48.4967C17.5433 48.3192 17.621 48.0983 17.6211 47.8706V38.0595H20.1063L20.8946 43.5784C21.0669 44.7847 21.6686 45.8885 22.5892 46.6869C23.5098 47.4854 24.6876 47.9249 25.9062 47.9249C27.1248 47.9249 28.3026 47.4854 29.2232 46.6869C30.1438 45.8885 30.7455 44.7847 30.9178 43.5784L31.7062 38.0596H34.3278L34.4351 47.8813ZM27.5001 24C27.5 23.5886 27.5847 23.1817 27.749 22.8045C27.9132 22.4274 28.1535 22.0882 28.4547 21.8081C28.4939 21.7782 28.5308 21.7454 28.5651 21.71C29.087 21.2697 29.7436 21.0207 30.4263 21.0043C31.1089 20.9879 31.7767 21.205 32.3192 21.6197C32.8617 22.0344 33.2464 22.6219 33.4096 23.2849C33.5729 23.948 33.5049 24.6469 33.217 25.266C32.929 25.8852 32.4383 26.3875 31.8261 26.6899C31.2138 26.9923 30.5167 27.0767 29.85 26.929C29.1833 26.7814 28.587 26.4106 28.1597 25.878C27.7324 25.3453 27.4997 24.6828 27.5001 24ZM31.8573 10.6481C33.2798 12.1777 34.0694 14.1897 34.0669 16.2785V16.319C34.0687 18.1138 34.689 19.8531 35.8235 21.244L37.2713 23.0158C37.8145 23.6806 38.1579 24.4858 38.2616 25.3379C38.3653 26.19 38.2251 27.0541 37.8572 27.8297C37.4894 28.6053 36.909 29.2607 36.1835 29.7195C35.458 30.1784 34.6172 30.422 33.7588 30.422H31.8388V28.8165C32.9202 28.5157 33.8689 27.8598 34.5322 26.9545C35.1956 26.0491 35.535 24.9468 35.4959 23.8251C35.4568 22.7034 35.0414 21.6275 34.3166 20.7705C33.5918 19.9135 32.5997 19.3253 31.5001 19.1006V10.5976C31.5001 10.4911 31.4958 10.3851 31.4896 10.2787C31.6153 10.3981 31.7388 10.5203 31.8573 10.6481ZM21.7768 7.99997H25.7883C26.8457 8.00151 27.8929 8.20573 28.8733 8.60159C29.2802 9.18777 29.4989 9.88403 29.5001 10.5976V19.1006C28.9693 19.2092 28.4598 19.4041 27.992 19.6773C27.7326 19.2562 27.6003 18.7691 27.611 18.2746V14.0466C27.6109 13.8656 27.5618 13.688 27.4688 13.5327C27.3758 13.3774 27.2424 13.2503 27.0828 13.1649C26.9232 13.0795 26.7434 13.039 26.5626 13.0478C26.3818 13.0565 26.2068 13.1142 26.0562 13.2146C23.4649 14.9457 20.4178 15.8682 17.3015 15.8652H13.5277C13.6313 13.7463 14.5453 11.7482 16.0807 10.2843C17.6161 8.82037 19.6554 8.00254 21.7768 7.99997ZM19.6251 31.368C18.0057 31.3661 16.4533 30.722 15.3082 29.577C14.1632 28.4319 13.5191 26.8794 13.5172 25.2601V17.8652H17.301C20.1975 17.8682 23.0506 17.1609 25.6105 15.8055V18.275C25.5989 19.2603 25.9071 20.2229 26.4888 21.0183C25.8017 21.9398 25.4539 23.0703 25.5042 24.2186C25.5546 25.3669 26.0001 26.4626 26.7653 27.3203L25.732 28.3537C25.1569 28.3325 24.5023 28.6527 24.0333 29.2455C23.3478 30.1116 23.3188 31.2305 23.9683 31.7446C24.6178 32.2587 25.7003 31.9733 26.3857 31.1071C26.6379 30.7937 26.8095 30.4234 26.8857 30.0285L28.3846 28.5296C28.8445 28.7451 29.3349 28.8887 29.8385 28.9553C29.8385 28.9553 29.845 36.8185 29.8561 36.8782C29.8536 36.8916 29.8505 36.9047 29.8485 36.9183L28.9373 43.2958C28.8329 44.0255 28.4689 44.693 27.912 45.1759C27.3551 45.6587 26.6428 45.9246 25.9057 45.9246C25.1686 45.9246 24.4563 45.6587 23.8994 45.1759C23.3425 44.693 22.9785 44.0255 22.8741 43.2958L21.9631 36.9183C21.9611 36.9047 21.9731 32.3683 21.9731 32.3683C21.9731 32.1031 21.8677 31.8488 21.6802 31.6612C21.4926 31.4737 21.2383 31.3683 20.9731 31.3683L19.6251 31.368ZM15.6201 38.0732V44H10.7201L10.7297 43.254C10.7483 41.9349 11.2611 40.6708 12.1667 39.7116C13.0723 38.7523 14.3048 38.1677 15.6206 38.0732H15.6201Z" fill="#FAC310"/>
<path d="M27.5 52C27.5 52.2652 27.6054 52.5196 27.7929 52.7071C27.9804 52.8946 28.2348 53 28.5 53H33.5C33.7652 53 34.0196 52.8946 34.2071 52.7071C34.3946 52.5196 34.5 52.2652 34.5 52C34.5 51.7348 34.3946 51.4804 34.2071 51.2929C34.0196 51.1054 33.7652 51 33.5 51H28.5C28.2348 51 27.9804 51.1054 27.7929 51.2929C27.6054 51.4804 27.5 51.7348 27.5 52Z" fill="#FAC310"/>
<path d="M45.5003 23.25V26C45.5003 26.1857 45.552 26.3678 45.6496 26.5258C45.7473 26.6837 45.887 26.8114 46.0531 26.8945C46.2192 26.9775 46.4051 27.0127 46.5901 26.996C46.7751 26.9793 46.9517 26.9115 47.1003 26.8L50.9642 23.9022C53.6156 23.5443 56.0456 22.2317 57.7987 20.2106C59.5517 18.1894 60.5075 15.5983 60.4869 12.9228C60.4664 10.2474 59.4708 7.67126 57.6869 5.67726C55.903 3.68326 53.4532 2.40825 50.7965 2.09117C48.1398 1.77409 45.4587 2.43672 43.2556 3.95486C41.0525 5.473 39.4787 7.74245 38.829 10.3379C38.1794 12.9333 38.4985 15.6766 39.7266 18.0536C40.9547 20.4306 43.0075 22.2782 45.5003 23.25ZM49.5003 4.00003C51.8024 4.00096 54.0166 4.88402 55.6875 6.46757C57.3584 8.05113 58.359 10.2148 58.4835 12.5135C58.6079 14.8122 57.8468 17.0712 56.3566 18.8259C54.8664 20.5806 52.7605 21.6976 50.4719 21.947C50.293 21.9663 50.1226 22.0334 49.9787 22.1413L47.5003 24V22.5415C47.5003 22.3287 47.4324 22.1215 47.3065 21.9499C47.1806 21.7783 47.0033 21.6514 46.8003 21.5875C44.7491 20.9421 42.9968 19.5838 41.8604 17.7583C40.724 15.9328 40.2786 13.7608 40.6049 11.6354C40.9312 9.51002 42.0076 7.57165 43.6392 6.17111C45.2709 4.77057 47.35 4.00042 49.5003 4.00003Z" fill="#FAC310"/>
</svg>
