<svg width="65" height="64" viewBox="0 0 65 64" fill="none" xmlns="http://www.w3.org/2000/svg">
<path d="M4.5 35V39C4.5 40.8565 5.2375 42.637 6.55025 43.9497C7.86301 45.2625 9.64348 46 11.5 46V51.9615C10.7034 51.3651 9.74164 51.0302 8.74694 51.0028C7.75224 50.9754 6.77347 51.2568 5.94525 51.8084C5.83523 51.8809 5.74062 51.9744 5.66687 52.0836C5.59312 52.1928 5.54167 52.3155 5.5155 52.4447C5.48932 52.5738 5.48892 52.7069 5.51433 52.8362C5.53974 52.9655 5.59045 53.0885 5.66355 53.1981C5.73665 53.3077 5.8307 53.4018 5.94029 53.475C6.04988 53.5482 6.17285 53.599 6.30213 53.6244C6.43141 53.6499 6.56446 53.6496 6.69362 53.6235C6.82278 53.5974 6.94551 53.5461 7.05475 53.4724C7.65264 53.0742 8.38022 52.9199 9.08825 53.0411C9.79629 53.1623 10.4311 53.5499 10.8625 54.1242L10.9375 54.2243C11.3015 54.7117 11.4988 55.3034 11.5 55.9118V61C11.5 61.2652 11.6054 61.5196 11.7929 61.7071C11.9804 61.8946 12.2348 62 12.5 62C12.7652 62 13.0196 61.8946 13.2071 61.7071C13.3946 61.5196 13.5 61.2652 13.5 61V55.9109C13.5012 55.3025 13.6985 54.7108 14.0625 54.2234L14.1365 54.1246C14.5678 53.55 15.2028 53.1622 15.911 53.0409C16.6192 52.9196 17.347 53.0739 17.945 53.4723C18.1657 53.6177 18.435 53.6699 18.694 53.6174C18.953 53.5649 19.1807 53.4119 19.3273 53.1921C19.4739 52.9722 19.5275 52.7032 19.4764 52.4439C19.4253 52.1846 19.2736 51.956 19.0545 51.8083C18.2263 51.2568 17.2475 50.9755 16.2529 51.0029C15.2583 51.0304 14.2965 51.3653 13.5 51.9616V46C15.3565 46 17.137 45.2625 18.4497 43.9497C19.7625 42.637 20.5 40.8565 20.5 39V35C20.4998 34.8526 20.4669 34.707 20.4038 34.5738C20.3407 34.4406 20.2488 34.323 20.1349 34.2295C20.3763 33.511 20.4997 32.758 20.5 32V28C20.4998 27.8526 20.4669 27.707 20.4038 27.5738C20.3407 27.4406 20.2488 27.323 20.1349 27.2295C20.3763 26.511 20.4997 25.758 20.5 25V14C20.5 13.7348 20.3946 13.4804 20.2071 13.2929C20.0196 13.1054 19.7652 13 19.5 13C19.2348 13 18.9804 13.1054 18.7929 13.2929C18.6054 13.4804 18.5 13.7348 18.5 14V20.3071L14.3933 21.847C14.0844 21.964 13.7856 22.1061 13.5 22.272V10C13.5 9.73478 13.3946 9.48043 13.2071 9.29289C13.0196 9.10536 12.7652 9 12.5 9C12.2348 9 11.9804 9.10536 11.7929 9.29289C11.6054 9.48043 11.5 9.73478 11.5 10V22.271C11.2146 22.105 10.9158 21.9632 10.6067 21.847L6.5 20.3071V14C6.5 13.7348 6.39464 13.4804 6.20711 13.2929C6.01957 13.1054 5.76522 13 5.5 13C5.23478 13 4.98043 13.1054 4.79289 13.2929C4.60536 13.4804 4.5 13.7348 4.5 14V25C4.50027 25.758 4.62372 26.5109 4.8655 27.2292C4.75143 27.3228 4.6595 27.4404 4.5963 27.5736C4.5331 27.7069 4.50022 27.8525 4.5 28V32C4.50035 32.758 4.62366 33.511 4.86513 34.2295C4.75117 34.323 4.65934 34.4406 4.59621 34.5738C4.53308 34.707 4.50023 34.8526 4.5 35ZM15.0955 23.7196L18.5 22.443V25C18.4997 25.8776 18.2687 26.7398 17.8302 27.5C17.8165 27.5236 17.8052 27.5479 17.7927 27.572L14.5 28.807V27.465C14.4987 26.4506 14.2393 25.4531 13.7461 24.5666C14.1344 24.1965 14.5934 23.9084 15.0955 23.7196ZM15.0955 30.7196L18.5 29.443V32C18.4997 32.8776 18.2687 33.7398 17.8302 34.5C17.8165 34.5236 17.8052 34.5479 17.7927 34.572L14.5 35.807V34.465C14.4987 33.4506 14.2393 32.4531 13.7461 31.5666C14.1344 31.1965 14.5934 30.9084 15.0955 30.7196ZM15.0955 37.7196L18.5 36.443V39C18.5005 40.1522 18.1025 41.2692 17.3735 42.1615C16.6444 43.0538 15.6292 43.6664 14.5 43.8956V41.465C14.4987 40.4506 14.2393 39.4531 13.7461 38.5666C14.1344 38.1965 14.5934 37.9084 15.0955 37.7196ZM6.5 22.443L9.9045 23.7196C10.6654 24.0078 11.321 24.5201 11.7844 25.1889C12.2479 25.8576 12.4974 26.6513 12.5 27.465V29.9959L12.4981 29.9976C11.9451 29.4995 11.3035 29.1094 10.6067 28.8476L7.21537 27.575C6.74756 26.7975 6.50026 25.9074 6.5 25V22.443ZM6.5 29.443L9.9045 30.7196C10.6654 31.0078 11.321 31.5201 11.7844 32.1889C12.2479 32.8576 12.4974 33.6513 12.5 34.465V36.9959L12.4981 36.9976C11.9451 36.4995 11.3035 36.1094 10.6067 35.8476L7.20675 34.5726C7.19525 34.5484 7.1835 34.5241 7.16925 34.5005C6.73091 33.74 6.50012 32.8777 6.5 32V29.443ZM6.5 36.443L9.9045 37.7196C10.6654 38.0078 11.321 38.5201 11.7844 39.1889C12.2479 39.8576 12.4974 40.6513 12.5 41.465V44H11.5C10.1739 44 8.90215 43.4732 7.96447 42.5355C7.02678 41.5979 6.5 40.3261 6.5 39V36.443Z" fill="#FAC310"/>
<path d="M44.5 35V39C44.5 40.8565 45.2375 42.637 46.5503 43.9497C47.863 45.2625 49.6435 46 51.5 46V51.9615C50.7034 51.3651 49.7416 51.0302 48.7469 51.0028C47.7522 50.9754 46.7735 51.2568 45.9453 51.8084C45.8352 51.8809 45.7406 51.9744 45.6669 52.0836C45.5931 52.1928 45.5417 52.3155 45.5155 52.4447C45.4893 52.5738 45.4889 52.7069 45.5143 52.8362C45.5397 52.9655 45.5905 53.0885 45.6636 53.1981C45.7367 53.3077 45.8307 53.4018 45.9403 53.475C46.0499 53.5482 46.1728 53.599 46.3021 53.6244C46.4314 53.6499 46.5645 53.6496 46.6936 53.6235C46.8228 53.5974 46.9455 53.5461 47.0547 53.4724C47.6527 53.0741 48.3804 52.9197 49.0885 53.0409C49.7967 53.1621 50.4316 53.5497 50.863 54.1242L50.938 54.2243C51.302 54.7117 51.4993 55.3034 51.5005 55.9118V61C51.5005 61.2652 51.6059 61.5196 51.7934 61.7071C51.9809 61.8946 52.2353 62 52.5005 62C52.7657 62 53.0201 61.8946 53.2076 61.7071C53.3951 61.5196 53.5005 61.2652 53.5005 61V55.9109C53.5017 55.3025 53.699 54.7108 54.063 54.2234L54.137 54.1246C54.5683 53.55 55.2033 53.1622 55.9115 53.0409C56.6197 52.9196 57.3475 53.0739 57.9455 53.4723C58.1662 53.6177 58.4355 53.6699 58.6945 53.6174C58.9535 53.5649 59.1812 53.4119 59.3278 53.1921C59.4744 52.9722 59.528 52.7032 59.4769 52.4439C59.4258 52.1846 59.2741 51.956 59.055 51.8083C58.2267 51.2567 57.2479 50.9753 56.2531 51.0028C55.2584 51.0302 54.2966 51.3652 53.5 51.9616V46C55.3565 46 57.137 45.2625 58.4497 43.9497C59.7625 42.637 60.5 40.8565 60.5 39V35C60.4998 34.8526 60.467 34.707 60.4038 34.5738C60.3407 34.4406 60.2488 34.323 60.1349 34.2295C60.3763 33.511 60.4997 32.758 60.5 32V28C60.4998 27.8526 60.467 27.707 60.4038 27.5738C60.3407 27.4406 60.2488 27.323 60.1349 27.2295C60.3763 26.511 60.4997 25.758 60.5 25V14C60.5 13.7348 60.3946 13.4804 60.2071 13.2929C60.0196 13.1054 59.7652 13 59.5 13C59.2348 13 58.9804 13.1054 58.7929 13.2929C58.6054 13.4804 58.5 13.7348 58.5 14V20.3071L54.3932 21.847C54.0844 21.964 53.7856 22.1061 53.5 22.272V10C53.5 9.73478 53.3946 9.48043 53.2071 9.29289C53.0196 9.10536 52.7652 9 52.5 9C52.2348 9 51.9804 9.10536 51.7929 9.29289C51.6054 9.48043 51.5 9.73478 51.5 10V22.271C51.2146 22.105 50.9158 21.9632 50.6068 21.847L46.5 20.3071V14C46.5 13.7348 46.3946 13.4804 46.2071 13.2929C46.0196 13.1054 45.7652 13 45.5 13C45.2348 13 44.9804 13.1054 44.7929 13.2929C44.6054 13.4804 44.5 13.7348 44.5 14V25C44.5003 25.758 44.6237 26.5108 44.8654 27.2292C44.7513 27.3228 44.6594 27.4404 44.5963 27.5737C44.5331 27.7069 44.5002 27.8525 44.5 28V32C44.5003 32.758 44.6237 33.511 44.8651 34.2295C44.7512 34.323 44.6593 34.4406 44.5962 34.5738C44.533 34.707 44.5002 34.8526 44.5 35ZM55.0955 23.7196L58.5 22.443V25C58.4997 25.8776 58.2687 26.7398 57.8302 27.5C57.8165 27.5236 57.8053 27.5479 57.7928 27.572L54.5 28.807V27.465C54.4987 26.4506 54.2393 25.4532 53.7463 24.5666C54.1345 24.1965 54.5934 23.9084 55.0955 23.7196ZM55.0955 30.7196L58.5 29.443V32C58.4997 32.8776 58.2687 33.7398 57.8302 34.5C57.8165 34.5236 57.8053 34.5479 57.7928 34.572L54.5 35.807V34.465C54.4987 33.4506 54.2393 32.4532 53.7463 31.5666C54.1345 31.1965 54.5934 30.9084 55.0955 30.7196ZM55.0955 37.7196L58.5 36.443V39C58.5005 40.1522 58.1025 41.2692 57.3735 42.1615C56.6444 43.0538 55.6292 43.6664 54.5 43.8956V41.465C54.4987 40.4506 54.2393 39.4531 53.7463 38.5666C54.1345 38.1965 54.5934 37.9084 55.0955 37.7196ZM46.5 22.443L49.9045 23.7196C50.6654 24.0078 51.321 24.5201 51.7844 25.1889C52.2479 25.8576 52.4974 26.6513 52.5 27.465V29.9959L52.4981 29.9976C51.9451 29.4995 51.3035 29.1094 50.6068 28.8476L47.2154 27.575C46.7476 26.7975 46.5003 25.9074 46.5 25V22.443ZM46.5 29.443L49.9045 30.7196C50.6654 31.0078 51.321 31.5201 51.7844 32.1889C52.2479 32.8576 52.4974 33.6513 52.5 34.465V36.9959L52.4981 36.9976C51.9451 36.4995 51.3035 36.1094 50.6068 35.8476L47.2067 34.5726C47.1952 34.5484 47.1835 34.5241 47.1693 34.5005C46.7309 33.74 46.5001 32.8777 46.5 32V29.443ZM46.5 36.443L49.9045 37.7196C50.6654 38.0078 51.321 38.5201 51.7844 39.1889C52.2479 39.8576 52.4974 40.6513 52.5 41.465V44H51.5C50.1739 44 48.9021 43.4732 47.9645 42.5355C47.0268 41.5979 46.5 40.3261 46.5 39V36.443Z" fill="#FAC310"/>
<path d="M24.5 35V39C24.5 40.8565 25.2375 42.637 26.5503 43.9497C27.863 45.2625 29.6435 46 31.5 46V50.3211C30.7034 49.7248 29.7416 49.3898 28.7469 49.3624C27.7522 49.335 26.7735 49.6164 25.9452 50.168C25.8352 50.2405 25.7406 50.3341 25.6669 50.4433C25.5931 50.5525 25.5417 50.6752 25.5155 50.8043C25.4893 50.9334 25.4889 51.0665 25.5143 51.1958C25.5397 51.3251 25.5905 51.4481 25.6636 51.5577C25.7367 51.6674 25.8307 51.7615 25.9403 51.8346C26.0499 51.9078 26.1728 51.9586 26.3021 51.9841C26.4314 52.0096 26.5645 52.0092 26.6936 51.9832C26.8228 51.9571 26.9455 51.9057 27.0548 51.832C27.6527 51.4337 28.3804 51.2793 29.0885 51.4005C29.7967 51.5217 30.4316 51.9094 30.863 52.4839L30.938 52.5839C31.3019 53.071 31.4992 53.6625 31.5005 54.2706V61C31.5005 61.2652 31.6059 61.5196 31.7934 61.7071C31.9809 61.8946 32.2353 62 32.5005 62C32.7657 62 33.0201 61.8946 33.2076 61.7071C33.3951 61.5196 33.5005 61.2652 33.5005 61V54.2705C33.5017 53.6622 33.6989 53.0704 34.063 52.583L34.137 52.4842C34.5683 51.9096 35.2033 51.5218 35.9115 51.4005C36.6197 51.2792 37.3475 51.4335 37.9455 51.8319C38.1662 51.9773 38.4355 52.0295 38.6945 51.977C38.9535 51.9245 39.1812 51.7716 39.3278 51.5517C39.4744 51.3318 39.528 51.0628 39.4769 50.8035C39.4258 50.5442 39.2741 50.3157 39.055 50.1679C38.2267 49.6163 37.2479 49.3349 36.2531 49.3624C35.2584 49.3899 34.2966 49.7249 33.5 50.3214V46C35.3565 46 37.137 45.2625 38.4497 43.9497C39.7625 42.637 40.5 40.8565 40.5 39V35C40.4998 34.8526 40.467 34.707 40.4038 34.5738C40.3407 34.4406 40.2488 34.323 40.1349 34.2295C40.3763 33.511 40.4997 32.758 40.5 32V28C40.4998 27.8526 40.467 27.707 40.4038 27.5738C40.3407 27.4406 40.2488 27.323 40.1349 27.2295C40.3763 26.511 40.4997 25.758 40.5 25V21C40.4998 20.8522 40.4667 20.7063 40.4033 20.5728C40.3399 20.4394 40.2476 20.3216 40.1331 20.2281C40.375 19.5101 40.4989 18.7577 40.5 18V7C40.5 6.73478 40.3946 6.48043 40.2071 6.29289C40.0196 6.10536 39.7652 6 39.5 6C39.2348 6 38.9804 6.10536 38.7929 6.29289C38.6054 6.48043 38.5 6.73478 38.5 7V13.3071L34.3932 14.847C34.0844 14.964 33.7856 15.1061 33.5 15.272V3C33.5 2.73478 33.3946 2.48043 33.2071 2.29289C33.0196 2.10536 32.7652 2 32.5 2C32.2348 2 31.9804 2.10536 31.7929 2.29289C31.6054 2.48043 31.5 2.73478 31.5 3V15.271C31.2146 15.105 30.9158 14.9632 30.6068 14.847L26.5 13.3071V7C26.5 6.73478 26.3946 6.48043 26.2071 6.29289C26.0196 6.10536 25.7652 6 25.5 6C25.2348 6 24.9804 6.10536 24.7929 6.29289C24.6054 6.48043 24.5 6.73478 24.5 7V18C24.5011 18.7577 24.625 19.5101 24.8669 20.2281C24.7524 20.3216 24.6601 20.4394 24.5967 20.5728C24.5333 20.7063 24.5002 20.8522 24.5 21V25C24.5003 25.758 24.6237 26.5109 24.8655 27.2292C24.7514 27.3228 24.6595 27.4404 24.5963 27.5736C24.5331 27.7069 24.5002 27.8525 24.5 28V32C24.5003 32.758 24.6237 33.511 24.8651 34.2295C24.7512 34.323 24.6593 34.4406 24.5962 34.5738C24.5331 34.707 24.5002 34.8526 24.5 35ZM35.0955 16.7196L38.5 15.443V18C38.4976 18.9072 38.2502 19.7969 37.7839 20.575L34.5 21.807V20.465C34.4987 19.4506 34.2393 18.4532 33.7463 17.5666C34.1345 17.1965 34.5934 16.9084 35.0955 16.7196ZM35.0955 23.7196L38.125 22.5835C38.2491 22.6071 38.3766 22.6054 38.5 22.5786V25C38.4997 25.8776 38.2687 26.7398 37.8302 27.5C37.8165 27.5236 37.8053 27.5479 37.7928 27.572L34.5 28.807V27.465C34.4987 26.4506 34.2393 25.4532 33.7463 24.5666C34.1345 24.1965 34.5934 23.9084 35.0955 23.7196ZM35.0955 30.7196L38.5 29.443V32C38.4997 32.8776 38.2687 33.7398 37.8302 34.5C37.8165 34.5236 37.8053 34.5479 37.7928 34.572L34.5 35.807V34.465C34.4987 33.4506 34.2393 32.4532 33.7463 31.5666C34.1345 31.1965 34.5934 30.9084 35.0955 30.7196ZM35.0955 37.7196L38.5 36.443V39C38.5005 40.1522 38.1025 41.2692 37.3735 42.1615C36.6444 43.0538 35.6292 43.6664 34.5 43.8956V41.465C34.4987 40.4506 34.2393 39.4532 33.7463 38.5666C34.1345 38.1965 34.5934 37.9084 35.0955 37.7196ZM26.5 15.443L29.9045 16.7196C30.6654 17.0078 31.321 17.5201 31.7844 18.1889C32.2479 18.8576 32.4974 19.6513 32.5 20.465V22.9959L32.4981 22.9976C31.9451 22.4995 31.3035 22.1094 30.6068 21.8476L27.2161 20.5763C26.7496 19.7977 26.5021 18.9076 26.5 18V15.443ZM26.5 22.5786C26.6236 22.6039 26.7508 22.6056 26.875 22.5836L29.9042 23.7196C30.6652 24.0077 31.3208 24.52 31.7843 25.1888C32.2478 25.8576 32.4974 26.6513 32.5 27.465V29.9959L32.4981 29.9976C31.9451 29.4995 31.3035 29.1094 30.6068 28.8476L27.2154 27.575C26.7476 26.7975 26.5003 25.9074 26.5 25V22.5786ZM26.5 29.443L29.9045 30.7196C30.6654 31.0078 31.321 31.5201 31.7844 32.1889C32.2479 32.8576 32.4974 33.6513 32.5 34.465V36.9959L32.4981 36.9976C31.9451 36.4995 31.3035 36.1094 30.6068 35.8476L27.2068 34.5726C27.1953 34.5484 27.1835 34.5241 27.1693 34.5005C26.7309 33.74 26.5001 32.8777 26.5 32V29.443ZM26.5 36.443L29.9045 37.7196C30.6654 38.0078 31.321 38.5201 31.7844 39.1889C32.2479 39.8576 32.4974 40.6513 32.5 41.465V44H31.5C30.1739 44 28.9021 43.4732 27.9645 42.5355C27.0268 41.5979 26.5 40.3261 26.5 39V36.443Z" fill="#FAC310"/>
</svg>
