<svg width="65" height="64" viewBox="0 0 65 64" fill="none" xmlns="http://www.w3.org/2000/svg">
<path d="M57.4453 25.1152C57.0121 24.464 56.4246 23.93 55.735 23.5609C55.0454 23.1918 54.2752 22.9991 53.493 23H46.5V17C46.5 16.7348 46.3946 16.4804 46.2071 16.2929C46.0196 16.1054 45.7652 16 45.5 16H3.5C3.23478 16 2.98043 16.1054 2.79289 16.2929C2.60536 16.4804 2.5 16.7348 2.5 17V41.9775C2.5 41.9963 2.50175 42.015 2.50275 42.033C2.50869 42.2378 2.57757 42.4357 2.7 42.6L5.7 46.6C5.79315 46.7242 5.91393 46.825 6.05279 46.8944C6.19164 46.9639 6.34476 47 6.5 47H12.9188C13.3076 47.8916 13.9482 48.6504 14.762 49.1832C15.5757 49.7161 16.5273 50 17.5 50C18.4727 50 19.4243 49.7161 20.2381 49.1832C21.0518 48.6504 21.6924 47.8916 22.0813 47H48.9188C49.3076 47.8916 49.9482 48.6504 50.762 49.1832C51.5757 49.7161 52.5273 50 53.5 50C54.4727 50 55.4243 49.7161 56.2381 49.1832C57.0518 48.6504 57.6924 47.8916 58.0813 47H61.5C61.7652 47 62.0196 46.8946 62.2071 46.7071C62.3946 46.5196 62.5 46.2652 62.5 46V36.4062C62.5024 33.9875 61.7863 31.6225 60.4426 29.6112L57.4453 25.1152ZM55.7813 26.225L58.7785 30.721C59.0508 31.1295 59.2935 31.5569 59.5048 32H54.0884L50.2 25H53.4935C53.9463 24.9996 54.3921 25.1113 54.7913 25.325C55.1905 25.5388 55.5306 25.8479 55.7813 26.225ZM47.9116 25L52.6259 33.4856C52.7125 33.6415 52.8392 33.7714 52.9929 33.8619C53.1466 33.9523 53.3217 34 53.5 34H60.2133C60.4035 34.7879 60.4998 35.5957 60.5 36.4062V41H56.4968C55.6326 40.3509 54.581 39.9999 53.5001 39.9999C52.4193 39.9999 51.3677 40.3509 50.5035 41H46.5V25H47.9116ZM44.5 18V41H20.4965C19.6323 40.3509 18.5807 39.9999 17.4999 39.9999C16.4191 39.9999 15.3674 40.3509 14.5033 41H4.5V18H44.5ZM7 45L5.5 43H12.9188C12.6421 43.6305 12.4995 44.3115 12.5 45H7ZM17.5 48C16.9067 48 16.3266 47.8241 15.8333 47.4944C15.3399 47.1648 14.9554 46.6962 14.7284 46.148C14.5013 45.5999 14.4419 44.9967 14.5576 44.4147C14.6734 43.8328 14.9591 43.2982 15.3787 42.8787C15.7982 42.4591 16.3328 42.1734 16.9147 42.0576C17.4967 41.9419 18.0999 42.0013 18.6481 42.2284C19.1962 42.4554 19.6648 42.8399 19.9944 43.3333C20.3241 43.8266 20.5 44.4067 20.5 45C20.4991 45.7954 20.1827 46.5579 19.6203 47.1203C19.0579 47.6827 18.2954 47.9991 17.5 48ZM22.5 45C22.5005 44.3115 22.3579 43.6305 22.0813 43H48.9188C48.6422 43.6305 48.4996 44.3115 48.5 45H22.5ZM53.5 48C52.9067 48 52.3266 47.8241 51.8333 47.4944C51.3399 47.1648 50.9554 46.6962 50.7284 46.148C50.5013 45.5999 50.4419 44.9967 50.5577 44.4147C50.6734 43.8328 50.9591 43.2982 51.3787 42.8787C51.7982 42.4591 52.3328 42.1734 52.9147 42.0576C53.4967 41.9419 54.0999 42.0013 54.6481 42.2284C55.1962 42.4554 55.6648 42.8399 55.9944 43.3333C56.3241 43.8266 56.5 44.4067 56.5 45C56.4991 45.7954 56.1827 46.5579 55.6203 47.1203C55.0579 47.6827 54.2954 47.9991 53.5 48ZM58.5 45C58.5005 44.3115 58.3579 43.6305 58.0813 43H60.5V45H58.5Z" fill="#FAC310"/>
<path d="M14.5 27H17.5C17.7652 27 18.0196 26.8946 18.2071 26.7071C18.3946 26.5196 18.5 26.2652 18.5 26C18.5 25.7348 18.3946 25.4804 18.2071 25.2929C18.0196 25.1054 17.7652 25 17.5 25H14.5C14.2348 25 13.9804 25.1054 13.7929 25.2929C13.6054 25.4804 13.5 25.7348 13.5 26C13.5 26.2652 13.6054 26.5196 13.7929 26.7071C13.9804 26.8946 14.2348 27 14.5 27Z" fill="#FAC310"/>
<path d="M10.5 31H17.5C17.7652 31 18.0196 30.8946 18.2071 30.7071C18.3946 30.5196 18.5 30.2652 18.5 30C18.5 29.7348 18.3946 29.4804 18.2071 29.2929C18.0196 29.1054 17.7652 29 17.5 29H10.5C10.2348 29 9.98043 29.1054 9.79289 29.2929C9.60536 29.4804 9.5 29.7348 9.5 30C9.5 30.2652 9.60536 30.5196 9.79289 30.7071C9.98043 30.8946 10.2348 31 10.5 31Z" fill="#FAC310"/>
<path d="M17.5 33H12.5C12.2348 33 11.9804 33.1054 11.7929 33.2929C11.6054 33.4804 11.5 33.7348 11.5 34C11.5 34.2652 11.6054 34.5196 11.7929 34.7071C11.9804 34.8946 12.2348 35 12.5 35H17.5C17.7652 35 18.0196 34.8946 18.2071 34.7071C18.3946 34.5196 18.5 34.2652 18.5 34C18.5 33.7348 18.3946 33.4804 18.2071 33.2929C18.0196 33.1054 17.7652 33 17.5 33Z" fill="#FAC310"/>
<path d="M50.5 38H53.5C53.7652 38 54.0196 37.8946 54.2071 37.7071C54.3946 37.5196 54.5 37.2652 54.5 37C54.5 36.7348 54.3946 36.4804 54.2071 36.2929C54.0196 36.1054 53.7652 36 53.5 36H50.5C50.2348 36 49.9804 36.1054 49.7929 36.2929C49.6054 36.4804 49.5 36.7348 49.5 37C49.5 37.2652 49.6054 37.5196 49.7929 37.7071C49.9804 37.8946 50.2348 38 50.5 38Z" fill="#FAC310"/>
<path d="M39.0449 23.1615C38.9899 23.1258 30.8511 20.0638 30.8511 20.0638C30.6056 19.9714 30.3335 19.9795 30.0939 20.0861C30.0939 20.0861 20.9759 24.1466 20.9304 24.1781C20.7976 24.2702 20.6891 24.393 20.6141 24.5361C20.5392 24.6793 20.5 24.8384 20.5 25V35C20.5 35.2036 20.5621 35.4023 20.6781 35.5696C20.794 35.7369 20.9583 35.8648 21.1489 35.9363L29.1489 38.9363C29.389 39.0272 29.6552 39.0206 29.8905 38.9179C29.8958 38.9171 29.9011 38.9158 29.9061 38.9139L38.9061 34.9139C39.0829 34.8353 39.2331 34.7072 39.3385 34.545C39.4439 34.3827 39.5 34.1935 39.5 34V24C39.5 23.8334 39.4584 23.6694 39.3789 23.523C39.2994 23.3765 39.1846 23.2523 39.0449 23.1615ZM30.5324 22.0801L35.8615 24.0785L34.2716 24.785L32.5546 23.9714C32.4358 23.9139 32.3068 23.8805 32.175 23.8731C32.0432 23.8658 31.9113 23.8846 31.7868 23.9284C31.6623 23.9723 31.5477 24.0404 31.4497 24.1288C31.3516 24.2171 31.272 24.324 31.2155 24.4433C31.159 24.5626 31.1266 24.6919 31.1203 24.8237C31.114 24.9556 31.1338 25.0874 31.1787 25.2115C31.2236 25.3356 31.2926 25.4497 31.3817 25.547C31.4709 25.6443 31.5784 25.7231 31.6981 25.7786L31.8616 25.8561L29.4681 26.92L24.1388 24.9216L30.5324 22.0801ZM28.5 36.557L22.5 34.307V26.443L28.5 28.693V36.557ZM37.5 33.35L30.5 36.461V28.65L33.5 27.3168V29C33.5 29.2652 33.6054 29.5196 33.7929 29.7071C33.9804 29.8946 34.2348 30 34.5 30C34.7652 30 35.0196 29.8946 35.2071 29.7071C35.3946 29.5196 35.5 29.2652 35.5 29V26.4278L37.5 25.5389V33.35Z" fill="#FAC310"/>
<path d="M24.1485 30.9362L26.8151 31.9362C26.9384 31.9839 27.0699 32.0067 27.2021 32.0032C27.3342 31.9997 27.4643 31.9701 27.5849 31.916C27.7055 31.862 27.8142 31.7845 27.9047 31.6882C27.9952 31.5918 28.0657 31.4785 28.1121 31.3548C28.1586 31.231 28.18 31.0993 28.1752 30.9672C28.1704 30.8351 28.1394 30.7053 28.0841 30.5852C28.0288 30.4652 27.9503 30.3573 27.853 30.2677C27.7558 30.1782 27.6417 30.1089 27.5175 30.0637L24.8508 29.0637C24.7274 29.0158 24.5958 28.9928 24.4635 28.996C24.3312 28.9993 24.2008 29.0288 24.08 29.0829C23.9592 29.1369 23.8503 29.2144 23.7597 29.3108C23.669 29.4072 23.5984 29.5207 23.552 29.6446C23.5055 29.7685 23.4841 29.9004 23.489 30.0327C23.4938 30.1649 23.5249 30.2949 23.5804 30.415C23.6359 30.5352 23.7147 30.6431 23.8122 30.7326C23.9097 30.822 24.024 30.8913 24.1485 30.9362Z" fill="#FAC310"/>
</svg>
