<svg width="65" height="64" viewBox="0 0 65 64" fill="none" xmlns="http://www.w3.org/2000/svg">
<path d="M29.4832 60.0193L31.9067 61.805C32.0786 61.9317 32.2865 62 32.5 62C32.7135 62 32.9214 61.9317 33.0933 61.805L35.5168 60.0193C40.7826 56.1392 45.063 51.076 48.013 45.238C50.963 39.4 52.5 32.9505 52.5 26.4095V14C52.5 13.8247 52.4539 13.6525 52.3663 13.5006C52.2787 13.3487 52.1527 13.2225 52.001 13.1347L33.001 2.13467C32.8487 2.04653 32.6759 2.00012 32.5 2.00012C32.3241 2.00012 32.1513 2.04653 31.999 2.13467L12.999 13.1347C12.8473 13.2225 12.7213 13.3487 12.6337 13.5006C12.5461 13.6525 12.5 13.8247 12.5 14V26.4095C12.5 32.9505 14.037 39.4 16.987 45.238C19.937 51.076 24.2174 56.1392 29.4832 60.0193ZM14.5 14.5765L32.5 4.15555L50.5 14.5765V26.4095C50.5 32.6372 49.0368 38.7778 46.2281 44.3362C43.4194 49.8946 39.344 54.7153 34.3304 58.4095L32.5 59.7579L30.6696 58.4092C25.656 54.7149 21.5806 49.8943 18.772 44.336C15.9633 38.7777 14.5 32.6372 14.5 26.4095V14.5765Z" fill="#FAC310"/>
<path d="M31.95 55.7295C32.1134 55.8373 32.3049 55.8948 32.5007 55.8948C32.6964 55.8948 32.8879 55.8373 33.0513 55.7295C37.8052 52.6031 41.7064 48.3428 44.4033 43.3328C47.1002 38.3227 48.5081 32.7203 48.5 27.0305V17C48.5 16.8273 48.4553 16.6576 48.3702 16.5073C48.2852 16.357 48.1626 16.2314 48.0145 16.1425L33.0145 7.14251C32.8591 7.04926 32.6813 7 32.5 7C32.3188 7 32.141 7.04926 31.9855 7.14251L16.9855 16.1425C16.8375 16.2314 16.7149 16.357 16.6298 16.5073C16.5447 16.6576 16.5 16.8273 16.5 17V27.0305C16.4921 32.7204 17.9001 38.3229 20.5973 43.333C23.2944 48.3431 27.1959 52.6032 31.95 55.7295ZM18.5 17.5661L32.5 9.16614L46.5 17.5661V27.0305C46.5075 32.277 45.2366 37.4463 42.7972 42.0912C40.3579 46.7361 36.8236 50.7168 32.5 53.6888C28.1765 50.7168 24.6422 46.7361 22.2028 42.0912C19.7635 37.4463 18.4926 32.277 18.5 27.0305V17.5661Z" fill="#FAC310"/>
<path d="M40.4807 38.1962L42.1335 29.9322C42.7629 29.7969 43.3322 29.4629 43.7574 28.9794C44.1825 28.4959 44.441 27.8885 44.4946 27.2469C44.5483 26.6053 44.3943 25.9635 44.0553 25.4161C43.7164 24.8687 43.2105 24.4447 42.6122 24.2068C42.014 23.9688 41.3551 23.9295 40.7327 24.0946C40.1104 24.2597 39.5577 24.6204 39.156 25.1236C38.7543 25.6268 38.5251 26.2458 38.502 26.8892C38.479 27.5326 38.6633 28.1664 39.028 28.6971L36.8875 30.4096L34.2363 24.4443C34.7553 24.076 35.1437 23.5522 35.3454 22.9486C35.5471 22.345 35.5516 21.693 35.3584 21.0866C35.1651 20.4803 34.784 19.9512 34.2702 19.5757C33.7564 19.2002 33.1365 18.9978 32.5001 18.9978C31.8637 18.9978 31.2438 19.2002 30.73 19.5757C30.2162 19.9512 29.8351 20.4803 29.6418 21.0866C29.4485 21.693 29.453 22.345 29.6547 22.9486C29.8564 23.5522 30.2449 24.076 30.7638 24.4443L28.1126 30.4094L25.9721 28.6969C26.3357 28.1668 26.5194 27.5338 26.496 26.8914C26.4726 26.2489 26.2434 25.631 25.8421 25.1287C25.4409 24.6264 24.8888 24.2663 24.2674 24.1016C23.646 23.9369 22.9881 23.9762 22.3907 24.2138C21.7933 24.4514 21.2881 24.8747 20.9495 25.4212C20.611 25.9677 20.457 26.6086 20.5103 27.2492C20.5637 27.8899 20.8214 28.4965 21.2457 28.9795C21.6699 29.4626 22.2382 29.7965 22.8666 29.9321L24.5193 38.1961C24.5647 38.4228 24.6871 38.6268 24.866 38.7734C25.0448 38.92 25.2689 39.0001 25.5001 39.0001H39.5001C39.7313 39.0001 39.9553 38.92 40.1341 38.7734C40.3129 38.6269 40.4354 38.4229 40.4807 38.1962ZM41.5001 26.0001C41.6979 26.0001 41.8912 26.0587 42.0556 26.1686C42.2201 26.2785 42.3483 26.4347 42.424 26.6174C42.4996 26.8001 42.5195 27.0012 42.4809 27.1952C42.4423 27.3891 42.347 27.5673 42.2072 27.7072C42.0673 27.847 41.8892 27.9423 41.6952 27.9809C41.5012 28.0194 41.3001 27.9996 41.1174 27.9239C40.9347 27.8483 40.7785 27.7201 40.6686 27.5556C40.5587 27.3912 40.5001 27.1979 40.5001 27.0001C40.5004 26.7349 40.6058 26.4808 40.7933 26.2933C40.9808 26.1058 41.235 26.0004 41.5001 26.0001ZM32.5001 21.0001C32.6979 21.0001 32.8912 21.0587 33.0556 21.1686C33.2201 21.2785 33.3483 21.4347 33.424 21.6174C33.4996 21.8001 33.5195 22.0012 33.4809 22.1952C33.4423 22.3891 33.347 22.5673 33.2072 22.7072C33.0673 22.847 32.8892 22.9423 32.6952 22.9809C32.5012 23.0194 32.3001 22.9996 32.1174 22.9239C31.9347 22.8483 31.7785 22.7201 31.6686 22.5556C31.5587 22.3912 31.5001 22.1978 31.5001 22.0001C31.5004 21.7349 31.6058 21.4808 31.7933 21.2933C31.9808 21.1058 32.235 21.0004 32.5001 21.0001ZM23.5001 26.0001C23.6979 26.0001 23.8912 26.0587 24.0556 26.1686C24.2201 26.2785 24.3483 26.4347 24.424 26.6174C24.4996 26.8001 24.5195 27.0012 24.4809 27.1952C24.4423 27.3891 24.347 27.5673 24.2072 27.7072C24.0673 27.847 23.8892 27.9423 23.6952 27.9809C23.5012 28.0194 23.3001 27.9996 23.1174 27.9239C22.9347 27.8483 22.7785 27.7201 22.6686 27.5556C22.5587 27.3912 22.5001 27.1979 22.5001 27.0001C22.5004 26.7349 22.6058 26.4808 22.7933 26.2933C22.9808 26.1058 23.235 26.0004 23.5001 26.0001ZM26.32 37.0001L25.0191 30.4958L27.8751 32.7809C27.9945 32.8765 28.1343 32.9434 28.2837 32.9764C28.433 33.0095 28.5879 33.0079 28.7366 32.9716C28.8852 32.9354 29.0235 32.8656 29.1409 32.7675C29.2583 32.6694 29.3516 32.5457 29.4137 32.4059L32.5001 25.4626L35.5862 32.4064C35.6483 32.5462 35.7416 32.6699 35.859 32.768C35.9764 32.8661 36.1147 32.9359 36.2633 32.9721C36.412 33.0084 36.5669 33.01 36.7163 32.9769C36.8656 32.9439 37.0054 32.877 37.1248 32.7814L39.9811 30.4963L38.6802 37.0001H26.32Z" fill="#FAC310"/>
<path d="M32.5 45.25C33.1904 45.25 33.75 44.6904 33.75 44C33.75 43.3096 33.1904 42.75 32.5 42.75C31.8096 42.75 31.25 43.3096 31.25 44C31.25 44.6904 31.8096 45.25 32.5 45.25Z" fill="#FAC310"/>
<path d="M28.5 45C29.0523 45 29.5 44.5523 29.5 44C29.5 43.4477 29.0523 43 28.5 43C27.9477 43 27.5 43.4477 27.5 44C27.5 44.5523 27.9477 45 28.5 45Z" fill="#FAC310"/>
<path d="M36.5 45C37.0523 45 37.5 44.5523 37.5 44C37.5 43.4477 37.0523 43 36.5 43C35.9477 43 35.5 43.4477 35.5 44C35.5 44.5523 35.9477 45 36.5 45Z" fill="#FAC310"/>
<path d="M56.0352 6.6C56.3004 6.6 56.5547 6.49464 56.7423 6.30711C56.9298 6.11957 57.0352 5.86522 57.0352 5.6V4C57.0352 3.73478 56.9298 3.48043 56.7423 3.29289C56.5547 3.10536 56.3004 3 56.0352 3C55.7699 3 55.5156 3.10536 55.3281 3.29289C55.1405 3.48043 55.0352 3.73478 55.0352 4V5.6C55.0352 5.86522 55.1405 6.11957 55.3281 6.30711C55.5156 6.49464 55.7699 6.6 56.0352 6.6Z" fill="#FAC310"/>
<path d="M52.0712 6.86602L53.4569 7.66602C53.6865 7.79654 53.9583 7.83096 54.2132 7.76177C54.468 7.69258 54.6852 7.5254 54.8172 7.29672C54.9492 7.06803 54.9855 6.7964 54.918 6.5411C54.8505 6.28581 54.6847 6.06757 54.4569 5.93402L53.0712 5.13402C52.9574 5.06732 52.8316 5.02379 52.7009 5.00592C52.5702 4.98806 52.4373 4.99621 52.3098 5.02992C52.1823 5.06363 52.0628 5.12223 51.958 5.20233C51.8532 5.28244 51.7653 5.38248 51.6994 5.49669C51.6335 5.6109 51.5908 5.73703 51.5738 5.86781C51.5568 5.99859 51.5658 6.13144 51.6004 6.25871C51.6349 6.38599 51.6943 6.50517 51.7751 6.6094C51.8559 6.71362 51.9565 6.80084 52.0712 6.86602Z" fill="#FAC310"/>
<path d="M52.5725 11.0001C52.7477 11.0001 52.9199 10.9539 53.0715 10.866L54.4572 10.066C54.5719 10.0008 54.6725 9.91357 54.7533 9.80935C54.8341 9.70512 54.8935 9.58594 54.928 9.45866C54.9626 9.33139 54.9716 9.19854 54.9546 9.06776C54.9376 8.93698 54.8949 8.81085 54.829 8.69664C54.763 8.58243 54.6752 8.48239 54.5704 8.40229C54.4656 8.32218 54.3461 8.26358 54.2186 8.22987C54.0911 8.19616 53.9582 8.18801 53.8275 8.20587C53.6968 8.22374 53.571 8.26727 53.4572 8.33397L52.0715 9.13397C51.8807 9.24406 51.7316 9.41405 51.6474 9.61755C51.5631 9.82104 51.5484 10.0467 51.6055 10.2594C51.6626 10.4721 51.7883 10.66 51.9632 10.794C52.138 10.9279 52.3522 11.0004 52.5725 11.0001Z" fill="#FAC310"/>
<path d="M56.0352 13C56.3004 13 56.5547 12.8947 56.7423 12.7071C56.9298 12.5196 57.0352 12.2652 57.0352 12V10.4C57.0352 10.1348 56.9298 9.88045 56.7423 9.69292C56.5547 9.50538 56.3004 9.40002 56.0352 9.40002C55.7699 9.40002 55.5156 9.50538 55.3281 9.69292C55.1405 9.88045 55.0352 10.1348 55.0352 10.4V12C55.0352 12.2652 55.1405 12.5196 55.3281 12.7071C55.5156 12.8947 55.7699 13 56.0352 13Z" fill="#FAC310"/>
<path d="M57.6141 10.0661L58.9998 10.8661C59.2293 10.9966 59.5012 11.031 59.756 10.9618C60.0109 10.8927 60.228 10.7255 60.36 10.4968C60.4921 10.2681 60.5283 9.99647 60.4608 9.74117C60.3933 9.48588 60.2276 9.26764 59.9998 9.13409L58.6141 8.33409C58.5004 8.2674 58.3745 8.22386 58.2439 8.206C58.1132 8.18813 57.9803 8.19629 57.8528 8.23C57.7253 8.2637 57.6057 8.3223 57.501 8.40241C57.3962 8.48252 57.3083 8.58256 57.2424 8.69677C57.1764 8.81098 57.1337 8.9371 57.1167 9.06788C57.0997 9.19866 57.1088 9.33151 57.1433 9.45879C57.1779 9.58606 57.2373 9.70524 57.3181 9.80947C57.3989 9.9137 57.4995 10.0009 57.6141 10.0661Z" fill="#FAC310"/>
<path d="M58.1151 7.80002C58.2904 7.80002 58.4625 7.75375 58.6142 7.6659L59.9998 6.86602C60.1145 6.80084 60.2151 6.71362 60.2959 6.6094C60.3767 6.50517 60.4361 6.38599 60.4707 6.25871C60.5052 6.13144 60.5142 5.99859 60.4972 5.86781C60.4802 5.73703 60.4375 5.6109 60.3716 5.49669C60.3057 5.38248 60.2178 5.28244 60.113 5.20233C60.0083 5.12223 59.8887 5.06363 59.7612 5.02992C59.6337 4.99621 59.5008 4.98806 59.3701 5.00592C59.2394 5.02379 59.1136 5.06732 58.9998 5.13402L57.6142 5.93402C57.4235 6.04413 57.2745 6.2141 57.1903 6.41756C57.1061 6.62102 57.0914 6.84659 57.1484 7.05927C57.2055 7.27194 57.3312 7.45982 57.506 7.59376C57.6808 7.7277 57.8949 7.8002 58.1151 7.80002Z" fill="#FAC310"/>
<path d="M7.03516 38.6C7.30037 38.6 7.55473 38.4946 7.74226 38.3071C7.9298 38.1196 8.03516 37.8652 8.03516 37.6V36C8.03516 35.7348 7.9298 35.4804 7.74226 35.2929C7.55473 35.1054 7.30037 35 7.03516 35C6.76994 35 6.51559 35.1054 6.32805 35.2929C6.14051 35.4804 6.03516 35.7348 6.03516 36V37.6C6.03516 37.8652 6.14051 38.1196 6.32805 38.3071C6.51559 38.4946 6.76994 38.6 7.03516 38.6Z" fill="#FAC310"/>
<path d="M3.07141 38.8661L4.45716 39.6661C4.57093 39.7328 4.69677 39.7763 4.82743 39.7942C4.9581 39.8121 5.091 39.8039 5.2185 39.7702C5.346 39.7365 5.46557 39.6779 5.57034 39.5978C5.6751 39.5177 5.76298 39.4176 5.82892 39.3034C5.89486 39.1892 5.93756 39.0631 5.95456 38.9323C5.97156 38.8015 5.96252 38.6687 5.92797 38.5414C5.89341 38.4141 5.83403 38.295 5.75322 38.1907C5.67242 38.0865 5.5718 37.9993 5.45716 37.9341L4.07141 37.1341C3.84185 37.0036 3.56998 36.9692 3.31514 37.0384C3.0603 37.1075 2.84317 37.2747 2.71113 37.5034C2.5791 37.7321 2.54287 38.0037 2.61037 38.259C2.67786 38.5143 2.8436 38.7326 3.07141 38.8661Z" fill="#FAC310"/>
<path d="M3.57246 43.0001C3.74771 43.0001 3.91985 42.9539 4.07146 42.866L5.45721 42.066C5.57186 42.0008 5.67248 41.9136 5.75328 41.8093C5.83408 41.7051 5.89347 41.5859 5.92802 41.4587C5.96258 41.3314 5.97161 41.1985 5.95462 41.0678C5.93762 40.937 5.89492 40.8109 5.82898 40.6966C5.76304 40.5824 5.67515 40.4824 5.57039 40.4023C5.46563 40.3222 5.34606 40.2636 5.21856 40.2299C5.09106 40.1962 4.95815 40.188 4.82749 40.2059C4.69682 40.2237 4.57098 40.2673 4.45721 40.334L3.07146 41.134C2.8807 41.2441 2.73161 41.4141 2.64736 41.6175C2.5631 41.821 2.54838 42.0467 2.60549 42.2594C2.6626 42.4721 2.78834 42.66 2.96319 42.794C3.13804 42.9279 3.35221 43.0004 3.57246 43.0001Z" fill="#FAC310"/>
<path d="M7.03516 45C7.30037 45 7.55473 44.8947 7.74226 44.7071C7.9298 44.5196 8.03516 44.2652 8.03516 44V42.4C8.03516 42.1348 7.9298 41.8805 7.74226 41.6929C7.55473 41.5054 7.30037 41.4 7.03516 41.4C6.76994 41.4 6.51559 41.5054 6.32805 41.6929C6.14051 41.8805 6.03516 42.1348 6.03516 42.4V44C6.03516 44.2652 6.14051 44.5196 6.32805 44.7071C6.51559 44.8947 6.76994 45 7.03516 45Z" fill="#FAC310"/>
<path d="M8.61438 42.0661L10 42.8661C10.1138 42.9328 10.2396 42.9763 10.3703 42.9942C10.5009 43.012 10.6338 43.0039 10.7613 42.9702C10.8888 42.9364 11.0084 42.8779 11.1132 42.7977C11.2179 42.7176 11.3058 42.6176 11.3718 42.5034C11.4377 42.3892 11.4804 42.263 11.4974 42.1323C11.5144 42.0015 11.5054 41.8686 11.4708 41.7414C11.4363 41.6141 11.3769 41.4949 11.2961 41.3907C11.2153 41.2865 11.1146 41.1992 11 41.1341L9.61438 40.3341C9.38482 40.2035 9.11295 40.1691 8.85811 40.2383C8.60327 40.3075 8.38614 40.4747 8.2541 40.7034C8.12206 40.932 8.08584 41.2037 8.15334 41.459C8.22083 41.7143 8.38657 41.9325 8.61438 42.0661Z" fill="#FAC310"/>
<path d="M9.11509 39.8C9.29037 39.8 9.46254 39.7538 9.61421 39.6659L10.9998 38.866C11.1145 38.8008 11.2151 38.7136 11.2959 38.6094C11.3767 38.5052 11.4361 38.386 11.4706 38.2587C11.5052 38.1314 11.5142 37.9986 11.4972 37.8678C11.4802 37.737 11.4375 37.6109 11.3716 37.4967C11.3057 37.3825 11.2178 37.2824 11.113 37.2023C11.0083 37.1222 10.8887 37.0636 10.7612 37.0299C10.6337 36.9962 10.5008 36.9881 10.3701 37.0059C10.2394 37.0238 10.1136 37.0673 9.99984 37.134L8.61421 37.934C8.42352 38.0441 8.2745 38.2141 8.19028 38.4176C8.10607 38.621 8.09136 38.8466 8.14845 39.0593C8.20553 39.2719 8.33122 39.4598 8.506 39.5938C8.68078 39.7277 8.89489 39.8002 9.11509 39.8Z" fill="#FAC310"/>
<path d="M55.8301 46C55.8301 45.7348 55.7247 45.4804 55.5372 45.2929C55.3496 45.1054 55.0953 45 54.8301 45C54.5649 45 54.3105 45.1054 54.123 45.2929C53.9354 45.4804 53.8301 45.7348 53.8301 46V48C53.8301 48.2652 53.9354 48.5196 54.123 48.7071C54.3105 48.8946 54.5649 49 54.8301 49C55.0953 49 55.3496 48.8946 55.5372 48.7071C55.7247 48.5196 55.8301 48.2652 55.8301 48V46Z" fill="#FAC310"/>
<path d="M52.7321 48.6341L51.0001 47.6341C50.7706 47.5036 50.4987 47.4692 50.2439 47.5384C49.989 47.6075 49.7719 47.7747 49.6398 48.0034C49.5078 48.2321 49.4716 48.5037 49.5391 48.759C49.6066 49.0143 49.7723 49.2326 50.0001 49.3661L51.7321 50.3661C51.8459 50.4328 51.9717 50.4763 52.1024 50.4942C52.2331 50.5121 52.366 50.5039 52.4935 50.4702C52.621 50.4365 52.7405 50.3779 52.8453 50.2978C52.9501 50.2177 53.0379 50.1176 53.1039 50.0034C53.1698 49.8892 53.2125 49.7631 53.2295 49.6323C53.2465 49.5015 53.2375 49.3687 53.2029 49.2414C53.1684 49.1141 53.109 48.995 53.0282 48.8907C52.9474 48.7865 52.8468 48.6993 52.7321 48.6341Z" fill="#FAC310"/>
<path d="M51.7319 51.634L49.9999 52.634C49.8852 52.6992 49.7846 52.7864 49.7038 52.8906C49.623 52.9949 49.5636 53.1141 49.5291 53.2413C49.4945 53.3686 49.4855 53.5015 49.5025 53.6322C49.5195 53.763 49.5622 53.8891 49.6281 54.0034C49.6941 54.1176 49.7819 54.2176 49.8867 54.2977C49.9915 54.3778 50.111 54.4364 50.2385 54.4701C50.366 54.5038 50.4989 54.512 50.6296 54.4941C50.7603 54.4763 50.8861 54.4327 50.9999 54.366L52.7319 53.366C52.8465 53.3008 52.9472 53.2136 53.028 53.1094C53.1088 53.0052 53.1681 52.886 53.2027 52.7587C53.2372 52.6314 53.2463 52.4986 53.2293 52.3678C53.2123 52.237 53.1696 52.1109 53.1037 51.9967C53.0377 51.8825 52.9498 51.7824 52.8451 51.7023C52.7403 51.6222 52.6207 51.5636 52.4932 51.5299C52.3657 51.4962 52.2328 51.4881 52.1022 51.5059C51.9715 51.5238 51.8457 51.5673 51.7319 51.634Z" fill="#FAC310"/>
<path d="M54.8301 53C54.5649 53 54.3105 53.1054 54.123 53.2929C53.9354 53.4804 53.8301 53.7348 53.8301 54V56C53.8301 56.2652 53.9354 56.5196 54.123 56.7071C54.3105 56.8946 54.5649 57 54.8301 57C55.0953 57 55.3496 56.8946 55.5372 56.7071C55.7247 56.5196 55.8301 56.2652 55.8301 56V54C55.8301 53.7348 55.7247 53.4804 55.5372 53.2929C55.3496 53.1054 55.0953 53 54.8301 53Z" fill="#FAC310"/>
<path d="M59.6596 52.634L57.9276 51.634C57.8138 51.5673 57.688 51.5238 57.5573 51.5059C57.4267 51.4881 57.2938 51.4962 57.1663 51.5299C57.0388 51.5636 56.9192 51.6222 56.8144 51.7023C56.7097 51.7824 56.6218 51.8825 56.5559 51.9967C56.4899 52.1109 56.4472 52.237 56.4302 52.3678C56.4132 52.4986 56.4223 52.6314 56.4568 52.7587C56.4914 52.886 56.5508 53.0052 56.6316 53.1094C56.7124 53.2136 56.813 53.3008 56.9276 53.366L58.6596 54.366C58.8892 54.4965 59.161 54.531 59.4159 54.4618C59.6707 54.3926 59.8879 54.2254 60.0199 53.9967C60.1519 53.768 60.1882 53.4964 60.1207 53.2411C60.0532 52.9858 59.8874 52.7676 59.6596 52.634Z" fill="#FAC310"/>
<path d="M60.0256 48.0001C59.893 47.7704 59.6746 47.6028 59.4184 47.5342C59.1622 47.4656 58.8893 47.5015 58.6596 47.6341L56.9276 48.6341C56.813 48.6993 56.7124 48.7865 56.6316 48.8907C56.5508 48.9949 56.4914 49.1141 56.4568 49.2414C56.4223 49.3687 56.4132 49.5015 56.4302 49.6323C56.4472 49.7631 56.4899 49.8892 56.5559 50.0034C56.6218 50.1176 56.7097 50.2177 56.8144 50.2978C56.9192 50.3779 57.0388 50.4365 57.1663 50.4702C57.2938 50.5039 57.4267 50.5121 57.5573 50.4942C57.688 50.4763 57.8138 50.4328 57.9276 50.3661L59.6596 49.3661C59.8893 49.2335 60.0569 49.0151 60.1255 48.7589C60.1942 48.5027 60.1582 48.2298 60.0256 48.0001Z" fill="#FAC310"/>
</svg>
